# Blender 5.1.2
# www.blender.org
mtllib exobits.mtl
o RenderMesh_17249768962
v -0.219075 -0.244849 -0.012887
v -0.219075 -0.244849 -0.004296
v -0.210484 -0.244849 -0.012887
v -0.210484 -0.244849 -0.004296
v -0.219075 -0.236258 -0.030069
v -0.219075 -0.236258 -0.021478
v -0.219075 -0.227666 -0.030069
v -0.219075 -0.227666 -0.021478
v -0.210484 -0.236258 -0.030069
v -0.210484 -0.236258 -0.021478
v -0.210484 -0.227666 -0.030069
v -0.219075 -0.236258 -0.012887
v -0.219075 -0.236258 -0.004296
v -0.219075 -0.227666 -0.012887
v -0.219075 -0.227666 -0.004296
v -0.210484 -0.236258 -0.012887
v -0.219075 -0.219075 -0.030069
v -0.219075 -0.219075 -0.021478
v -0.219075 -0.210484 -0.030069
v -0.219075 -0.210484 -0.021478
v -0.210484 -0.219075 -0.030069
v -0.210484 -0.210484 -0.030069
v -0.219075 -0.219075 -0.012887
v -0.219075 -0.219075 -0.004296
v -0.219075 -0.210484 -0.012887
v -0.219075 -0.210484 -0.004296
v -0.219075 -0.201893 -0.030069
v -0.219075 -0.201893 -0.021478
v -0.219075 -0.193302 -0.030069
v -0.219075 -0.193302 -0.021478
v -0.210484 -0.201893 -0.030069
v -0.210484 -0.193302 -0.030069
v -0.210484 -0.193302 -0.021478
v -0.219075 -0.201893 -0.012887
v -0.219075 -0.201893 -0.004296
v -0.219075 -0.193302 -0.012887
v -0.219075 -0.193302 -0.004296
v -0.219075 -0.184711 -0.021478
v -0.210484 -0.184711 -0.021478
v -0.219075 -0.184711 -0.012887
v -0.219075 -0.184711 -0.004296
v -0.219075 -0.176119 -0.004296
v -0.210484 -0.184711 -0.012887
v -0.210484 -0.184711 -0.004296
v -0.210484 -0.176119 -0.004296
v -0.201892 -0.244849 -0.012887
v -0.201892 -0.244849 -0.004296
v -0.193301 -0.244849 -0.012887
v -0.193301 -0.244849 -0.004296
v -0.184710 -0.244849 -0.012887
v -0.184710 -0.244849 -0.004296
v -0.201892 -0.236258 -0.030069
v -0.201892 -0.236258 -0.021478
v -0.201892 -0.227666 -0.030069
v -0.193301 -0.236258 -0.030069
v -0.193301 -0.236258 -0.021478
v -0.193301 -0.227666 -0.030069
v -0.201892 -0.236258 -0.012887
v -0.193301 -0.236258 -0.012887
v -0.201892 -0.219075 -0.030069
v -0.201892 -0.210484 -0.030069
v -0.193301 -0.219075 -0.030069
v -0.193301 -0.210484 -0.030069
v -0.184710 -0.236258 -0.030069
v -0.184710 -0.236258 -0.021478
v -0.184710 -0.227666 -0.030069
v -0.184710 -0.227666 -0.021478
v -0.184710 -0.236258 -0.012887
v -0.184710 -0.236258 -0.004296
v -0.184710 -0.227666 -0.012887
v -0.184710 -0.227666 -0.004296
v -0.184710 -0.219075 -0.030069
v -0.184710 -0.219075 -0.021478
v -0.184710 -0.210484 -0.030069
v -0.184710 -0.210484 -0.021478
v -0.184710 -0.219075 -0.012887
v -0.184710 -0.219075 -0.004296
v -0.184710 -0.210484 -0.012887
v -0.184710 -0.210484 -0.004296
v -0.201892 -0.201893 -0.030069
v -0.201892 -0.193302 -0.030069
v -0.201892 -0.193302 -0.021478
v -0.193301 -0.201893 -0.030069
v -0.193301 -0.193302 -0.030069
v -0.193301 -0.193302 -0.021478
v -0.201892 -0.184711 -0.021478
v -0.193301 -0.184711 -0.021478
v -0.201892 -0.184711 -0.012887
v -0.201892 -0.184711 -0.004296
v -0.201892 -0.176119 -0.004296
v -0.193301 -0.184711 -0.012887
v -0.193301 -0.184711 -0.004296
v -0.193301 -0.176119 -0.004296
v -0.184710 -0.201893 -0.030069
v -0.184710 -0.201893 -0.021478
v -0.184710 -0.193302 -0.030069
v -0.184710 -0.193302 -0.021478
v -0.184710 -0.201893 -0.012887
v -0.184710 -0.201893 -0.004296
v -0.184710 -0.193302 -0.012887
v -0.184710 -0.193302 -0.004296
v -0.184710 -0.184711 -0.021478
v -0.184710 -0.184711 -0.012887
v -0.184710 -0.184711 -0.004296
v -0.184710 -0.176119 -0.004296
v -0.219075 -0.244849 0.004296
v -0.219075 -0.244849 0.012887
v -0.210484 -0.244849 0.004296
v -0.210484 -0.244849 0.012887
v -0.219075 -0.236258 0.004296
v -0.219075 -0.236258 0.012887
v -0.219075 -0.227666 0.004296
v -0.219075 -0.227666 0.012887
v -0.210484 -0.236258 0.012887
v -0.219075 -0.236258 0.021478
v -0.219075 -0.236258 0.030069
v -0.219075 -0.227666 0.021478
v -0.219075 -0.227666 0.030069
v -0.210484 -0.236258 0.021478
v -0.210484 -0.236258 0.030069
v -0.210484 -0.227666 0.030069
v -0.219075 -0.219075 0.004296
v -0.219075 -0.219075 0.012887
v -0.219075 -0.210484 0.004296
v -0.219075 -0.210484 0.012887
v -0.219075 -0.219075 0.021478
v -0.219075 -0.219075 0.030069
v -0.219075 -0.210484 0.021478
v -0.219075 -0.210484 0.030069
v -0.210484 -0.219075 0.030069
v -0.210484 -0.210484 0.030069
v -0.219075 -0.201893 0.004296
v -0.219075 -0.201893 0.012887
v -0.219075 -0.193302 0.004296
v -0.219075 -0.193302 0.012887
v -0.219075 -0.201893 0.021478
v -0.219075 -0.201893 0.030069
v -0.219075 -0.193302 0.021478
v -0.219075 -0.193302 0.030069
v -0.210484 -0.201893 0.030069
v -0.210484 -0.193302 0.021478
v -0.210484 -0.193302 0.030069
v -0.219075 -0.184711 0.004296
v -0.219075 -0.184711 0.012887
v -0.219075 -0.176119 0.004296
v -0.210484 -0.184711 0.004296
v -0.210484 -0.184711 0.012887
v -0.210484 -0.176119 0.004296
v -0.219075 -0.184711 0.021478
v -0.210484 -0.184711 0.021478
v -0.201892 -0.244849 0.004296
v -0.201892 -0.244849 0.012887
v -0.193301 -0.244849 0.004296
v -0.193301 -0.244849 0.012887
v -0.184710 -0.244849 0.004296
v -0.184710 -0.244849 0.012887
v -0.201892 -0.236258 0.012887
v -0.193301 -0.236258 0.012887
v -0.201892 -0.236258 0.021478
v -0.201892 -0.236258 0.030069
v -0.201892 -0.227666 0.030069
v -0.193301 -0.236258 0.021478
v -0.193301 -0.236258 0.030069
v -0.193301 -0.227666 0.030069
v -0.201892 -0.219075 0.030069
v -0.201892 -0.210484 0.030069
v -0.193301 -0.219075 0.030069
v -0.193301 -0.210484 0.030069
v -0.184710 -0.236258 0.004296
v -0.184710 -0.236258 0.012887
v -0.184710 -0.227666 0.004296
v -0.184710 -0.227666 0.012887
v -0.184710 -0.236258 0.021478
v -0.184710 -0.236258 0.030069
v -0.184710 -0.227666 0.021478
v -0.184710 -0.227666 0.030069
v -0.184710 -0.219075 0.004296
v -0.184710 -0.219075 0.012887
v -0.184710 -0.210484 0.004296
v -0.184710 -0.210484 0.012887
v -0.184710 -0.219075 0.021478
v -0.184710 -0.219075 0.030069
v -0.184710 -0.210484 0.021478
v -0.184710 -0.210484 0.030069
v -0.201892 -0.201893 0.030069
v -0.201892 -0.193302 0.021478
v -0.201892 -0.193302 0.030069
v -0.193301 -0.201893 0.030069
v -0.193301 -0.193302 0.021478
v -0.193301 -0.193302 0.030069
v -0.201892 -0.184711 0.004296
v -0.201892 -0.184711 0.012887
v -0.201892 -0.176119 0.004296
v -0.193301 -0.184711 0.004296
v -0.193301 -0.184711 0.012887
v -0.193301 -0.176119 0.004296
v -0.201892 -0.184711 0.021478
v -0.193301 -0.184711 0.021478
v -0.184710 -0.201893 0.004296
v -0.184710 -0.201893 0.012887
v -0.184710 -0.193302 0.004296
v -0.184710 -0.193302 0.012887
v -0.184710 -0.201893 0.021478
v -0.184710 -0.201893 0.030069
v -0.184710 -0.193302 0.021478
v -0.184710 -0.193302 0.030069
v -0.184710 -0.184711 0.004296
v -0.184710 -0.184711 0.012887
v -0.184710 -0.176119 0.004296
v -0.184710 -0.184711 0.021478
v 0.150345 0.210483 -0.004296
v 0.150345 0.219074 -0.004296
v 0.150345 0.227665 -0.004296
v 0.150345 0.236257 -0.004296
v 0.158937 0.210483 -0.021478
v 0.158937 0.219074 -0.021478
v 0.167528 0.210483 -0.030069
v 0.167528 0.210483 -0.021478
v 0.167528 0.219074 -0.030069
v 0.167528 0.219074 -0.021478
v 0.158937 0.210483 -0.012887
v 0.158937 0.210483 -0.004296
v 0.158937 0.219074 -0.012887
v 0.158937 0.219074 -0.004296
v 0.167528 0.210483 -0.012887
v 0.167528 0.210483 -0.004296
v 0.158937 0.227665 -0.021478
v 0.158937 0.236257 -0.021478
v 0.167528 0.227665 -0.030069
v 0.167528 0.227665 -0.021478
v 0.167528 0.236257 -0.030069
v 0.167528 0.236257 -0.021478
v 0.158937 0.227665 -0.012887
v 0.158937 0.227665 -0.004296
v 0.158937 0.236257 -0.012887
v 0.158937 0.236257 -0.004296
v 0.150345 0.244848 -0.004296
v 0.158937 0.244848 -0.021478
v 0.167528 0.244848 -0.030069
v 0.167528 0.244848 -0.021478
v 0.158937 0.244848 -0.012887
v 0.158937 0.244848 -0.004296
v 0.167528 0.244848 -0.012887
v 0.167528 0.244848 -0.004296
v 0.176119 0.210483 -0.030069
v 0.176119 0.210483 -0.021478
v 0.176119 0.219074 -0.030069
v 0.184710 0.210483 -0.030069
v 0.184710 0.210483 -0.021478
v 0.184710 0.219074 -0.030069
v 0.176119 0.210483 -0.012887
v 0.176119 0.210483 -0.004296
v 0.184710 0.210483 -0.012887
v 0.184710 0.210483 -0.004296
v 0.176119 0.227665 -0.030069
v 0.176119 0.236257 -0.030069
v 0.184710 0.227665 -0.030069
v 0.184710 0.236257 -0.030069
v 0.193301 0.210483 -0.030069
v 0.193301 0.210483 -0.021478
v 0.193301 0.219074 -0.030069
v 0.201892 0.210483 -0.030069
v 0.201892 0.210483 -0.021478
v 0.201892 0.219074 -0.030069
v 0.193301 0.210483 -0.012887
v 0.193301 0.210483 -0.004296
v 0.201892 0.210483 -0.012887
v 0.201892 0.210483 -0.004296
v 0.193301 0.227665 -0.030069
v 0.193301 0.236257 -0.030069
v 0.201892 0.227665 -0.030069
v 0.201892 0.236257 -0.030069
v 0.176119 0.244848 -0.030069
v 0.176119 0.244848 -0.021478
v 0.184710 0.244848 -0.030069
v 0.184710 0.244848 -0.021478
v 0.176119 0.244848 -0.012887
v 0.176119 0.244848 -0.004296
v 0.184710 0.244848 -0.012887
v 0.184710 0.244848 -0.004296
v 0.193301 0.244848 -0.030069
v 0.193301 0.244848 -0.021478
v 0.201892 0.244848 -0.030069
v 0.201892 0.244848 -0.021478
v 0.193301 0.244848 -0.012887
v 0.193301 0.244848 -0.004296
v 0.201892 0.244848 -0.012887
v 0.201892 0.244848 -0.004296
v 0.210484 0.210483 -0.030069
v 0.210484 0.210483 -0.021478
v 0.210484 0.219074 -0.030069
v 0.210484 0.219074 -0.021478
v 0.219075 0.210483 -0.021478
v 0.219075 0.219074 -0.021478
v 0.210484 0.210483 -0.012887
v 0.210484 0.210483 -0.004296
v 0.219075 0.210483 -0.012887
v 0.219075 0.210483 -0.004296
v 0.219075 0.219074 -0.012887
v 0.219075 0.219074 -0.004296
v 0.210484 0.227665 -0.030069
v 0.210484 0.227665 -0.021478
v 0.210484 0.236257 -0.030069
v 0.210484 0.236257 -0.021478
v 0.219075 0.227665 -0.021478
v 0.219075 0.236257 -0.021478
v 0.219075 0.227665 -0.012887
v 0.219075 0.227665 -0.004296
v 0.219075 0.236257 -0.012887
v 0.219075 0.236257 -0.004296
v 0.210484 0.244848 -0.030069
v 0.210484 0.244848 -0.021478
v 0.219075 0.244848 -0.021478
v 0.210484 0.244848 -0.012887
v 0.210484 0.244848 -0.004296
v 0.219075 0.244848 -0.012887
v 0.219075 0.244848 -0.004296
v 0.150345 0.210483 0.004296
v 0.150345 0.219074 0.004296
v 0.150345 0.227665 0.004296
v 0.150345 0.236257 0.004296
v 0.158937 0.210483 0.004296
v 0.158937 0.210483 0.012887
v 0.158937 0.219074 0.004296
v 0.158937 0.219074 0.012887
v 0.167528 0.210483 0.004296
v 0.167528 0.210483 0.012887
v 0.158937 0.210483 0.021478
v 0.158937 0.219074 0.021478
v 0.167528 0.210483 0.021478
v 0.167528 0.210483 0.030069
v 0.167528 0.219074 0.021478
v 0.167528 0.219074 0.030069
v 0.158937 0.227665 0.004296
v 0.158937 0.227665 0.012887
v 0.158937 0.236257 0.004296
v 0.158937 0.236257 0.012887
v 0.158937 0.227665 0.021478
v 0.158937 0.236257 0.021478
v 0.167528 0.227665 0.021478
v 0.167528 0.227665 0.030069
v 0.167528 0.236257 0.021478
v 0.167528 0.236257 0.030069
v 0.150345 0.244848 0.004296
v 0.158937 0.244848 0.004296
v 0.158937 0.244848 0.012887
v 0.167528 0.244848 0.004296
v 0.167528 0.244848 0.012887
v 0.158937 0.244848 0.021478
v 0.167528 0.244848 0.021478
v 0.167528 0.244848 0.030069
v 0.176119 0.210483 0.004296
v 0.176119 0.210483 0.012887
v 0.184710 0.210483 0.004296
v 0.184710 0.210483 0.012887
v 0.176119 0.210483 0.021478
v 0.176119 0.210483 0.030069
v 0.176119 0.219074 0.030069
v 0.184710 0.210483 0.021478
v 0.184710 0.210483 0.030069
v 0.184710 0.219074 0.030069
v 0.176119 0.227665 0.030069
v 0.176119 0.236257 0.030069
v 0.184710 0.227665 0.030069
v 0.184710 0.236257 0.030069
v 0.193301 0.210483 0.004296
v 0.193301 0.210483 0.012887
v 0.201892 0.210483 0.004296
v 0.201892 0.210483 0.012887
v 0.193301 0.210483 0.021478
v 0.193301 0.210483 0.030069
v 0.193301 0.219074 0.030069
v 0.201892 0.210483 0.021478
v 0.201892 0.210483 0.030069
v 0.201892 0.219074 0.030069
v 0.193301 0.227665 0.030069
v 0.193301 0.236257 0.030069
v 0.201892 0.227665 0.030069
v 0.201892 0.236257 0.030069
v 0.176119 0.244848 0.004296
v 0.176119 0.244848 0.012887
v 0.184710 0.244848 0.004296
v 0.184710 0.244848 0.012887
v 0.176119 0.244848 0.021478
v 0.176119 0.244848 0.030069
v 0.184710 0.244848 0.021478
v 0.184710 0.244848 0.030069
v 0.193301 0.244848 0.004296
v 0.193301 0.244848 0.012887
v 0.201892 0.244848 0.004296
v 0.201892 0.244848 0.012887
v 0.193301 0.244848 0.021478
v 0.193301 0.244848 0.030069
v 0.201892 0.244848 0.021478
v 0.201892 0.244848 0.030069
v 0.210484 0.210483 0.004296
v 0.210484 0.210483 0.012887
v 0.219075 0.210483 0.004296
v 0.219075 0.210483 0.012887
v 0.219075 0.219074 0.004296
v 0.219075 0.219074 0.012887
v 0.210484 0.210483 0.021478
v 0.210484 0.210483 0.030069
v 0.210484 0.219074 0.021478
v 0.210484 0.219074 0.030069
v 0.219075 0.210483 0.021478
v 0.219075 0.219074 0.021478
v 0.219075 0.227665 0.004296
v 0.219075 0.227665 0.012887
v 0.219075 0.236257 0.004296
v 0.219075 0.236257 0.012887
v 0.210484 0.227665 0.021478
v 0.210484 0.227665 0.030069
v 0.210484 0.236257 0.021478
v 0.210484 0.236257 0.030069
v 0.219075 0.227665 0.021478
v 0.219075 0.236257 0.021478
v 0.210484 0.244848 0.004296
v 0.210484 0.244848 0.012887
v 0.219075 0.244848 0.004296
v 0.219075 0.244848 0.012887
v 0.210484 0.244848 0.021478
v 0.210484 0.244848 0.030069
v 0.219075 0.244848 0.021478
vn -0.0000 -1.0000 -0.0000
vn -1.0000 -0.0000 -0.0000
vn -0.0000 -0.0000 -1.0000
vn -0.0000 1.0000 -0.0000
vn 1.0000 -0.0000 -0.0000
vn -0.0000 -0.0000 1.0000
s 0
f 1//1 3//1 4//1 2//1
f 5//2 6//2 8//2 7//2
f 5//1 9//1 10//1 6//1
f 5//3 7//3 11//3 9//3
f 12//2 13//2 15//2 14//2
f 17//2 18//2 20//2 19//2
f 17//3 19//3 22//3 21//3
f 23//2 24//2 26//2 25//2
f 7//2 8//2 18//2 17//2
f 7//3 17//3 21//3 11//3
f 14//2 15//2 24//2 23//2
f 6//2 12//2 14//2 8//2
f 6//1 10//1 16//1 12//1
f 18//2 23//2 25//2 20//2
f 8//2 14//2 23//2 18//2
f 1//2 2//2 13//2 12//2
f 1//3 12//3 16//3 3//3
f 27//2 28//2 30//2 29//2
f 30//4 33//4 32//4 29//4
f 27//3 29//3 32//3 31//3
f 34//2 35//2 37//2 36//2
f 41//4 44//4 43//4 40//4
f 41//3 42//3 45//3 44//3
f 30//3 38//3 39//3 33//3
f 36//2 37//2 41//2 40//2
f 28//2 34//2 36//2 30//2
f 40//4 43//4 39//4 38//4
f 30//2 36//2 40//2 38//2
f 46//1 48//1 49//1 47//1
f 48//1 50//1 51//1 49//1
f 52//1 55//1 56//1 53//1
f 52//3 54//3 57//3 55//3
f 60//3 61//3 63//3 62//3
f 66//5 67//5 65//5 64//5
f 70//5 71//5 69//5 68//5
f 74//5 75//5 73//5 72//5
f 78//5 79//5 77//5 76//5
f 55//1 64//1 65//1 56//1
f 55//3 57//3 66//3 64//3
f 62//3 63//3 74//3 72//3
f 54//3 60//3 62//3 57//3
f 72//5 73//5 67//5 66//5
f 76//5 77//5 71//5 70//5
f 53//1 56//1 59//1 58//1
f 67//5 70//5 68//5 65//5
f 75//5 78//5 76//5 73//5
f 73//5 76//5 70//5 67//5
f 56//1 65//1 68//1 59//1
f 57//3 62//3 72//3 66//3
f 46//3 58//3 59//3 48//3
f 68//5 69//5 51//5 50//5
f 48//3 59//3 68//3 50//3
f 82//4 85//4 84//4 81//4
f 80//3 81//3 84//3 83//3
f 89//4 92//4 91//4 88//4
f 89//3 90//3 93//3 92//3
f 96//5 97//5 95//5 94//5
f 100//5 101//5 99//5 98//5
f 85//4 97//4 96//4 84//4
f 83//3 84//3 96//3 94//3
f 92//4 104//4 103//4 91//4
f 92//3 93//3 105//3 104//3
f 82//3 86//3 87//3 85//3
f 103//5 104//5 101//5 100//5
f 88//4 91//4 87//4 86//4
f 97//5 100//5 98//5 95//5
f 102//5 103//5 100//5 97//5
f 91//4 103//4 102//4 87//4
f 85//3 87//3 102//3 97//3
f 3//1 46//1 47//1 4//1
f 9//1 52//1 53//1 10//1
f 9//3 11//3 54//3 52//3
f 21//3 22//3 61//3 60//3
f 10//1 53//1 58//1 16//1
f 11//3 21//3 60//3 54//3
f 3//3 16//3 58//3 46//3
f 33//4 82//4 81//4 32//4
f 31//3 32//3 81//3 80//3
f 44//4 89//4 88//4 43//4
f 44//3 45//3 90//3 89//3
f 43//4 88//4 86//4 39//4
f 33//3 39//3 86//3 82//3
f 19//2 20//2 28//2 27//2
f 19//3 27//3 31//3 22//3
f 25//2 26//2 35//2 34//2
f 20//2 25//2 34//2 28//2
f 61//3 80//3 83//3 63//3
f 94//5 95//5 75//5 74//5
f 98//5 99//5 79//5 78//5
f 95//5 98//5 78//5 75//5
f 63//3 83//3 94//3 74//3
f 22//3 31//3 80//3 61//3
f 106//1 108//1 109//1 107//1
f 110//2 111//2 113//2 112//2
f 115//2 116//2 118//2 117//2
f 115//1 119//1 120//1 116//1
f 120//6 121//6 118//6 116//6
f 122//2 123//2 125//2 124//2
f 126//2 127//2 129//2 128//2
f 130//6 131//6 129//6 127//6
f 112//2 113//2 123//2 122//2
f 117//2 118//2 127//2 126//2
f 121//6 130//6 127//6 118//6
f 111//2 115//2 117//2 113//2
f 111//1 114//1 119//1 115//1
f 123//2 126//2 128//2 125//2
f 113//2 117//2 126//2 123//2
f 106//2 107//2 111//2 110//2
f 109//6 114//6 111//6 107//6
f 132//2 133//2 135//2 134//2
f 136//2 137//2 139//2 138//2
f 139//4 142//4 141//4 138//4
f 140//6 142//6 139//6 137//6
f 144//4 147//4 146//4 143//4
f 146//6 148//6 145//6 143//6
f 134//2 135//2 144//2 143//2
f 141//6 150//6 149//6 138//6
f 133//2 136//2 138//2 135//2
f 149//4 150//4 147//4 144//4
f 135//2 138//2 149//2 144//2
f 151//1 153//1 154//1 152//1
f 153//1 155//1 156//1 154//1
f 159//1 162//1 163//1 160//1
f 163//6 164//6 161//6 160//6
f 167//6 168//6 166//6 165//6
f 171//5 172//5 170//5 169//5
f 175//5 176//5 174//5 173//5
f 179//5 180//5 178//5 177//5
f 183//5 184//5 182//5 181//5
f 162//1 173//1 174//1 163//1
f 174//6 176//6 164//6 163//6
f 182//6 184//6 168//6 167//6
f 177//5 178//5 172//5 171//5
f 164//6 167//6 165//6 161//6
f 181//5 182//5 176//5 175//5
f 157//1 158//1 162//1 159//1
f 172//5 175//5 173//5 170//5
f 180//5 183//5 181//5 178//5
f 178//5 181//5 175//5 172//5
f 158//1 170//1 173//1 162//1
f 176//6 182//6 167//6 164//6
f 154//6 158//6 157//6 152//6
f 169//5 170//5 156//5 155//5
f 156//6 170//6 158//6 154//6
f 187//4 190//4 189//4 186//4
f 188//6 190//6 187//6 185//6
f 192//4 195//4 194//4 191//4
f 194//6 196//6 193//6 191//6
f 201//5 202//5 200//5 199//5
f 205//5 206//5 204//5 203//5
f 190//4 206//4 205//4 189//4
f 204//6 206//6 190//6 188//6
f 195//4 208//4 207//4 194//4
f 207//6 209//6 196//6 194//6
f 207//5 208//5 202//5 201//5
f 189//6 198//6 197//6 186//6
f 197//4 198//4 195//4 192//4
f 202//5 205//5 203//5 200//5
f 208//5 210//5 205//5 202//5
f 198//4 210//4 208//4 195//4
f 205//6 210//6 198//6 189//6
f 108//1 151//1 152//1 109//1
f 119//1 159//1 160//1 120//1
f 160//6 161//6 121//6 120//6
f 165//6 166//6 131//6 130//6
f 114//1 157//1 159//1 119//1
f 161//6 165//6 130//6 121//6
f 152//6 157//6 114//6 109//6
f 142//4 187//4 186//4 141//4
f 185//6 187//6 142//6 140//6
f 147//4 192//4 191//4 146//4
f 191//6 193//6 148//6 146//6
f 150//4 197//4 192//4 147//4
f 186//6 197//6 150//6 141//6
f 124//2 125//2 133//2 132//2
f 128//2 129//2 137//2 136//2
f 131//6 140//6 137//6 129//6
f 125//2 128//2 136//2 133//2
f 199//5 200//5 180//5 179//5
f 168//6 188//6 185//6 166//6
f 203//5 204//5 184//5 183//5
f 200//5 203//5 183//5 180//5
f 184//6 204//6 188//6 168//6
f 166//6 185//6 140//6 131//6
f 217//2 218//2 220//2 219//2
f 215//3 216//3 220//3 218//3
f 221//2 222//2 224//2 223//2
f 221//1 225//1 226//1 222//1
f 229//2 230//2 232//2 231//2
f 227//3 228//3 232//3 230//3
f 233//2 234//2 236//2 235//2
f 211//3 212//3 224//3 222//3
f 213//3 214//3 236//3 234//3
f 219//2 220//2 230//2 229//2
f 216//3 227//3 230//3 220//3
f 223//2 224//2 234//2 233//2
f 215//2 221//2 223//2 216//2
f 215//1 218//1 225//1 221//1
f 227//2 233//2 235//2 228//2
f 216//2 223//2 233//2 227//2
f 212//3 213//3 234//3 224//3
f 242//4 244//4 243//4 241//4
f 241//4 243//4 240//4 238//4
f 245//1 248//1 249//1 246//1
f 245//3 247//3 250//3 248//3
f 251//1 253//1 254//1 252//1
f 255//3 256//3 258//3 257//3
f 259//1 262//1 263//1 260//1
f 259//3 261//3 264//3 262//3
f 265//1 267//1 268//1 266//1
f 269//3 270//3 272//3 271//3
f 248//1 259//1 260//1 249//1
f 248//3 250//3 261//3 259//3
f 253//1 265//1 266//1 254//1
f 257//3 258//3 270//3 269//3
f 247//3 255//3 257//3 250//3
f 261//3 269//3 271//3 264//3
f 246//1 249//1 253//1 251//1
f 260//1 263//1 267//1 265//1
f 249//1 260//1 265//1 253//1
f 250//3 257//3 269//3 261//3
f 274//4 276//4 275//4 273//4
f 278//4 280//4 279//4 277//4
f 282//4 284//4 283//4 281//4
f 286//4 288//4 287//4 285//4
f 276//4 282//4 281//4 275//4
f 280//4 286//4 285//4 279//4
f 277//4 279//4 276//4 274//4
f 285//4 287//4 284//4 282//4
f 279//4 285//4 282//4 276//4
f 217//1 245//1 246//1 218//1
f 217//3 219//3 247//3 245//3
f 225//1 251//1 252//1 226//1
f 229//3 231//3 256//3 255//3
f 218//1 246//1 251//1 225//1
f 219//3 229//3 255//3 247//3
f 240//4 274//4 273//4 239//4
f 244//4 278//4 277//4 243//4
f 243//4 277//4 274//4 240//4
f 231//2 232//2 240//2 239//2
f 228//3 238//3 240//3 232//3
f 235//2 236//2 242//2 241//2
f 228//2 235//2 241//2 238//2
f 214//3 237//3 242//3 236//3
f 256//3 273//3 275//3 258//3
f 270//3 281//3 283//3 272//3
f 258//3 275//3 281//3 270//3
f 231//3 239//3 273//3 256//3
f 291//5 292//5 290//5 289//5
f 290//3 292//3 294//3 293//3
f 299//5 300//5 298//5 297//5
f 295//1 297//1 298//1 296//1
f 303//5 304//5 302//5 301//5
f 302//3 304//3 306//3 305//3
f 309//5 310//5 308//5 307//5
f 301//5 302//5 292//5 291//5
f 292//3 302//3 305//3 294//3
f 307//5 308//5 300//5 299//5
f 294//5 299//5 297//5 293//5
f 290//1 293//1 297//1 295//1
f 306//5 309//5 307//5 305//5
f 305//5 307//5 299//5 294//5
f 315//4 317//4 316//4 314//4
f 314//4 316//4 313//4 312//4
f 311//5 312//5 304//5 303//5
f 304//3 312//3 313//3 306//3
f 316//5 317//5 310//5 309//5
f 313//5 316//5 309//5 306//5
f 262//1 289//1 290//1 263//1
f 262//3 264//3 291//3 289//3
f 267//1 295//1 296//1 268//1
f 271//3 272//3 303//3 301//3
f 263//1 290//1 295//1 267//1
f 264//3 271//3 301//3 291//3
f 284//4 312//4 311//4 283//4
f 288//4 315//4 314//4 287//4
f 287//4 314//4 312//4 284//4
f 272//3 283//3 311//3 303//3
f 322//2 323//2 325//2 324//2
f 322//1 326//1 327//1 323//1
f 330//2 331//2 333//2 332//2
f 330//6 332//6 329//6 328//6
f 334//2 335//2 337//2 336//2
f 340//2 341//2 343//2 342//2
f 340//6 342//6 339//6 338//6
f 322//6 324//6 319//6 318//6
f 334//6 336//6 321//6 320//6
f 324//2 325//2 335//2 334//2
f 332//2 333//2 341//2 340//2
f 332//6 340//6 338//6 329//6
f 323//2 328//2 329//2 325//2
f 323//1 327//1 330//1 328//1
f 335//2 338//2 339//2 337//2
f 325//2 329//2 338//2 335//2
f 324//6 334//6 320//6 319//6
f 346//4 348//4 347//4 345//4
f 349//4 350//4 348//4 346//4
f 352//1 354//1 355//1 353//1
f 356//1 359//1 360//1 357//1
f 360//6 361//6 358//6 357//6
f 364//6 365//6 363//6 362//6
f 366//1 368//1 369//1 367//1
f 370//1 373//1 374//1 371//1
f 374//6 375//6 372//6 371//6
f 378//6 379//6 377//6 376//6
f 354//1 366//1 367//1 355//1
f 359//1 370//1 371//1 360//1
f 371//6 372//6 361//6 360//6
f 376//6 377//6 365//6 364//6
f 361//6 364//6 362//6 358//6
f 375//6 378//6 376//6 372//6
f 353//1 355//1 359//1 356//1
f 367//1 369//1 373//1 370//1
f 355//1 367//1 370//1 359//1
f 372//6 376//6 364//6 361//6
f 381//4 383//4 382//4 380//4
f 385//4 387//4 386//4 384//4
f 389//4 391//4 390//4 388//4
f 393//4 395//4 394//4 392//4
f 383//4 389//4 388//4 382//4
f 387//4 393//4 392//4 386//4
f 384//4 386//4 383//4 381//4
f 392//4 394//4 391//4 389//4
f 386//4 392//4 389//4 383//4
f 326//1 352//1 353//1 327//1
f 330//1 356//1 357//1 331//1
f 357//6 358//6 333//6 331//6
f 362//6 363//6 343//6 341//6
f 327//1 353//1 356//1 330//1
f 358//6 362//6 341//6 333//6
f 348//4 381//4 380//4 347//4
f 351//4 385//4 384//4 350//4
f 350//4 384//4 381//4 348//4
f 336//2 337//2 346//2 345//2
f 342//2 343//2 351//2 350//2
f 342//6 350//6 349//6 339//6
f 337//2 339//2 349//2 346//2
f 336//6 345//6 344//6 321//6
f 365//6 387//6 385//6 363//6
f 379//6 395//6 393//6 377//6
f 377//6 393//6 387//6 365//6
f 363//6 385//6 351//6 343//6
f 400//5 401//5 399//5 398//5
f 396//1 398//1 399//1 397//1
f 404//5 405//5 403//5 402//5
f 406//6 407//6 404//6 402//6
f 410//5 411//5 409//5 408//5
f 414//5 415//5 413//5 412//5
f 416//6 417//6 414//6 412//6
f 408//5 409//5 401//5 400//5
f 412//5 413//5 405//5 404//5
f 407//6 416//6 412//6 404//6
f 401//5 407//5 406//5 399//5
f 397//1 399//1 406//1 402//1
f 411//5 417//5 416//5 409//5
f 409//5 416//5 407//5 401//5
f 419//4 421//4 420//4 418//4
f 422//4 424//4 421//4 419//4
f 420//5 421//5 411//5 410//5
f 422//5 423//5 415//5 414//5
f 417//6 424//6 422//6 414//6
f 421//5 424//5 417//5 411//5
f 368//1 396//1 397//1 369//1
f 373//1 402//1 403//1 374//1
f 403//6 405//6 375//6 374//6
f 413//6 415//6 379//6 378//6
f 369//1 397//1 402//1 373//1
f 405//6 413//6 378//6 375//6
f 391//4 419//4 418//4 390//4
f 395//4 423//4 422//4 394//4
f 394//4 422//4 419//4 391//4
f 415//6 423//6 395//6 379//6
f 2//1 4//1 108//1 106//1
f 13//2 110//2 112//2 15//2
f 24//2 122//2 124//2 26//2
f 15//2 112//2 122//2 24//2
f 2//2 106//2 110//2 13//2
f 35//2 132//2 134//2 37//2
f 41//2 143//2 145//2 42//2
f 145//4 148//4 45//4 42//4
f 37//2 134//2 143//2 41//2
f 47//1 49//1 153//1 151//1
f 49//1 51//1 155//1 153//1
f 71//5 171//5 169//5 69//5
f 79//5 179//5 177//5 77//5
f 77//5 177//5 171//5 71//5
f 69//5 169//5 155//5 51//5
f 193//4 196//4 93//4 90//4
f 101//5 201//5 199//5 99//5
f 105//5 209//5 207//5 104//5
f 104//5 207//5 201//5 101//5
f 196//4 209//4 105//4 93//4
f 26//2 124//2 132//2 35//2
f 99//5 199//5 179//5 79//5
f 4//1 47//1 151//1 108//1
f 148//4 193//4 90//4 45//4
f 211//2 318//2 319//2 212//2
f 213//2 320//2 321//2 214//2
f 222//1 226//1 326//1 322//1
f 212//2 319//2 320//2 213//2
f 211//1 222//1 322//1 318//1
f 345//4 347//4 244//4 242//4
f 344//4 345//4 242//4 237//4
f 252//1 254//1 354//1 352//1
f 266//1 268//1 368//1 366//1
f 254//1 266//1 366//1 354//1
f 380//4 382//4 280//4 278//4
f 388//4 390//4 288//4 286//4
f 382//4 388//4 286//4 280//4
f 214//2 321//2 344//2 237//2
f 226//1 252//1 352//1 326//1
f 347//4 380//4 278//4 244//4
f 300//5 400//5 398//5 298//5
f 296//1 298//1 398//1 396//1
f 310//5 410//5 408//5 308//5
f 308//5 408//5 400//5 300//5
f 418//4 420//4 317//4 315//4
f 317//5 420//5 410//5 310//5
f 268//1 296//1 396//1 368//1
f 390//4 418//4 315//4 288//4
