# This file is brought to you by Roblox Corporation
# Generated by Roblox Studio

mtllib fireee.mtl

g Cube0011

v -6.71527 0.603011 -45.5766 
v -6.96485 0.550608 -45.3249 
v -6.96049 0.531653 -45.3408 
v -6.93296 0.567424 -45.3575 
v -6.93094 0.558673 -45.3649 
v -6.95021 0.486987 -45.3782 
v -6.92066 0.514007 -45.4023 
v -6.75109 0.546525 -45.3549 
v -6.79606 0.391549 -45.3724 
v -6.9001 0.424676 -45.4773 
v -6.91037 0.469292 -45.4399 
v -6.93756 0.432068 -45.4243 
v -6.92964 0.397656 -45.4532 
v -6.75063 0.743422 -45.442 
v -6.74236 0.683447 -45.4618 
v -6.74035 0.698756 -45.4795 
v -6.75265 0.728113 -45.4243 
v -6.73208 0.638781 -45.4993 
v -6.73007 0.65409 -45.517 
v -6.74724 0.646377 -45.419 
v -6.75752 0.691042 -45.3815 
v -6.72179 0.594066 -45.5368 
v -6.71691 0.631136 -45.5797 
v -6.71527 0.603011 -45.5766 
v -6.72015 0.565941 -45.5338 
v -6.72667 0.556996 -45.494 
v -6.7164 0.51238 -45.5314 
v -6.72128 0.475309 -45.4886 
v -6.73696 0.601711 -45.4565 
v -6.73155 0.519925 -45.4511 
v -6.73216 0.370359 -45.3835 
v -6.74835 0.440686 -45.3245 
v -6.74672 0.52757 -45.3708 
v -6.74184 0.564641 -45.4136 
v -6.75109 0.546525 -45.3549 
v -6.75212 0.609306 -45.3761 
v -6.76137 0.591191 -45.3174 
v -6.7624 0.653972 -45.3387 
v -6.77489 0.626615 -45.5902 
v -6.71691 0.631136 -45.5797 
v -6.71527 0.603011 -45.5766 
v -6.78805 0.649569 -45.5275 
v -6.73007 0.65409 -45.517 
v -6.83287 0.622094 -45.6007 
v -6.83123 0.593969 -45.5977 
v -6.84519 0.6514 -45.5454 
v -6.80036 0.678825 -45.4722 
v -6.74035 0.698756 -45.4795 
v -6.80829 0.713287 -45.4433 
v -6.75063 0.743422 -45.442 
v -6.86627 0.708766 -45.4538 
v -6.85834 0.674304 -45.4827 
v -6.92138 0.726007 -45.4895 
v -6.91345 0.691545 -45.5184 
v -6.97143 0.687024 -45.5289 
v -6.90114 0.662289 -45.5737 
v -6.95912 0.657768 -45.5842 
v -6.95038 0.60129 -45.6081 
v -6.8924 0.605811 -45.5976 
v -6.88213 0.561195 -45.6351 
v -6.98171 0.73169 -45.4914 
v -6.89522 0.461746 -45.5201 
v -6.83724 0.466267 -45.5096 
v -6.77926 0.470788 -45.4991 
v -6.94011 0.556674 -45.6456 
v -6.7164 0.51238 -45.5314 
v -6.83611 0.556899 -45.5548 
v -6.84099 0.519828 -45.512 
v -6.77438 0.507858 -45.5419 
v -6.72015 0.565941 -45.5338 
v -6.77813 0.56142 -45.5443 
v -6.98171 0.73169 -45.4914 
v -6.96485 0.550608 -45.3249 
v -6.99433 0.635888 -45.3807 
v -6.96049 0.531653 -45.3408 
v -6.75109 0.546525 -45.3549 
v -6.86268 0.518528 -45.3918 
v -6.8047 0.523049 -45.3813 
v -6.74672 0.52757 -45.3708 
v -6.80633 0.436165 -45.335 
v -6.74835 0.440686 -45.3245 
v -6.79606 0.391549 -45.3724 
v -6.85239 0.473813 -45.4293 
v -6.84812 0.361317 -45.4045 
v -6.9001 0.424676 -45.4773 
v -6.75063 0.743422 -45.442 
v -6.75265 0.728113 -45.4243 
v -6.80828 0.713388 -45.4434 
v -6.75752 0.691042 -45.3815 
v -6.81316 0.676317 -45.4006 
v -6.86626 0.708867 -45.4539 
v -6.76137 0.591191 -45.3174 
v -6.7624 0.653972 -45.3387 
v -6.81804 0.639247 -45.3577 
v -6.817 0.576466 -45.3365 
v -6.87114 0.671796 -45.4111 
v -6.87602 0.634726 -45.3683 
v -6.87498 0.571945 -45.347 
v -6.92424 0.704346 -45.4645 
v -6.92138 0.726007 -45.4895 
v -6.92912 0.667275 -45.4216 
v -6.934 0.630205 -45.3788 
v -6.93296 0.567424 -45.3575 
v -6.98743 0.688267 -45.4413 
v -6.98944 0.672958 -45.4236 
v -6.83287 0.622094 -45.6007 
v -6.83123 0.593969 -45.5977 
v -6.97143 0.687024 -45.5289 
v -6.90114 0.662289 -45.5737 
v -6.95912 0.657768 -45.5842 
v -6.964 0.620697 -45.5414 
v -6.95038 0.60129 -45.6081 
v -6.97428 0.665363 -45.5039 
v -6.98171 0.73169 -45.4914 
v -6.97916 0.628293 -45.4611 
v -6.98404 0.591222 -45.4182 
v -6.96485 0.550608 -45.3249 
v -6.99433 0.635888 -45.3807 
v -6.96049 0.531653 -45.3408 
v -6.96888 0.583627 -45.4985 
v -6.97376 0.546556 -45.4557 
v -6.95021 0.486987 -45.3782 
v -6.86268 0.518528 -45.3918 
v -6.80633 0.436165 -45.335 
v -6.79606 0.391549 -45.3724 
v -6.85239 0.473813 -45.4293 
v -6.84812 0.361317 -45.4045 
v -6.9001 0.424676 -45.4773 
v -6.93756 0.432068 -45.4243 
v -6.92964 0.397656 -45.4532 
v -6.93503 0.479342 -45.4586 
v -6.92476 0.434726 -45.496 
v -6.95859 0.538912 -45.536 
v -6.94832 0.494295 -45.5735 
v -6.95371 0.575982 -45.5789 
v -6.94344 0.531366 -45.6163 
v -6.94011 0.556674 -45.6456 
v -6.98743 0.688267 -45.4413 
v -6.98944 0.672958 -45.4236 
v -6.96049 0.531653 -45.3408 
v -6.93296 0.567424 -45.3575 
v -6.93094 0.558673 -45.3649 
v -6.87498 0.571945 -45.347 
v -6.87296 0.563194 -45.3543 
v -6.817 0.576466 -45.3365 
v -6.92066 0.514007 -45.4023 
v -6.81498 0.567715 -45.3438 
v -6.76137 0.591191 -45.3174 
v -6.75109 0.546525 -45.3549 
v -6.86268 0.518528 -45.3918 
v -6.8047 0.523049 -45.3813 
v -6.74672 0.52757 -45.3708 
v -6.80633 0.436165 -45.335 
v -6.74835 0.440686 -45.3245 
v -6.79606 0.391549 -45.3724 
v -6.73216 0.370359 -45.3835 
v -6.85239 0.473813 -45.4293 
v -6.9001 0.424676 -45.4773 
v -6.91037 0.469292 -45.4399 
v -6.77489 0.626615 -45.5902 
v -6.71691 0.631136 -45.5797 
v -6.71527 0.603011 -45.5766 
v -6.77325 0.59849 -45.5872 
v -6.83287 0.622094 -45.6007 
v -6.83123 0.593969 -45.5977 
v -6.8924 0.605811 -45.5976 
v -6.79606 0.391549 -45.3724 
v -6.9001 0.424676 -45.4773 
v -6.92964 0.397656 -45.4532 
v -6.92476 0.434726 -45.496 
v -6.9001 0.424676 -45.4773 
v -6.94832 0.494295 -45.5735 
v -6.89522 0.461746 -45.5201 
v -6.83724 0.466267 -45.5096 
v -6.84812 0.361317 -45.4045 
v -6.77926 0.470788 -45.4991 
v -6.79606 0.391549 -45.3724 
v -6.94344 0.531366 -45.6163 
v -6.94011 0.556674 -45.6456 
v -6.72128 0.475309 -45.4886 
v -6.73216 0.370359 -45.3835 
v -6.7164 0.51238 -45.5314 
v -6.88213 0.561195 -45.6351 
v -6.88546 0.535887 -45.6058 
v -6.83123 0.593969 -45.5977 
v -6.89034 0.498816 -45.563 
v -6.83611 0.556899 -45.5548 
v -6.77325 0.59849 -45.5872 
v -6.84099 0.519828 -45.512 
v -6.77438 0.507858 -45.5419 
v -6.72015 0.565941 -45.5338 
v -6.77813 0.56142 -45.5443 
v -6.71527 0.603011 -45.5766 
v -6.80829 0.713287 -45.4433 
v -6.86627 0.708766 -45.4538 
v -6.80828 0.713388 -45.4434 
v -6.86626 0.708867 -45.4539 

vn 0.771654 -0.307087 -0.559055 
vn -0.299213 -0.220472 0.929134 
vn -0.212598 -0.653543 0.724409 
vn 0.251969 -0.015748 0.968504 
vn 0.370079 -0.543307 0.748031 
vn -0.212598 -0.732283 0.645669 
vn 0.370079 -0.543307 0.748031 
vn 0.622047 -0.417323 0.669291 
vn -0.314961 -0.905512 0.275591 
vn 0.188976 -0.952756 -0.244094 
vn 0.251969 -0.448819 0.858268 
vn -0.283465 -0.732283 0.614173 
vn -0.212598 -0.944882 0.23622 
vn 0.354331 0.929134 -0.0629921 
vn 0.984252 0.0787402 0.181102 
vn 0.629921 0.629921 -0.448819 
vn 0.472441 0.637795 0.606299 
vn 0.984252 0.0787402 0.181102 
vn 0.724409 0.653543 -0.204724 
vn 0.984252 0.0787402 0.181102 
vn 0.472441 0.637795 0.606299 
vn 0.984252 0.0787402 0.181102 
vn 0.653543 0.480315 -0.582677 
vn 0.771654 -0.307087 -0.559055 
vn 0.897638 -0.19685 -0.393701 
vn 0.984252 0.0787402 0.181102 
vn 0.76378 -0.283465 -0.574803 
vn 0.787402 -0.519685 -0.338583 
vn 0.984252 0.0787402 0.181102 
vn 0.984252 0.0787402 0.181102 
vn 0.559055 -0.826772 0.0629921 
vn 0.440945 -0.0551181 0.897638 
vn 0.748031 0 0.661417 
vn 0.984252 0.0787402 0.181102 
vn 0.622047 -0.417323 0.669291 
vn 0.984252 0.0787402 0.181102 
vn 0.401575 -0.0787402 0.913386 
vn 0.401575 0.503937 0.76378 
vn 0.133858 0.527559 -0.84252 
vn 0.653543 0.480315 -0.582677 
vn 0.771654 -0.307087 -0.559055 
vn 0 0.897638 -0.448819 
vn 0.724409 0.653543 -0.204724 
vn 0.133858 0.543307 -0.826772 
vn 0.330709 -0.251969 -0.905512 
vn 0.181102 0.874016 -0.448819 
vn -0.0629921 0.748031 -0.661417 
vn 0.629921 0.629921 -0.448819 
vn -0.165354 0.511811 -0.84252 
vn 0.354331 0.929134 -0.0629921 
vn 0.354331 0.511811 -0.779528 
vn 0.283465 0.795276 -0.535433 
vn 0.220472 0.96063 -0.149606 
vn 0.275591 0.795276 -0.543307 
vn -0.692913 0.464567 -0.551181 
vn 0.173228 0.748031 -0.637795 
vn -0.551181 0.488189 -0.677165 
vn -0.637795 0.307087 -0.700787 
vn 0.110236 0.551181 -0.826772 
vn 0.377953 -0.141732 -0.913386 
vn -0.559055 0.818898 -0.125984 
vn 0.259843 -0.669291 -0.692913 
vn 0.244094 -0.606299 -0.755906 
vn 0.0866142 -0.708661 -0.700787 
vn -0.409449 -0.0866142 -0.905512 
vn 0.76378 -0.283465 -0.574803 
vn 0.385827 -0.653543 -0.653543 
vn 0.244094 -0.511811 -0.826772 
vn 0.023622 -0.440945 -0.897638 
vn 0.897638 -0.19685 -0.393701 
vn 0.0944882 -0.527559 -0.84252 
vn -0.559055 0.818898 -0.125984 
vn -0.299213 -0.220472 0.929134 
vn -0.724409 0.393701 0.566929 
vn -0.212598 -0.653543 0.724409 
vn 0.622047 -0.417323 0.669291 
vn -0.259843 -0.535433 0.80315 
vn -0.314961 -0.259843 0.913386 
vn 0.748031 0 0.661417 
vn -0.464567 -0.110236 0.88189 
vn 0.440945 -0.0551181 0.897638 
vn -0.314961 -0.905512 0.275591 
vn -0.566929 -0.267717 0.779528 
vn -0.393701 -0.913386 0.0866142 
vn 0.188976 -0.952756 -0.244094 
vn 0.354331 0.929134 -0.0629921 
vn 0.472441 0.637795 0.606299 
vn -0.385827 0.716535 0.574803 
vn 0.472441 0.637795 0.606299 
vn -0.283465 0.740157 0.606299 
vn -0.173228 0.755906 0.629921 
vn 0.401575 -0.0787402 0.913386 
vn 0.401575 0.503937 0.76378 
vn -0.299213 0.535433 0.787402 
vn -0.204724 -0.23622 0.952756 
vn -0.173228 0.755906 0.629921 
vn -0.188976 0.551181 0.811024 
vn -0.15748 -0.204724 0.968504 
vn -0.0629921 0.755906 0.645669 
vn 0.220472 0.96063 -0.149606 
vn -0.0629921 0.755906 0.645669 
vn -0.023622 0.598425 0.80315 
vn 0.251969 -0.015748 0.968504 
vn -0.748031 0.543307 0.385827 
vn -0.748031 0.543307 0.385827 
vn 0.133858 0.543307 -0.826772 
vn 0.330709 -0.251969 -0.905512 
vn -0.692913 0.464567 -0.551181 
vn 0.173228 0.748031 -0.637795 
vn -0.551181 0.488189 -0.677165 
vn -0.984252 -0.0787402 -0.181102 
vn -0.637795 0.307087 -0.700787 
vn -0.984252 -0.0787402 -0.181102 
vn -0.559055 0.818898 -0.125984 
vn -0.984252 -0.0787402 -0.181102 
vn -0.984252 -0.181102 -0.0551181 
vn -0.299213 -0.220472 0.929134 
vn -0.724409 0.393701 0.566929 
vn -0.212598 -0.653543 0.724409 
vn -0.976378 -0.149606 -0.173228 
vn -0.96063 -0.267717 -0.0944882 
vn -0.212598 -0.732283 0.645669 
vn -0.259843 -0.535433 0.80315 
vn -0.464567 -0.110236 0.88189 
vn -0.314961 -0.905512 0.275591 
vn -0.566929 -0.267717 0.779528 
vn -0.393701 -0.913386 0.0866142 
vn 0.188976 -0.952756 -0.244094 
vn -0.283465 -0.732283 0.614173 
vn -0.212598 -0.944882 0.23622 
vn -0.96063 -0.267717 -0.0944882 
vn -0.527559 -0.685039 -0.503937 
vn -0.976378 -0.19685 -0.110236 
vn -0.606299 -0.645669 -0.464567 
vn -0.984252 -0.0787402 -0.181102 
vn -0.574803 -0.590551 -0.574803 
vn -0.409449 -0.0866142 -0.905512 
vn -0.748031 0.543307 0.385827 
vn -0.748031 0.543307 0.385827 
vn -0.212598 -0.653543 0.724409 
vn 0.251969 -0.015748 0.968504 
vn 0.370079 -0.543307 0.748031 
vn -0.15748 -0.204724 0.968504 
vn -0.0866142 -0.653543 0.755906 
vn -0.204724 -0.23622 0.952756 
vn 0.370079 -0.543307 0.748031 
vn -0.0866142 -0.653543 0.755906 
vn 0.401575 -0.0787402 0.913386 
vn 0.622047 -0.417323 0.669291 
vn -0.259843 -0.535433 0.80315 
vn -0.314961 -0.259843 0.913386 
vn 0.748031 0 0.661417 
vn -0.464567 -0.110236 0.88189 
vn 0.440945 -0.0551181 0.897638 
vn -0.314961 -0.905512 0.275591 
vn 0.559055 -0.826772 0.0629921 
vn -0.566929 -0.267717 0.779528 
vn 0.188976 -0.952756 -0.244094 
vn 0.251969 -0.448819 0.858268 
vn 0.133858 0.527559 -0.84252 
vn 0.653543 0.480315 -0.582677 
vn 0.771654 -0.307087 -0.559055 
vn 0.19685 -0.456693 -0.866142 
vn 0.133858 0.543307 -0.826772 
vn 0.330709 -0.251969 -0.905512 
vn 0.110236 0.551181 -0.826772 
vn -0.314961 -0.905512 0.275591 
vn 0.188976 -0.952756 -0.244094 
vn -0.212598 -0.944882 0.23622 
vn -0.527559 -0.685039 -0.503937 
vn 0.188976 -0.952756 -0.244094 
vn -0.606299 -0.645669 -0.464567 
vn 0.259843 -0.669291 -0.692913 
vn 0.244094 -0.606299 -0.755906 
vn -0.393701 -0.913386 0.0866142 
vn 0.0866142 -0.708661 -0.700787 
vn -0.314961 -0.905512 0.275591 
vn -0.574803 -0.590551 -0.574803 
vn -0.409449 -0.0866142 -0.905512 
vn 0.787402 -0.519685 -0.338583 
vn 0.559055 -0.826772 0.0629921 
vn 0.76378 -0.283465 -0.574803 
vn 0.377953 -0.141732 -0.913386 
vn 0.448819 -0.700787 -0.551181 
vn 0.330709 -0.251969 -0.905512 
vn 0.417323 -0.661417 -0.629921 
vn 0.385827 -0.653543 -0.653543 
vn 0.19685 -0.456693 -0.866142 
vn 0.244094 -0.511811 -0.826772 
vn 0.023622 -0.440945 -0.897638 
vn 0.897638 -0.19685 -0.393701 
vn 0.0944882 -0.527559 -0.84252 
vn 0.771654 -0.307087 -0.559055 
vn -0.165354 0.511811 -0.84252 
vn 0.354331 0.511811 -0.779528 
vn -0.385827 0.716535 0.574803 
vn -0.173228 0.755906 0.629921 

vt 0.0389982 1.36314 
vt 0.0185994 1.33248 
vt 0.0217401 1.33248 
vt 0.0202902 1.33727 
vt 0.0217401 1.33727 
vt 0.0291409 1.33248 
vt 0.0291409 1.33727 
vt 0.0260002 1.33727 
vt 0.0410261 1.32581 
vt 0.0439425 1.33727 
vt 0.0365499 1.33727 
vt 0.0382407 1.33248 
vt 0.0439425 1.33248 
vt 0.0143393 1.36153 
vt 0.0217401 1.35859 
vt 0.0217401 1.36153 
vt 0.0143393 1.35859 
vt 0.0291409 1.35859 
vt 0.0291409 1.36153 
vt 0.0217401 1.35148 
vt 0.0143393 1.35148 
vt 0.0365499 1.35859 
vt 0.0365499 1.3657 
vt 0.0389982 1.36314 
vt 0.0389982 1.35603 
vt 0.0365499 1.35148 
vt 0.0439425 1.35148 
vt 0.0439425 1.34438 
vt 0.0291409 1.35148 
vt 0.0365499 1.34438 
vt 0.0452862 1.32581 
vt 0.0336335 1.32581 
vt 0.0291409 1.33727 
vt 0.0291409 1.34438 
vt 0.0260002 1.33727 
vt 0.0217401 1.34438 
vt 0.0185994 1.33727 
vt 0.0143393 1.34438 
vt 0.0224254 1.33902 
vt 0.0150379 1.33902 
vt 0.0150379 1.33657 
vt 0.0224254 1.34643 
vt 0.0150379 1.34643 
vt 0.0298128 1.33902 
vt 0.0298128 1.33657 
vt 0.0298128 1.34643 
vt 0.0224254 1.35383 
vt 0.0150379 1.35383 
vt 0.0224254 1.35954 
vt 0.0150379 1.36123 
vt 0.0298128 1.35954 
vt 0.0298128 1.35383 
vt 0.0372002 1.35954 
vt 0.0372002 1.35383 
vt 0.0445876 1.35383 
vt 0.0372002 1.34643 
vt 0.0445876 1.34643 
vt 0.0445876 1.33902 
vt 0.0372002 1.33902 
vt 0.0372002 1.33162 
vt 0.0445876 1.36123 
vt 0.0372002 1.33162 
vt 0.0298128 1.33162 
vt 0.0224254 1.33162 
vt 0.0445876 1.33162 
vt 0.0150379 1.33162 
vt 0.0298128 1.33657 
vt 0.0298128 1.33657 
vt 0.0224254 1.33162 
vt 0.0150379 1.33657 
vt 0.0224254 1.33657 
vt 0.0150379 1.36275 
vt 0.0190801 1.33248 
vt 0.0150379 1.34438 
vt 0.0190801 1.33248 
vt 0.0445876 1.33727 
vt 0.0298128 1.33727 
vt 0.0372002 1.33727 
vt 0.0445876 1.33727 
vt 0.0372002 1.32581 
vt 0.0445876 1.32581 
vt 0.0372002 1.32581 
vt 0.0298128 1.33727 
vt 0.0298128 1.32581 
vt 0.0224254 1.33727 
vt 0.0445876 1.36153 
vt 0.0445876 1.35859 
vt 0.0372002 1.35859 
vt 0.0445876 1.35148 
vt 0.0372002 1.35148 
vt 0.0298128 1.35859 
vt 0.0445876 1.33727 
vt 0.0445876 1.34438 
vt 0.0372002 1.34438 
vt 0.0372002 1.33727 
vt 0.0298128 1.35148 
vt 0.0298128 1.34438 
vt 0.0298128 1.33727 
vt 0.0224254 1.35859 
vt 0.0224254 1.36275 
vt 0.0224254 1.35148 
vt 0.0224254 1.34438 
vt 0.0224254 1.33727 
vt 0.0150379 1.35442 
vt 0.0150379 1.35148 
vt 0.0230756 1.3657 
vt 0.0206273 1.36314 
vt 0.0378854 1.36275 
vt 0.0304846 1.3657 
vt 0.0304846 1.3657 
vt 0.0304846 1.35859 
vt 0.0230756 1.36345 
vt 0.0378854 1.35859 
vt 0.0452862 1.36275 
vt 0.0378854 1.35148 
vt 0.0378854 1.34438 
vt 0.0410261 1.33248 
vt 0.0452862 1.34438 
vt 0.0378854 1.33248 
vt 0.0304846 1.35148 
vt 0.0304846 1.34438 
vt 0.0304846 1.33248 
vt 0.0304846 1.33727 
vt 0.025992 1.32581 
vt 0.0185994 1.32581 
vt 0.0230756 1.33727 
vt 0.0143393 1.32581 
vt 0.015683 1.33727 
vt 0.0213849 1.33248 
vt 0.015683 1.33248 
vt 0.0230756 1.33959 
vt 0.015683 1.33959 
vt 0.0230756 1.35148 
vt 0.015683 1.35148 
vt 0.0230756 1.35859 
vt 0.015683 1.35859 
vt 0.015683 1.36345 
vt 0.0452862 1.35442 
vt 0.0452862 1.35148 
vt 0.0190801 1.35383 
vt 0.0224254 1.35528 
vt 0.0224254 1.35383 
vt 0.0298128 1.35528 
vt 0.0298128 1.35383 
vt 0.0372002 1.35528 
vt 0.0224254 1.34643 
vt 0.0372002 1.35383 
vt 0.0445876 1.35697 
vt 0.0445876 1.34957 
vt 0.0298128 1.34643 
vt 0.0372002 1.34643 
vt 0.0445876 1.34643 
vt 0.0372002 1.34193 
vt 0.0445876 1.34193 
vt 0.0372002 1.33454 
vt 0.0445876 1.33028 
vt 0.0298128 1.33902 
vt 0.0224254 1.33162 
vt 0.0224254 1.33902 
vt 0.0224254 1.3657 
vt 0.0150379 1.3657 
vt 0.0150379 1.36314 
vt 0.0224254 1.36314 
vt 0.0298128 1.3657 
vt 0.0298128 1.36314 
vt 0.0372002 1.36345 
vt 0.0224254 1.32581 
vt 0.0372002 1.33727 
vt 0.0405454 1.33248 
vt 0.0405454 1.33959 
vt 0.0372002 1.33727 
vt 0.0445876 1.35148 
vt 0.0372002 1.34438 
vt 0.0298128 1.34438 
vt 0.0298128 1.32581 
vt 0.0224254 1.34438 
vt 0.0224254 1.32581 
vt 0.0445876 1.35859 
vt 0.0445876 1.36345 
vt 0.0150379 1.34438 
vt 0.0150379 1.32581 
vt 0.0150379 1.35148 
vt 0.0372002 1.36345 
vt 0.0372002 1.35859 
vt 0.0298128 1.36314 
vt 0.0372002 1.35148 
vt 0.0298128 1.35603 
vt 0.0224254 1.36314 
vt 0.0298128 1.34893 
vt 0.0224254 1.35148 
vt 0.0150379 1.35603 
vt 0.0224254 1.35603 
vt 0.0150379 1.36314 
vt 0.0224254 1.35857 
vt 0.0298128 1.35857 
vt 0.0224254 1.35859 
vt 0.0298128 1.35859 

usemtl Cube0011Mtl

f 4/4/4 2/2/2 3/3/3 
f 3/3/3 5/5/5 4/4/4 
f 5/5/5 3/3/3 6/6/6 
f 7/7/7 5/5/5 6/6/6 
f 6/6/6 11/11/11 7/7/7 
f 12/12/12 10/10/10 11/11/11 
f 11/11/11 6/6/6 12/12/12 
f 10/10/10 12/12/12 13/13/13 
f 14/14/14 15/15/15 16/16/16 
f 15/15/15 14/14/14 17/17/17 
f 18/18/18 16/16/16 15/15/15 
f 16/16/16 18/18/18 19/19/19 
f 17/17/17 20/20/20 15/15/15 
f 20/20/20 17/17/17 21/21/21 
f 22/22/22 19/19/19 18/18/18 
f 19/19/19 22/22/22 23/23/23 
f 22/22/22 24/24/24 23/23/23 
f 24/24/24 22/22/22 25/25/25 
f 22/22/22 26/26/26 25/25/25 
f 18/18/18 26/26/26 22/22/22 
f 27/27/27 25/25/25 26/26/26 
f 26/26/26 28/28/28 27/27/27 
f 26/26/26 18/18/18 29/29/29 
f 15/15/15 29/29/29 18/18/18 
f 29/29/29 15/15/15 20/20/20 
f 28/28/28 26/26/26 30/30/30 
f 29/29/29 30/30/30 26/26/26 
f 30/30/30 31/31/31 28/28/28 
f 31/31/31 30/30/30 32/32/32 
f 30/30/30 33/33/33 32/32/32 
f 30/30/30 29/29/29 34/34/34 
f 33/33/33 30/30/30 34/34/34 
f 20/20/20 34/34/34 29/29/29 
f 34/34/34 35/35/35 33/33/33 
f 34/34/34 20/20/20 36/36/36 
f 35/35/35 34/34/34 36/36/36 
f 21/21/21 36/36/36 20/20/20 
f 36/36/36 37/37/37 35/35/35 
f 36/36/36 21/21/21 38/38/38 
f 37/37/37 36/36/36 38/38/38 
f 42/42/42 40/40/40 39/39/39 
f 43/43/43 40/40/40 42/42/42 
f 42/42/42 39/39/39 46/46/46 
f 46/46/46 39/39/39 44/44/44 
f 47/47/47 43/43/43 42/42/42 
f 48/48/48 43/43/43 47/47/47 
f 49/49/49 48/48/48 47/47/47 
f 50/50/50 48/48/48 49/49/49 
f 47/47/47 51/51/51 49/49/49 
f 47/47/47 42/42/42 52/52/52 
f 51/51/51 47/47/47 52/52/52 
f 52/52/52 42/42/42 46/46/46 
f 52/52/52 53/53/53 51/51/51 
f 53/53/53 52/52/52 54/54/54 
f 52/52/52 46/46/46 54/54/54 
f 55/55/55 53/53/53 54/54/54 
f 54/54/54 46/46/46 56/56/56 
f 54/54/54 56/56/56 55/55/55 
f 46/46/46 44/44/44 56/56/56 
f 55/55/55 56/56/56 57/57/57 
f 56/56/56 59/59/59 57/57/57 
f 57/57/57 59/59/59 58/58/58 
f 56/56/56 44/44/44 59/59/59 
f 59/59/59 60/60/60 58/58/58 
f 60/60/60 59/59/59 45/45/45 
f 53/53/53 55/55/55 61/61/61 
f 58/58/58 60/60/60 65/65/65 
f 62/62/62 68/68/68 63/63/63 
f 68/68/68 64/64/64 63/63/63 
f 69/69/69 70/70/70 66/66/66 
f 69/69/69 67/67/67 71/71/71 
f 70/70/70 69/69/69 71/71/71 
f 78/78/78 80/80/80 79/79/79 
f 77/77/77 80/80/80 78/78/78 
f 79/79/79 80/80/80 81/81/81 
f 82/82/82 83/83/83 84/84/84 
f 88/88/88 87/87/87 86/86/86 
f 88/88/88 89/89/89 87/87/87 
f 89/89/89 88/88/88 90/90/90 
f 91/91/91 90/90/90 88/88/88 
f 90/90/90 93/93/93 89/89/89 
f 94/94/94 92/92/92 93/93/93 
f 93/93/93 90/90/90 94/94/94 
f 92/92/92 94/94/94 95/95/95 
f 96/96/96 94/94/94 90/90/90 
f 90/90/90 91/91/91 96/96/96 
f 97/97/97 95/95/95 94/94/94 
f 94/94/94 96/96/96 97/97/97 
f 95/95/95 97/97/97 98/98/98 
f 99/99/99 96/96/96 91/91/91 
f 99/99/99 91/91/91 100/100/100 
f 72/72/72 99/99/99 100/100/100 
f 96/96/96 99/99/99 101/101/101 
f 101/101/101 97/97/97 96/96/96 
f 102/102/102 98/98/98 97/97/97 
f 97/97/97 101/101/101 102/102/102 
f 98/98/98 102/102/102 103/103/103 
f 104/104/104 101/101/101 99/99/99 
f 72/72/72 104/104/104 99/99/99 
f 105/105/105 102/102/102 101/101/101 
f 101/101/101 104/104/104 105/105/105 
f 74/74/74 103/103/103 102/102/102 
f 102/102/102 105/105/105 74/74/74 
f 74/74/74 73/73/73 103/103/103 
f 111/111/111 108/108/108 110/110/110 
f 112/112/112 111/111/111 110/110/110 
f 113/113/113 114/114/114 108/108/108 
f 111/111/111 115/115/115 113/113/113 
f 108/108/108 111/111/111 113/113/113 
f 116/116/116 117/117/117 118/118/118 
f 118/118/118 115/115/115 116/116/116 
f 117/117/117 116/116/116 119/119/119 
f 120/120/120 116/116/116 115/115/115 
f 115/115/115 111/111/111 120/120/120 
f 121/121/121 119/119/119 116/116/116 
f 116/116/116 120/120/120 121/121/121 
f 119/119/119 121/121/121 122/122/122 
f 126/126/126 125/125/125 124/124/124 
f 124/124/124 123/123/123 126/126/126 
f 128/128/128 127/127/127 126/126/126 
f 122/122/122 131/131/131 129/129/129 
f 131/131/131 122/122/122 121/121/121 
f 129/129/129 132/132/132 130/130/130 
f 132/132/132 129/129/129 131/131/131 
f 133/133/133 131/131/131 121/121/121 
f 131/131/131 134/134/134 132/132/132 
f 134/134/134 131/131/131 133/133/133 
f 133/133/133 121/121/121 120/120/120 
f 120/120/120 135/135/135 133/133/133 
f 135/135/135 120/120/120 111/111/111 
f 136/136/136 133/133/133 135/135/135 
f 133/133/133 136/136/136 134/134/134 
f 135/135/135 137/137/137 136/136/136 
f 137/137/137 135/135/135 112/112/112 
f 111/111/111 112/112/112 135/135/135 
f 138/138/138 115/115/115 139/139/139 
f 115/115/115 118/118/118 139/139/139 
f 114/114/114 113/113/113 138/138/138 
f 115/115/115 138/138/138 113/113/113 
f 142/142/142 143/143/143 141/141/141 
f 142/142/142 144/144/144 143/143/143 
f 144/144/144 145/145/145 143/143/143 
f 146/146/146 144/144/144 142/142/142 
f 144/144/144 147/147/147 145/145/145 
f 147/147/147 148/148/148 145/145/145 
f 147/147/147 149/149/149 148/148/148 
f 150/150/150 147/147/147 144/144/144 
f 146/146/146 150/150/150 144/144/144 
f 151/151/151 149/149/149 147/147/147 
f 150/150/150 151/151/151 147/147/147 
f 151/151/151 152/152/152 149/149/149 
f 155/155/155 154/154/154 153/153/153 
f 155/155/155 156/156/156 154/154/154 
f 159/159/159 157/157/157 150/150/150 
f 158/158/158 157/157/157 159/159/159 
f 159/159/159 150/150/150 146/146/146 
f 160/160/160 161/161/161 162/162/162 
f 160/160/160 162/162/162 163/163/163 
f 164/164/164 160/160/160 163/163/163 
f 164/164/164 163/163/163 165/165/165 
f 166/166/166 164/164/164 165/165/165 
f 170/170/170 171/171/171 169/169/169 
f 171/171/171 170/170/170 173/173/173 
f 172/172/172 173/173/173 170/170/170 
f 174/174/174 171/171/171 173/173/173 
f 174/174/174 175/175/175 171/171/171 
f 176/176/176 175/175/175 174/174/174 
f 175/175/175 176/176/176 177/177/177 
f 177/177/177 180/180/180 181/181/181 
f 180/180/180 177/177/177 176/176/176 
f 176/176/176 182/182/182 180/180/180 
f 183/183/183 178/178/178 179/179/179 
f 178/178/178 183/183/183 184/184/184 
f 184/184/184 172/172/172 178/178/178 
f 185/185/185 184/184/184 183/183/183 
f 172/172/172 184/184/184 186/186/186 
f 173/173/173 172/172/172 186/186/186 
f 184/184/184 185/185/185 187/187/187 
f 187/187/187 186/186/186 184/184/184 
f 188/188/188 187/187/187 185/185/185 
f 189/189/189 173/173/173 186/186/186 
f 186/186/186 187/187/187 189/189/189 
f 176/176/176 189/189/189 190/190/190 
f 187/187/187 190/190/190 189/189/189 
f 182/182/182 176/176/176 190/190/190 
f 187/187/187 188/188/188 192/192/192 
f 192/192/192 193/193/193 191/191/191 
f 193/193/193 192/192/192 188/188/188 
f 194/194/194 195/195/195 196/196/196 
f 197/197/197 196/196/196 195/195/195 

