o Meshpart2
usemtl Meshpart2Mtl
v -0.13714879272215796 2.030111224484113 -0.020625247746929948
v -0.1964184579679879 -1.9954141067019575 -0.09969862365537185
v -0.13714879272215796 -1.9954141067019575 -0.020625247746929948
v -0.1964184579679879 -1.9954141067019575 -0.09969862365537185
v -0.13714879272215796 2.030111224484113 -0.020625247746929948
v -0.1964184579679879 2.0806710543601077 -0.09969862365537185
v -0.1964184579679879 -1.9954141067019575 -0.09969862365537185
v -0.1964184579679879 2.0806710543601077 -0.09969862365537185
v -0.1964184579679879 2.030111224484113 -0.19744087691949214
v -0.1964184579679879 -1.9954141067019575 -0.09969862365537185
v -0.1964184579679879 2.030111224484113 -0.19744087691949214
v -0.1964184579679879 -1.9954141067019575 -0.19744087691949214
v -0.1964184579679879 2.030111224484113 -0.19744087691949214
v -0.13714879272215796 -1.9954141067019575 -0.2765143048526043
v -0.1964184579679879 -1.9954141067019575 -0.19744087691949214
v -0.13714879272215796 -1.9954141067019575 -0.2765143048526043
v -0.1964184579679879 2.030111224484113 -0.19744087691949214
v -0.13714879272215796 2.1101362953898213 -0.2765143048526043
v 0.05465753137648012 -1.9954141067019575 -0.2765143048526043
v -0.04124535224481146 2.030111224484113 -0.30671855382725094
v 0.05465753137648012 2.1101362953898213 -0.2765143048526043
v -0.04124535224481146 2.030111224484113 -0.30671855382725094
v 0.05465753137648012 -1.9954141067019575 -0.2765143048526043
v -0.04124535224481146 -1.9954141067019575 -0.30671855382725094
v -0.04124535224481146 2.030111224484113 -0.30671855382725094
v -0.04124535224481146 -1.9954141067019575 -0.30671855382725094
v -0.13714879272215796 -1.9954141067019575 -0.2765143048526043
v -0.13714879272215796 -1.9954141067019575 -0.2765143048526043
v -0.13714879272215796 2.1101362953898213 -0.2765143048526043
v -0.04124535224481146 2.030111224484113 -0.30671855382725094
v 0.11392745890654372 2.030111224484113 -0.19744087691949214
v 0.11392745890654372 -1.9954141067019575 -0.19744087691949214
v 0.05465753137648012 -1.9954141067019575 -0.2765143048526043
v 0.05465753137648012 -1.9954141067019575 -0.2765143048526043
v 0.05465753137648012 2.1101362953898213 -0.2765143048526043
v 0.11392745890654372 2.030111224484113 -0.19744087691949214
v 0.11392745890654372 2.030111224484113 -0.19744087691949214
v 0.11392745890654372 -1.9954141067019575 -0.09969862365537185
v 0.11392745890654372 -1.9954141067019575 -0.19744087691949214
v 0.11392745890654372 -1.9954141067019575 -0.09969862365537185
v 0.11392745890654372 2.030111224484113 -0.19744087691949214
v 0.11392745890654372 2.1101362953898213 -0.09969862365537185
v 0.05465753137648012 2.030111224484113 -0.020625247746929948
v 0.05465753137648012 -1.9954141067019575 -0.020625247746929948
v 0.11392745890654372 -1.9954141067019575 -0.09969862365537185
v 0.11392745890654372 -1.9954141067019575 -0.09969862365537185
v 0.11392745890654372 2.1101362953898213 -0.09969862365537185
v 0.05465753137648012 2.030111224484113 -0.020625247746929948
v 0.05465753137648012 2.030111224484113 -0.020625247746929948
v -0.04124535224481146 -1.9954141067019575 0.009578838650621951
v 0.05465753137648012 -1.9954141067019575 -0.020625247746929948
v -0.04124535224481146 -1.9954141067019575 0.009578838650621951
v 0.05465753137648012 2.030111224484113 -0.020625247746929948
v -0.04124535224481146 2.1101362953898213 0.009578838650621951
v -0.04124535224481146 -1.9954141067019575 0.009578838650621951
v -0.04124535224481146 2.1101362953898213 0.009578838650621951
v -0.13714879272215796 2.030111224484113 -0.020625247746929948
v -0.04124535224481146 -1.9954141067019575 0.009578838650621951
v -0.13714879272215796 2.030111224484113 -0.020625247746929948
v -0.13714879272215796 -1.9954141067019575 -0.020625247746929948
vt 60.00920104980469 -54.84479904174805
vt 60.003501892089844 -55.1614990234375
vt 60.00920104980469 -55.1614990234375
vt 60.003501892089844 -55.1614990234375
vt 60.00920104980469 -54.84479904174805
vt 60.003501892089844 -54.84080123901367
vt 60.003501892089844 -55.1614990234375
vt 60.003501892089844 -54.84080123901367
vt 59.996498107910156 -54.84479904174805
vt 60.003501892089844 -55.1614990234375
vt 59.996498107910156 -54.84479904174805
vt 59.996498107910156 -55.1614990234375
vt 59.996498107910156 -54.84479904174805
vt 59.99079895019531 -55.1614990234375
vt 59.996498107910156 -55.1614990234375
vt 59.99079895019531 -55.1614990234375
vt 59.996498107910156 -54.84479904174805
vt 59.99079895019531 -54.8385009765625
vt 59.99330139160156 -55.1614990234375
vt 60 -54.84479904174805
vt 59.99330139160156 -54.8385009765625
vt 60 -54.84479904174805
vt 59.99330139160156 -55.1614990234375
vt 60 -55.1614990234375
vt 60 -54.84479904174805
vt 60 -55.1614990234375
vt 60.00669860839844 -55.1614990234375
vt 60.00669860839844 -55.1614990234375
vt 60.00669860839844 -54.8385009765625
vt 60 -54.84479904174805
vt 60.003501892089844 -54.84479904174805
vt 60.003501892089844 -55.1614990234375
vt 60.00920104980469 -55.1614990234375
vt 60.00920104980469 -55.1614990234375
vt 60.00920104980469 -54.8385009765625
vt 60.003501892089844 -54.84479904174805
vt 60.003501892089844 -54.84479904174805
vt 59.996498107910156 -55.1614990234375
vt 60.003501892089844 -55.1614990234375
vt 59.996498107910156 -55.1614990234375
vt 60.003501892089844 -54.84479904174805
vt 59.996498107910156 -54.8385009765625
vt 59.99079895019531 -54.84479904174805
vt 59.99079895019531 -55.1614990234375
vt 59.996498107910156 -55.1614990234375
vt 59.996498107910156 -55.1614990234375
vt 59.996498107910156 -54.8385009765625
vt 59.99079895019531 -54.84479904174805
vt 60.00669860839844 -54.84479904174805
vt 60 -55.1614990234375
vt 60.00669860839844 -55.1614990234375
vt 60 -55.1614990234375
vt 60.00669860839844 -54.84479904174805
vt 60 -54.8385009765625
vt 60 -55.1614990234375
vt 60 -54.8385009765625
vt 59.99330139160156 -54.84479904174805
vt 60 -55.1614990234375
vt 59.99330139160156 -54.84479904174805
vt 59.99330139160156 -55.1614990234375
vn -0.5714690171812981 0 0.8206236423610042
vn -0.7995301733948414 0 0.6006259250408817
vn -0.5766352352219849 0 0.8170017169507577
vn -0.7995301733948414 0 0.6006259250408817
vn -0.5714690171812981 0 0.8206236423610042
vn -0.7995301733948414 0 0.6006259250408817
vn -1 0 0
vn -1 0 0
vn -0.9464688752469755 0 -0.32279508699595366
vn -1 0 0
vn -0.9464688752469755 0 -0.32279508699595366
vn -0.9489129510082409 0 -0.31553797142155743
vn -0.9464688752469755 0 -0.32279508699595366
vn -0.7995301733948414 0 -0.6006259250408817
vn -0.9489129510082409 0 -0.31553797142155743
vn -0.7995301733948414 0 -0.6006259250408817
vn -0.9464688752469755 0 -0.32279508699595366
vn -0.7995301733948414 0 -0.6006259250408817
vn 0.2982025597267026 0 -0.954502610458684
vn 0 0 -1
vn 0.2982025597267026 0 -0.954502610458684
vn 0 0 -1
vn 0.2982025597267026 0 -0.954502610458684
vn 0 0 -1
vn 0 0 -1
vn 0 0 -1
vn -0.2982025597267026 0 -0.954502610458684
vn -0.2982025597267026 0 -0.954502610458684
vn -0.2982025597267026 0 -0.954502610458684
vn 0 0 -1
vn 0.9489129510082409 0 -0.31553797142155743
vn 0.9489129510082409 0 -0.31553797142155743
vn 0.7995301733948414 0 -0.6006259250408817
vn 0.7995301733948414 0 -0.6006259250408817
vn 0.7995301733948414 0 -0.6006259250408817
vn 0.9489129510082409 0 -0.31553797142155743
vn 0.9489129510082409 0 -0.31553797142155743
vn 1 0 0
vn 0.9489129510082409 0 -0.31553797142155743
vn 1 0 0
vn 0.9489129510082409 0 -0.31553797142155743
vn 1 0 0
vn 0.5766352352219849 0 0.8170017169507577
vn 0.5766352352219849 0 0.8170017169507577
vn 0.7995301733948414 0 0.6006259250408817
vn 0.7995301733948414 0 0.6006259250408817
vn 0.7995301733948414 0 0.6006259250408817
vn 0.5766352352219849 0 0.8170017169507577
vn 0.5766352352219849 0 0.8170017169507577
vn 0.2982025597267026 0 0.954502610458684
vn 0.5766352352219849 0 0.8170017169507577
vn 0.2982025597267026 0 0.954502610458684
vn 0.5766352352219849 0 0.8170017169507577
vn 0.2982025597267026 0 0.954502610458684
vn -0.2982025597267026 0 0.954502610458684
vn -0.2982025597267026 0 0.954502610458684
vn -0.5714690171812981 0 0.8206236423610042
vn -0.2982025597267026 0 0.954502610458684
vn -0.5714690171812981 0 0.8206236423610042
vn -0.5766352352219849 0 0.8170017169507577
f 1/1/1 2/2/2 3/3/3
f 4/4/4 5/5/5 6/6/6
f 7/7/7 8/8/8 9/9/9
f 10/10/10 11/11/11 12/12/12
f 13/13/13 14/14/14 15/15/15
f 16/16/16 17/17/17 18/18/18
f 19/19/19 20/20/20 21/21/21
f 22/22/22 23/23/23 24/24/24
f 25/25/25 26/26/26 27/27/27
f 28/28/28 29/29/29 30/30/30
f 31/31/31 32/32/32 33/33/33
f 34/34/34 35/35/35 36/36/36
f 37/37/37 38/38/38 39/39/39
f 40/40/40 41/41/41 42/42/42
f 43/43/43 44/44/44 45/45/45
f 46/46/46 47/47/47 48/48/48
f 49/49/49 50/50/50 51/51/51
f 52/52/52 53/53/53 54/54/54
f 55/55/55 56/56/56 57/57/57
f 58/58/58 59/59/59 60/60/60
o Meshpart3
usemtl Meshpart3Mtl
v -0.0717216144940688 2.4085546091983367 -0.19225016096139966
v -0.08672542327442215 2.4284893951983184 -0.1628993604453967
v -0.040173424466378255 2.6017554194349817 -0.14823792718560116
v -0.08672542327442215 2.4284893951983184 -0.1628993604453967
v -0.09238585836378332 2.4085546091983367 -0.130605992552274
v -0.040173424466378255 2.6017554194349817 -0.14823792718560116
v -0.09238585836378332 2.4085546091983367 -0.130605992552274
v -0.0689445263843168 2.4284893951983184 -0.10985486394104253
v -0.040173424466378255 2.6017554194349817 -0.14823792718560116
v -0.040173424466378255 2.4284893951983184 -0.19568265116186515
v -0.0717216144940688 2.4085546091983367 -0.19225016096139966
v -0.040173424466378255 2.6017554194349817 -0.14823792718560116
v -0.004851494754555957 2.4085546091983367 -0.19225016096139966
v -0.040173424466378255 2.4284893951983184 -0.19568265116186515
v -0.040173424466378255 2.6017554194349817 -0.14823792718560116
v 0.006377863176101478 2.4284893951983184 -0.1628993604453967
v -0.004851494754555957 2.4085546091983367 -0.19225016096139966
v -0.040173424466378255 2.6017554194349817 -0.14823792718560116
v 0.006377863176101478 2.4284893951983184 -0.1335763167167724
v 0.006377863176101478 2.4284893951983184 -0.1628993604453967
v -0.040173424466378255 2.6017554194349817 -0.14823792718560116
v -0.011401960256548549 2.4284893951983184 -0.10985486394104253
v 0.006377863176101478 2.4284893951983184 -0.1335763167167724
v -0.040173424466378255 2.6017554194349817 -0.14823792718560116
v -0.0689445263843168 2.4284893951983184 -0.10985486394104253
v -0.038285830040530044 2.4085546091983367 -0.09250691369298708
v -0.040173424466378255 2.6017554194349817 -0.14823792718560116
v -0.038285830040530044 2.4085546091983367 -0.09250691369298708
v -0.011401960256548549 2.4284893951983184 -0.10985486394104253
v -0.040173424466378255 2.6017554194349817 -0.14823792718560116
vt 23.996599197387695 -43.007598876953125
vt 23.998699188232422 -43.00600051879883
vt 23.99970054626465 -42.992401123046875
vt 23.998699188232422 -43.00600051879883
vt 24.000999450683594 -43.007598876953125
vt 23.99970054626465 -42.992401123046875
vt 24.000999450683594 -43.007598876953125
vt 24.002500534057617 -43.00600051879883
vt 23.99970054626465 -42.992401123046875
vt 23.999799728393555 -43.00600051879883
vt 24.00200080871582 -43.007598876953125
vt 23.999799728393555 -42.992401123046875
vt 23.997400283813477 -43.007598876953125
vt 23.999799728393555 -43.00600051879883
vt 23.999799728393555 -42.992401123046875
vt 24.001300811767578 -43.00600051879883
vt 24.003400802612305 -43.007598876953125
vt 24.00029945373535 -42.992401123046875
vt 23.99920082092285 -43.00600051879883
vt 24.001300811767578 -43.00600051879883
vt 24.00029945373535 -42.992401123046875
vt 23.997499465942383 -43.00600051879883
vt 23.99920082092285 -43.00600051879883
vt 24.00029945373535 -42.992401123046875
vt 23.998199462890625 -43.00600051879883
vt 24.00029945373535 -43.007598876953125
vt 24.000200271606445 -42.992401123046875
vt 24.00029945373535 -43.007598876953125
vt 24.002199172973633 -43.00600051879883
vt 24.000200271606445 -42.992401123046875
vn -0.5458302863920166 0.27020723560987836 -0.793131356259023
vn -0.9119134786277495 0.2739461985300651 -0.305560612330783
vn -0.013887869024170095 0.9998778950372739 -0.007163945128069565
vn -0.9119134786277495 0.2739461985300651 -0.305560612330783
vn -0.9096518403680007 0.27326678406999955 0.31282390260200665
vn -0.013887869024170095 0.9998778950372739 -0.007163945128069565
vn -0.9096518403680007 0.27326678406999955 0.31282390260200665
vn -0.5651781087803583 0.2684425213840131 0.7800719954391716
vn -0.013887869024170095 0.9998778950372739 -0.007163945128069565
vn -0.015187193122616426 0.26689840211231874 -0.9636049979711331
vn -0.5458302863920166 0.27020723560987836 -0.793131356259023
vn -0.013887869024170095 0.9998778950372739 -0.007163945128069565
vn 0.5673113396564735 0.2781489776542799 -0.775107083006636
vn -0.015187193122616426 0.26689840211231874 -0.9636049979711331
vn -0.013887869024170095 0.9998778950372739 -0.007163945128069565
vn 0.9196544260893244 0.2739303582764121 -0.281421206359563
vn 0.5673113396564735 0.2781489776542799 -0.775107083006636
vn -0.013887869024170095 0.9998778950372739 -0.007163945128069565
vn 0.9119134786277495 0.2739461985300651 0.305560612330783
vn 0.9196544260893244 0.2739303582764121 -0.281421206359563
vn -0.013887869024170095 0.9998778950372739 -0.007163945128069565
vn 0.5738321190203595 0.2689188765852827 0.7735627556938826
vn 0.9119134786277495 0.2739461985300651 0.305560612330783
vn -0.013887869024170095 0.9998778950372739 -0.007163945128069565
vn -0.5651781087803583 0.2684425213840131 0.7800719954391716
vn 0.015151850790931341 0.2748679915822218 0.9613625791662399
vn -0.013887869024170095 0.9998778950372739 -0.007163945128069565
vn 0.015151850790931341 0.2748679915822218 0.9613625791662399
vn 0.5738321190203595 0.2689188765852827 0.7735627556938826
vn -0.013887869024170095 0.9998778950372739 -0.007163945128069565
f 61/61/61 62/62/62 63/63/63
f 64/64/64 65/65/65 66/66/66
f 67/67/67 68/68/68 69/69/69
f 70/70/70 71/71/71 72/72/72
f 73/73/73 74/74/74 75/75/75
f 76/76/76 77/77/77 78/78/78
f 79/79/79 80/80/80 81/81/81
f 82/82/82 83/83/83 84/84/84
f 85/85/85 86/86/86 87/87/87
f 88/88/88 89/89/89 90/90/90
o Meshpart5
usemtl Meshpart5Mtl
v -0.13714879272215796 2.0299841668988283 -0.020625247746929948
v -0.07001609187085883 2.4284893951983184 -0.1101866963910563
v -0.1964184579679879 2.080543996774823 -0.09969862365537185
v -0.1964184579679879 2.080543996774823 -0.09969862365537185
v -0.07001609187085883 2.4284893951983184 -0.1101866963910563
v -0.09345742385032535 2.40853870333073 -0.1309378254087305
v -0.1964184579679879 2.0299841668988283 -0.19744087691949214
v -0.07279317998061083 2.40853870333073 -0.19258183774384524
v -0.13714879272215796 2.1100092378045368 -0.2765143048526043
v -0.07279317998061083 2.40853870333073 -0.19258183774384524
v -0.1964184579679879 2.0299841668988283 -0.19744087691949214
v -0.08779700217918238 2.4284893951983184 -0.16323120955956266
v -0.1964184579679879 2.0299841668988283 -0.19744087691949214
v -0.09345742385032535 2.40853870333073 -0.1309378254087305
v -0.08779700217918238 2.4284893951983184 -0.16323120955956266
v -0.09345742385032535 2.40853870333073 -0.1309378254087305
v -0.1964184579679879 2.0299841668988283 -0.19744087691949214
v -0.1964184579679879 2.080543996774823 -0.09969862365537185
v -0.04124535224481146 2.0299841668988283 -0.30671855382725094
v -0.04124535224481146 2.4284893951983184 -0.19601449702448923
v 0.05465753137648012 2.1100092378045368 -0.2765143048526043
v 0.05465753137648012 2.1100092378045368 -0.2765143048526043
v -0.04124535224481146 2.4284893951983184 -0.19601449702448923
v -0.005923248096152661 2.40853870333073 -0.19258183774384524
v -0.04124535224481146 2.4284893951983184 -0.19601449702448923
v -0.04124535224481146 2.0299841668988283 -0.30671855382725094
v -0.07279317998061083 2.40853870333073 -0.19258183774384524
v -0.07279317998061083 2.40853870333073 -0.19258183774384524
v -0.04124535224481146 2.0299841668988283 -0.30671855382725094
v -0.13714879272215796 2.1100092378045368 -0.2765143048526043
v -0.012473713598145253 2.4284893951983184 -0.1101866963910563
v 0.11392745890654372 2.1100092378045368 -0.09969862365537185
v 0.005305928688559183 2.4284893951983184 -0.13390816745670933
v 0.11392745890654372 2.0299841668988283 -0.19744087691949214
v 0.005305928688559183 2.4284893951983184 -0.16323120955956266
v 0.11392745890654372 2.1100092378045368 -0.09969862365537185
v 0.005305928688559183 2.4284893951983184 -0.13390816745670933
v 0.11392745890654372 2.1100092378045368 -0.09969862365537185
v 0.005305928688559183 2.4284893951983184 -0.16323120955956266
v 0.005305928688559183 2.4284893951983184 -0.16323120955956266
v 0.11392745890654372 2.0299841668988283 -0.19744087691949214
v -0.005923248096152661 2.40853870333073 -0.19258183774384524
v -0.005923248096152661 2.40853870333073 -0.19258183774384524
v 0.11392745890654372 2.0299841668988283 -0.19744087691949214
v 0.05465753137648012 2.1100092378045368 -0.2765143048526043
v 0.11392745890654372 2.1100092378045368 -0.09969862365537185
v -0.012473713598145253 2.4284893951983184 -0.1101866963910563
v 0.05465753137648012 2.0299841668988283 -0.020625247746929948
v -0.04124535224481146 2.1100092378045368 0.009578838650621951
v 0.05465753137648012 2.0299841668988283 -0.020625247746929948
v -0.012473713598145253 2.4284893951983184 -0.1101866963910563
v -0.03935758338212675 2.40853870333073 -0.09283876280715306
v -0.04124535224481146 2.1100092378045368 0.009578838650621951
v -0.012473713598145253 2.4284893951983184 -0.1101866963910563
v -0.04124535224481146 2.1100092378045368 0.009578838650621951
v -0.07001609187085883 2.4284893951983184 -0.1101866963910563
v -0.13714879272215796 2.0299841668988283 -0.020625247746929948
v -0.07001609187085883 2.4284893951983184 -0.1101866963910563
v -0.04124535224481146 2.1100092378045368 0.009578838650621951
v -0.03935758338212675 2.40853870333073 -0.09283876280715306
vt 6.009160041809082 -41.01570129394531
vt 6.002749919891357 -40.98429870605469
vt 6.003499984741211 -41.01169967651367
vt 6.003499984741211 -41.01169967651367
vt 6.002749919891357 -40.98429870605469
vt 6.001259803771973 -40.98590087890625
vt 5.996500015258789 -41.01570129394531
vt 5.99685001373291 -40.98590087890625
vt 5.990839958190918 -41.0093994140625
vt 5.99685001373291 -40.98590087890625
vt 5.996500015258789 -41.01570129394531
vt 5.998950004577637 -40.98429870605469
vt 5.996500015258789 -41.01570129394531
vt 6.001259803771973 -40.98590087890625
vt 5.998950004577637 -40.98429870605469
vt 6.001259803771973 -40.98590087890625
vt 5.996500015258789 -41.01570129394531
vt 6.003499984741211 -41.01169967651367
vt 6 -41.01570129394531
vt 6 -40.98429870605469
vt 5.993340015411377 -41.0093994140625
vt 5.993340015411377 -41.0093994140625
vt 6 -40.98429870605469
vt 5.997550010681152 -40.98590087890625
vt 6 -40.98429870605469
vt 6 -41.01570129394531
vt 6.002190113067627 -40.98590087890625
vt 6.002190113067627 -40.98590087890625
vt 6 -41.01570129394531
vt 6.006659984588623 -41.0093994140625
vt 5.997250080108643 -40.98429870605469
vt 5.996500015258789 -41.0093994140625
vt 5.998950004577637 -40.98429870605469
vt 6.003499984741211 -41.01570129394531
vt 6.001049995422363 -40.98429870605469
vt 5.996500015258789 -41.0093994140625
vt 5.998950004577637 -40.98429870605469
vt 5.996500015258789 -41.0093994140625
vt 6.001049995422363 -40.98429870605469
vt 6.001049995422363 -40.98429870605469
vt 6.003499984741211 -41.01570129394531
vt 6.00314998626709 -40.98590087890625
vt 6.00314998626709 -40.98590087890625
vt 6.003499984741211 -41.01570129394531
vt 6.009160041809082 -41.0093994140625
vt 6.010769844055176 -41.0093994140625
vt 6.001999855041504 -40.98429870605469
vt 6.006659984588623 -41.01570129394531
vt 6 -41.0093994140625
vt 6.006659984588623 -41.01570129394531
vt 6.001999855041504 -40.98429870605469
vt 6.0001301765441895 -40.98590087890625
vt 6 -41.0093994140625
vt 6.001999855041504 -40.98429870605469
vt 6 -41.0093994140625
vt 5.998000144958496 -40.98429870605469
vt 5.993340015411377 -41.01570129394531
vt 5.998000144958496 -40.98429870605469
vt 6 -41.0093994140625
vt 6.0001301765441895 -40.98590087890625
vn -0.5810675627360404 0.2773963924753394 0.7651220353496984
vn -0.5810675627360404 0.2773963924753394 0.7651220353496984
vn -0.7010630558766122 0.2707781068792995 0.6596891756879212
vn -0.7010630558766122 0.2707781068792995 0.6596891756879212
vn -0.5810675627360404 0.2773963924753394 0.7651220353496984
vn -0.7010630558766122 0.2707781068792995 0.6596891756879212
vn -0.9194434571541945 0.28270308831169194 -0.2733179338341602
vn -0.8558289438144664 0.2822810786260195 -0.4334445888220843
vn -0.8558289438144664 0.2822810786260195 -0.4334445888220843
vn -0.8558289438144664 0.2822810786260195 -0.4334445888220843
vn -0.9194434571541945 0.28270308831169194 -0.2733179338341602
vn -0.9194434571541945 0.28270308831169194 -0.2733179338341602
vn -0.9194434571541945 0.28270308831169194 -0.2733179338341602
vn -0.9555999823519907 0.27530483959435637 -0.1050519824886749
vn -0.9194434571541945 0.28270308831169194 -0.2733179338341602
vn -0.9555999823519907 0.27530483959435637 -0.1050519824886749
vn -0.9194434571541945 0.28270308831169194 -0.2733179338341602
vn -0.9555999823519907 0.27530483959435637 -0.1050519824886749
vn 0 0.2828126086487425 -0.9591751812830092
vn 0 0.2828126086487425 -0.9591751812830092
vn 0.1212453268286439 0.27493720019723533 -0.9537867196967679
vn 0.1212453268286439 0.27493720019723533 -0.9537867196967679
vn 0 0.2828126086487425 -0.9591751812830092
vn 0.1212453268286439 0.27493720019723533 -0.9537867196967679
vn 0 0.2828126086487425 -0.9591751812830092
vn 0 0.2828126086487425 -0.9591751812830092
vn -0.1212453268286439 0.27493720019723533 -0.9537867196967679
vn -0.1212453268286439 0.27493720019723533 -0.9537867196967679
vn 0 0.2828126086487425 -0.9591751812830092
vn -0.1212453268286439 0.27493720019723533 -0.9537867196967679
vn 0.5673113396564735 0.2781489776542799 0.775107083006636
vn 0.6524538431236714 0.27849581923584843 0.7048007245039588
vn 0.6524538431236714 0.27849581923584843 0.7048007245039588
vn 0.9118810791164872 0.2827742595540959 -0.2975090178179208
vn 0.914040651239839 0.28344394272015755 -0.29015378545919907
vn 0.9427693373231224 0.28268817774450694 -0.17684278545309798
vn 0.9427693373231224 0.28268817774450694 -0.17684278545309798
vn 0.9427693373231224 0.28268817774450694 -0.17684278545309798
vn 0.914040651239839 0.28344394272015755 -0.29015378545919907
vn 0.914040651239839 0.28344394272015755 -0.29015378545919907
vn 0.9118810791164872 0.2827742595540959 -0.2975090178179208
vn 0.86853605613995 0.28135673712972903 -0.40802390329069504
vn 0.86853605613995 0.28135673712972903 -0.40802390329069504
vn 0.9118810791164872 0.2827742595540959 -0.2975090178179208
vn 0.86853605613995 0.28135673712972903 -0.40802390329069504
vn 0.6524538431236714 0.27849581923584843 0.7048007245039588
vn 0.5673113396564735 0.2781489776542799 0.775107083006636
vn 0.5586169670397516 0.27763804933508357 0.7815780176647236
vn 0.4588006808512654 0.27743443780705224 0.8441161460184848
vn 0.5586169670397516 0.27763804933508357 0.7815780176647236
vn 0.5673113396564735 0.2781489776542799 0.775107083006636
vn 0.4588006808512654 0.27743443780705224 0.8441161460184848
vn 0.4588006808512654 0.27743443780705224 0.8441161460184848
vn 0.5673113396564735 0.2781489776542799 0.775107083006636
vn -0.44971221361520414 0.27654779780369776 0.849282191297591
vn -0.5810675627360404 0.2773963924753394 0.7651220353496984
vn -0.5810675627360404 0.2773963924753394 0.7651220353496984
vn -0.5810675627360404 0.2773963924753394 0.7651220353496984
vn -0.44971221361520414 0.27654779780369776 0.849282191297591
vn -0.44971221361520414 0.27654779780369776 0.849282191297591
f 91/91/91 92/92/92 93/93/93
f 94/94/94 95/95/95 96/96/96
f 97/97/97 98/98/98 99/99/99
f 100/100/100 101/101/101 102/102/102
f 103/103/103 104/104/104 105/105/105
f 106/106/106 107/107/107 108/108/108
f 109/109/109 110/110/110 111/111/111
f 112/112/112 113/113/113 114/114/114
f 115/115/115 116/116/116 117/117/117
f 118/118/118 119/119/119 120/120/120
f 121/121/121 122/122/122 123/123/123
f 124/124/124 125/125/125 126/126/126
f 127/127/127 128/128/128 129/129/129
f 130/130/130 131/131/131 132/132/132
f 133/133/133 134/134/134 135/135/135
f 136/136/136 137/137/137 138/138/138
f 139/139/139 140/140/140 141/141/141
f 142/142/142 143/143/143 144/144/144
f 145/145/145 146/146/146 147/147/147
f 148/148/148 149/149/149 150/150/150
