o 
v -0.10304100066423416 -0.32238098978996277 -0.20353400707244873
v -0.10304100066423416 -0.32238098978996277 0.20353400707244873
v -0.18734799325466156 -0.32238098978996277 0
v -0.10304100066423416 -0.32238098978996277 -0.20353400707244873
v 0.10049399733543396 -0.32238098978996277 0.28784000873565674
v -0.10304100066423416 -0.32238098978996277 0.20353400707244873
v 0.10049399733543396 -0.32238098978996277 -0.28784000873565674
v 0.10049399733543396 -0.32238098978996277 0.28784000873565674
v -0.10304100066423416 -0.32238098978996277 -0.20353400707244873
v 0.10049399733543396 -0.32238098978996277 0.28784000873565674
v 0.10049399733543396 -0.32238098978996277 -0.28784000873565674
v 0.3040260076522827 -0.32238098978996277 -0.20353400707244873
v 0.3040260076522827 -0.32238098978996277 -0.20353400707244873
v 0.3040260076522827 -0.32238098978996277 0.20353400707244873
v 0.10049399733543396 -0.32238098978996277 0.28784000873565674
v 0.3040260076522827 -0.32238098978996277 0.20353400707244873
v 0.3040260076522827 -0.32238098978996277 -0.20353400707244873
v 0.3883329927921295 -0.32238098978996277 0
v 0.3883329927921295 -0.08365300297737122 0
v 0.3040260076522827 -0.08365300297737122 0.20353400707244873
v 0.3883329927921295 -0.32238098978996277 0
v 0.3040260076522827 -0.08365300297737122 -0.20353400707244873
v 0.3883329927921295 -0.08365300297737122 0
v 0.3883329927921295 -0.32238098978996277 0
v 0.3883329927921295 -0.32238098978996277 0
v 0.3040260076522827 -0.08365300297737122 0.20353400707244873
v 0.3040260076522827 -0.32238098978996277 0.20353400707244873
v 0.3040260076522827 -0.32238098978996277 -0.20353400707244873
v 0.3040260076522827 -0.08365300297737122 -0.20353400707244873
v 0.3883329927921295 -0.32238098978996277 0
v 0.10049399733543396 -0.32238098978996277 0.28784000873565674
v 0.3040260076522827 -0.32238098978996277 0.20353400707244873
v 0.3040260076522827 -0.08365300297737122 0.20353400707244873
v 0.10049399733543396 -0.32238098978996277 -0.28784000873565674
v 0.3040260076522827 -0.08365300297737122 -0.20353400707244873
v 0.3040260076522827 -0.32238098978996277 -0.20353400707244873
v 0.10049399733543396 -0.32238098978996277 0.28784000873565674
v 0.3040260076522827 -0.08365300297737122 0.20353400707244873
v 0.10049399733543396 -0.08365300297737122 0.28784000873565674
v 0.3040260076522827 -0.08365300297737122 -0.20353400707244873
v 0.10049399733543396 -0.32238098978996277 -0.28784000873565674
v 0.10049399733543396 -0.08365300297737122 -0.28784000873565674
v -0.10304100066423416 -0.32238098978996277 0.20353400707244873
v 0.10049399733543396 -0.32238098978996277 0.28784000873565674
v 0.10049399733543396 -0.08365300297737122 0.28784000873565674
v -0.10304100066423416 -0.32238098978996277 -0.20353400707244873
v 0.10049399733543396 -0.08365300297737122 -0.28784000873565674
v 0.10049399733543396 -0.32238098978996277 -0.28784000873565674
v -0.10304100066423416 -0.32238098978996277 0.20353400707244873
v 0.10049399733543396 -0.08365300297737122 0.28784000873565674
v -0.10304100066423416 -0.08365300297737122 0.20353400707244873
v 0.10049399733543396 -0.08365300297737122 -0.28784000873565674
v -0.10304100066423416 -0.32238098978996277 -0.20353400707244873
v -0.10304100066423416 -0.08365300297737122 -0.20353400707244873
v -0.10304100066423416 -0.08365300297737122 0.20353400707244873
v -0.18734799325466156 -0.32238098978996277 0
v -0.10304100066423416 -0.32238098978996277 0.20353400707244873
v -0.10304100066423416 -0.32238098978996277 -0.20353400707244873
v -0.18734799325466156 -0.08365300297737122 0
v -0.10304100066423416 -0.08365300297737122 -0.20353400707244873
v -0.18734799325466156 -0.32238098978996277 0
v -0.10304100066423416 -0.08365300297737122 0.20353400707244873
v -0.18734799325466156 -0.08365300297737122 0
v -0.18734799325466156 -0.08365300297737122 0
v -0.10304100066423416 -0.32238098978996277 -0.20353400707244873
v -0.18734799325466156 -0.32238098978996277 0
v -0.05622699856758118 0.32238098978996277 0.15672099590301514
v 0.10049399733543396 0.32238098978996277 0.28784000873565674
v 0.10049399733543396 0.32238098978996277 0.22163699567317963
v 0.3040260076522827 0.32238098978996277 0.20353400707244873
v 0.10049399733543396 0.32238098978996277 0.22163699567317963
v 0.10049399733543396 0.32238098978996277 0.28784000873565674
v 0.10049399733543396 0.32238098978996277 0.28784000873565674
v -0.05622699856758118 0.32238098978996277 0.15672099590301514
v -0.10304100066423416 0.32238098978996277 0.20353400707244873
v 0.10049399733543396 0.32238098978996277 0.22163699567317963
v 0.3040260076522827 0.32238098978996277 0.20353400707244873
v 0.2572140097618103 0.32238098978996277 0.15672099590301514
v -0.12114299833774567 0.32238098978996277 0
v -0.10304100066423416 0.32238098978996277 0.20353400707244873
v -0.05622699856758118 0.32238098978996277 0.15672099590301514
v 0.3883329927921295 0.32238098978996277 0
v 0.2572140097618103 0.32238098978996277 0.15672099590301514
v 0.3040260076522827 0.32238098978996277 0.20353400707244873
v -0.10304100066423416 0.32238098978996277 0.20353400707244873
v -0.12114299833774567 0.32238098978996277 0
v -0.18734799325466156 0.32238098978996277 0
v 0.2572140097618103 0.32238098978996277 0.15672099590301514
v 0.3883329927921295 0.32238098978996277 0
v 0.3221310079097748 0.32238098978996277 0
v -0.12114299833774567 0.32238098978996277 0
v -0.10304100066423416 0.32238098978996277 -0.20353400707244873
v -0.18734799325466156 0.32238098978996277 0
v 0.3883329927921295 0.32238098978996277 0
v 0.2572140097618103 0.32238098978996277 -0.15672099590301514
v 0.3221310079097748 0.32238098978996277 0
v -0.10304100066423416 0.32238098978996277 -0.20353400707244873
v -0.12114299833774567 0.32238098978996277 0
v -0.05622699856758118 0.32238098978996277 -0.15672099590301514
v 0.2572140097618103 0.32238098978996277 -0.15672099590301514
v 0.3883329927921295 0.32238098978996277 0
v 0.3040260076522827 0.32238098978996277 -0.20353400707244873
v 0.10049399733543396 0.32238098978996277 -0.28784000873565674
v -0.10304100066423416 0.32238098978996277 -0.20353400707244873
v -0.05622699856758118 0.32238098978996277 -0.15672099590301514
v 0.3040260076522827 0.32238098978996277 -0.20353400707244873
v 0.10049399733543396 0.32238098978996277 -0.22163699567317963
v 0.2572140097618103 0.32238098978996277 -0.15672099590301514
v 0.10049399733543396 0.32238098978996277 -0.28784000873565674
v -0.05622699856758118 0.32238098978996277 -0.15672099590301514
v 0.10049399733543396 0.32238098978996277 -0.22163699567317963
v 0.3040260076522827 0.32238098978996277 -0.20353400707244873
v 0.10049399733543396 0.32238098978996277 -0.28784000873565674
v 0.10049399733543396 0.32238098978996277 -0.22163699567317963
v -0.23236699402332306 0.23216499388217926 0
v -0.15695799887180328 0.23216499388217926 0
v -0.15695799887180328 0.19627000391483307 -0.0358939990401268
v -0.23236699402332306 0.23216499388217926 0
v -0.15695799887180328 0.19627000391483307 -0.0358939990401268
v -0.23236699402332306 0.19627000391483307 -0.0358939990401268
v -0.23236699402332306 0.19627000391483307 -0.0358939990401268
v -0.3270600140094757 0.19999200105667114 0
v -0.23236699402332306 0.23216499388217926 0
v -0.3270600140094757 0.19999200105667114 0
v -0.23236699402332306 0.19627000391483307 -0.0358939990401268
v -0.3089050054550171 0.16902799904346466 -0.0358939990401268
v -0.3089050054550171 0.16902799904346466 -0.0358939990401268
v -0.3883329927921295 0.06817399710416794 0
v -0.3270600140094757 0.19999200105667114 0
v -0.3883329927921295 0.06817399710416794 0
v -0.3089050054550171 0.16902799904346466 -0.0358939990401268
v -0.35301101207733154 0.061788998544216156 -0.0358939990401268
v -0.334850013256073 -0.04847700148820877 -0.0358939990401268
v -0.3883329927921295 0.06817399710416794 0
v -0.35301101207733154 0.061788998544216156 -0.0358939990401268
v -0.3883329927921295 0.06817399710416794 0
v -0.334850013256073 -0.04847700148820877 -0.0358939990401268
v -0.36375701427459717 -0.06975600123405457 0
v -0.36375701427459717 -0.06975600123405457 0
v -0.334850013256073 -0.04847700148820877 -0.0358939990401268
v -0.26479798555374146 -0.1250150054693222 -0.0358939990401268
v -0.28449198603630066 -0.15502400696277618 0
v -0.36375701427459717 -0.06975600123405457 0
v -0.26479798555374146 -0.1250150054693222 -0.0358939990401268
v -0.16293199360370636 -0.19186800718307495 -0.0358939990401268
v -0.28449198603630066 -0.15502400696277618 0
v -0.26479798555374146 -0.1250150054693222 -0.0358939990401268
v -0.16686199605464935 -0.22754499316215515 0
v -0.28449198603630066 -0.15502400696277618 0
v -0.16293199360370636 -0.19186800718307495 -0.0358939990401268
v -0.15695799887180328 0.23216499388217926 0
v -0.23236699402332306 0.23216499388217926 0
v -0.15695799887180328 0.19627000391483307 0.0358939990401268
v -0.23236699402332306 0.19627000391483307 0.0358939990401268
v -0.15695799887180328 0.19627000391483307 0.0358939990401268
v -0.23236699402332306 0.23216499388217926 0
v -0.23236699402332306 0.23216499388217926 0
v -0.3270600140094757 0.19999200105667114 0
v -0.23236699402332306 0.19627000391483307 0.0358939990401268
v -0.23236699402332306 0.19627000391483307 0.0358939990401268
v -0.3270600140094757 0.19999200105667114 0
v -0.3089050054550171 0.16902799904346466 0.0358939990401268
v -0.3270600140094757 0.19999200105667114 0
v -0.3883329927921295 0.06817399710416794 0
v -0.3089050054550171 0.16902799904346466 0.0358939990401268
v -0.3089050054550171 0.16902799904346466 0.0358939990401268
v -0.3883329927921295 0.06817399710416794 0
v -0.35301101207733154 0.061788998544216156 0.0358939990401268
v -0.3883329927921295 0.06817399710416794 0
v -0.334850013256073 -0.04847700148820877 0.0358939990401268
v -0.35301101207733154 0.061788998544216156 0.0358939990401268
v -0.334850013256073 -0.04847700148820877 0.0358939990401268
v -0.3883329927921295 0.06817399710416794 0
v -0.36375701427459717 -0.06975600123405457 0
v -0.36375701427459717 -0.06975600123405457 0
v -0.26479798555374146 -0.1250150054693222 0.0358939990401268
v -0.334850013256073 -0.04847700148820877 0.0358939990401268
v -0.26479798555374146 -0.1250150054693222 0.0358939990401268
v -0.36375701427459717 -0.06975600123405457 0
v -0.28449198603630066 -0.15502400696277618 0
v -0.28449198603630066 -0.15502400696277618 0
v -0.16293199360370636 -0.19186800718307495 0.0358939990401268
v -0.26479798555374146 -0.1250150054693222 0.0358939990401268
v -0.16293199360370636 -0.19186800718307495 0.0358939990401268
v -0.28449198603630066 -0.15502400696277618 0
v -0.16686199605464935 -0.22754499316215515 0
v -0.10304100066423416 0.32238098978996277 -0.20353400707244873
v -0.10304100066423416 0.09492799639701843 -0.20353400707244873
v -0.18734799325466156 0.09492799639701843 0
v 0.10049399733543396 0.32238098978996277 -0.28784000873565674
v -0.10304100066423416 0.09492799639701843 -0.20353400707244873
v -0.10304100066423416 0.32238098978996277 -0.20353400707244873
v -0.10304100066423416 0.32238098978996277 -0.20353400707244873
v -0.18734799325466156 0.09492799639701843 0
v -0.18734799325466156 0.32238098978996277 0
v -0.10304100066423416 0.09492799639701843 -0.20353400707244873
v 0.10049399733543396 0.32238098978996277 -0.28784000873565674
v 0.10049399733543396 0.09492799639701843 -0.28784000873565674
v -0.18734799325466156 0.32238098978996277 0
v -0.18734799325466156 0.09492799639701843 0
v -0.10304100066423416 0.09492799639701843 0.20353400707244873
v 0.3040260076522827 0.32238098978996277 -0.20353400707244873
v 0.10049399733543396 0.09492799639701843 -0.28784000873565674
v 0.10049399733543396 0.32238098978996277 -0.28784000873565674
v -0.18734799325466156 0.32238098978996277 0
v -0.10304100066423416 0.09492799639701843 0.20353400707244873
v -0.10304100066423416 0.32238098978996277 0.20353400707244873
v 0.10049399733543396 0.09492799639701843 -0.28784000873565674
v 0.3040260076522827 0.32238098978996277 -0.20353400707244873
v 0.3040260076522827 0.09492799639701843 -0.20353400707244873
v -0.10304100066423416 0.09492799639701843 0.20353400707244873
v 0.10049399733543396 0.09492799639701843 0.28784000873565674
v -0.10304100066423416 0.32238098978996277 0.20353400707244873
v 0.3040260076522827 0.32238098978996277 -0.20353400707244873
v 0.3883329927921295 0.32238098978996277 0
v 0.3040260076522827 0.09492799639701843 -0.20353400707244873
v 0.10049399733543396 0.09492799639701843 0.28784000873565674
v 0.10049399733543396 0.32238098978996277 0.28784000873565674
v -0.10304100066423416 0.32238098978996277 0.20353400707244873
v 0.3040260076522827 0.09492799639701843 -0.20353400707244873
v 0.3883329927921295 0.32238098978996277 0
v 0.3883329927921295 0.09492799639701843 0
v 0.10049399733543396 0.09492799639701843 0.28784000873565674
v 0.3040260076522827 0.09492799639701843 0.20353400707244873
v 0.10049399733543396 0.32238098978996277 0.28784000873565674
v 0.3883329927921295 0.32238098978996277 0
v 0.3040260076522827 0.32238098978996277 0.20353400707244873
v 0.3883329927921295 0.09492799639701843 0
v 0.3040260076522827 0.09492799639701843 0.20353400707244873
v 0.3040260076522827 0.32238098978996277 0.20353400707244873
v 0.10049399733543396 0.32238098978996277 0.28784000873565674
v 0.3883329927921295 0.09492799639701843 0
v 0.3040260076522827 0.32238098978996277 0.20353400707244873
v 0.3040260076522827 0.09492799639701843 0.20353400707244873
v -0.05622699856758118 0.0693340003490448 -0.15672099590301514
v -0.05622699856758118 0.32238098978996277 -0.15672099590301514
v -0.12114299833774567 0.0693340003490448 0
v -0.05622699856758118 0.32238098978996277 -0.15672099590301514
v -0.12114299833774567 0.32238098978996277 0
v -0.12114299833774567 0.0693340003490448 0
v -0.05622699856758118 0.0693340003490448 -0.15672099590301514
v 0.10049399733543396 0.32238098978996277 -0.22163699567317963
v -0.05622699856758118 0.32238098978996277 -0.15672099590301514
v -0.12114299833774567 0.0693340003490448 0
v -0.12114299833774567 0.32238098978996277 0
v -0.05622699856758118 0.0693340003490448 0.15672099590301514
v -0.05622699856758118 0.0693340003490448 -0.15672099590301514
v 0.10049399733543396 0.0693340003490448 -0.22163699567317963
v 0.10049399733543396 0.32238098978996277 -0.22163699567317963
v -0.12114299833774567 0.32238098978996277 0
v -0.05622699856758118 0.32238098978996277 0.15672099590301514
v -0.05622699856758118 0.0693340003490448 0.15672099590301514
v 0.10049399733543396 0.0693340003490448 -0.22163699567317963
v 0.2572140097618103 0.32238098978996277 -0.15672099590301514
v 0.10049399733543396 0.32238098978996277 -0.22163699567317963
v -0.05622699856758118 0.32238098978996277 0.15672099590301514
v 0.10049399733543396 0.0693340003490448 0.22163699567317963
v -0.05622699856758118 0.0693340003490448 0.15672099590301514
v 0.10049399733543396 0.0693340003490448 -0.22163699567317963
v 0.2572140097618103 0.0693340003490448 -0.15672099590301514
v 0.2572140097618103 0.32238098978996277 -0.15672099590301514
v 0.10049399733543396 0.32238098978996277 0.22163699567317963
v 0.10049399733543396 0.0693340003490448 0.22163699567317963
v -0.05622699856758118 0.32238098978996277 0.15672099590301514
v 0.2572140097618103 0.0693340003490448 -0.15672099590301514
v 0.3221310079097748 0.32238098978996277 0
v 0.2572140097618103 0.32238098978996277 -0.15672099590301514
v 0.10049399733543396 0.32238098978996277 0.22163699567317963
v 0.2572140097618103 0.0693340003490448 0.15672099590301514
v 0.10049399733543396 0.0693340003490448 0.22163699567317963
v 0.3221310079097748 0.32238098978996277 0
v 0.2572140097618103 0.0693340003490448 -0.15672099590301514
v 0.3221310079097748 0.0693340003490448 0
v 0.2572140097618103 0.32238098978996277 0.15672099590301514
v 0.2572140097618103 0.0693340003490448 0.15672099590301514
v 0.10049399733543396 0.32238098978996277 0.22163699567317963
v 0.3221310079097748 0.0693340003490448 0
v 0.2572140097618103 0.32238098978996277 0.15672099590301514
v 0.3221310079097748 0.32238098978996277 0
v 0.2572140097618103 0.32238098978996277 0.15672099590301514
v 0.3221310079097748 0.0693340003490448 0
v 0.2572140097618103 0.0693340003490448 0.15672099590301514
v -0.16686199605464935 -0.22754499316215515 0
v -0.15900099277496338 -0.1561889946460724 0
v -0.16293199360370636 -0.19186800718307495 0.0358939990401268
v -0.15900099277496338 -0.1561889946460724 0
v -0.16686199605464935 -0.22754499316215515 0
v -0.16293199360370636 -0.19186800718307495 -0.0358939990401268
v -0.15695799887180328 0.19627000391483307 0.0358939990401268
v -0.15695799887180328 0.19627000391483307 -0.0358939990401268
v -0.15695799887180328 0.23216499388217926 0
v -0.15695799887180328 0.19627000391483307 -0.0358939990401268
v -0.15695799887180328 0.19627000391483307 0.0358939990401268
v -0.15695799887180328 0.16037599742412567 0
v -0.3089050054550171 0.16902799904346466 -0.0358939990401268
v -0.23236699402332306 0.16037599742412567 0
v -0.2907490134239197 0.13806499540805817 0
v -0.23236699402332306 0.16037599742412567 0
v -0.3089050054550171 0.16902799904346466 -0.0358939990401268
v -0.23236699402332306 0.19627000391483307 -0.0358939990401268
v -0.15695799887180328 0.19627000391483307 -0.0358939990401268
v -0.23236699402332306 0.16037599742412567 0
v -0.23236699402332306 0.19627000391483307 -0.0358939990401268
v -0.23236699402332306 0.16037599742412567 0
v -0.15695799887180328 0.19627000391483307 -0.0358939990401268
v -0.15695799887180328 0.16037599742412567 0
v -0.2907490134239197 0.13806499540805817 0
v -0.35301101207733154 0.061788998544216156 -0.0358939990401268
v -0.3089050054550171 0.16902799904346466 -0.0358939990401268
v -0.35301101207733154 0.061788998544216156 -0.0358939990401268
v -0.2907490134239197 0.13806499540805817 0
v -0.31769001483917236 0.055403999984264374 0
v -0.31769001483917236 0.055403999984264374 0
v -0.30594301223754883 -0.027199000120162964 0
v -0.35301101207733154 0.061788998544216156 -0.0358939990401268
v -0.334850013256073 -0.04847700148820877 -0.0358939990401268
v -0.35301101207733154 0.061788998544216156 -0.0358939990401268
v -0.30594301223754883 -0.027199000120162964 0
v -0.334850013256073 -0.04847700148820877 -0.0358939990401268
v -0.30594301223754883 -0.027199000120162964 0
v -0.24510399997234344 -0.09500599652528763 0
v -0.26479798555374146 -0.1250150054693222 -0.0358939990401268
v -0.334850013256073 -0.04847700148820877 -0.0358939990401268
v -0.24510399997234344 -0.09500599652528763 0
v -0.26479798555374146 -0.1250150054693222 -0.0358939990401268
v -0.24510399997234344 -0.09500599652528763 0
v -0.15900099277496338 -0.1561889946460724 0
v -0.16293199360370636 -0.19186800718307495 -0.0358939990401268
v -0.26479798555374146 -0.1250150054693222 -0.0358939990401268
v -0.15900099277496338 -0.1561889946460724 0
v -0.23236699402332306 0.16037599742412567 0
v -0.15695799887180328 0.16037599742412567 0
v -0.15695799887180328 0.19627000391483307 0.0358939990401268
v -0.23236699402332306 0.16037599742412567 0
v -0.15695799887180328 0.19627000391483307 0.0358939990401268
v -0.23236699402332306 0.19627000391483307 0.0358939990401268
v -0.23236699402332306 0.19627000391483307 0.0358939990401268
v -0.3089050054550171 0.16902799904346466 0.0358939990401268
v -0.23236699402332306 0.16037599742412567 0
v -0.23236699402332306 0.16037599742412567 0
v -0.3089050054550171 0.16902799904346466 0.0358939990401268
v -0.2907490134239197 0.13806499540805817 0
v -0.3089050054550171 0.16902799904346466 0.0358939990401268
v -0.35301101207733154 0.061788998544216156 0.0358939990401268
v -0.2907490134239197 0.13806499540805817 0
v -0.31769001483917236 0.055403999984264374 0
v -0.2907490134239197 0.13806499540805817 0
v -0.35301101207733154 0.061788998544216156 0.0358939990401268
v -0.35301101207733154 0.061788998544216156 0.0358939990401268
v -0.30594301223754883 -0.027199000120162964 0
v -0.31769001483917236 0.055403999984264374 0
v -0.30594301223754883 -0.027199000120162964 0
v -0.35301101207733154 0.061788998544216156 0.0358939990401268
v -0.334850013256073 -0.04847700148820877 0.0358939990401268
v -0.334850013256073 -0.04847700148820877 0.0358939990401268
v -0.24510399997234344 -0.09500599652528763 0
v -0.30594301223754883 -0.027199000120162964 0
v -0.24510399997234344 -0.09500599652528763 0
v -0.334850013256073 -0.04847700148820877 0.0358939990401268
v -0.26479798555374146 -0.1250150054693222 0.0358939990401268
v -0.26479798555374146 -0.1250150054693222 0.0358939990401268
v -0.15900099277496338 -0.1561889946460724 0
v -0.24510399997234344 -0.09500599652528763 0
v -0.15900099277496338 -0.1561889946460724 0
v -0.26479798555374146 -0.1250150054693222 0.0358939990401268
v -0.16293199360370636 -0.19186800718307495 0.0358939990401268
vt 0 0
vt 0 0
vt 0 0
vt 0 0
vt 0 0
vt 0 0
vt 0 0
vt 0 0
vt 0 0
vt 0 0
vt 0 0
vt 0 0
vt 0 0
vt 0 0
vt 0 0
vt 0 0
vt 0 0
vt 0 0
vt 0 0
vt 0 0
vt 0 0
vt 0 0
vt 0 0
vt 0 0
vt 0 0
vt 0 0
vt 0 0
vt 0 0
vt 0 0
vt 0 0
vt 0 0
vt 0 0
vt 0 0
vt 0 0
vt 0 0
vt 0 0
vt 0 0
vt 0 0
vt 0 0
vt 0 0
vt 0 0
vt 0 0
vt 0 0
vt 0 0
vt 0 0
vt 0 0
vt 0 0
vt 0 0
vt 0 0
vt 0 0
vt 0 0
vt 0 0
vt 0 0
vt 0 0
vt 0 0
vt 0 0
vt 0 0
vt 0 0
vt 0 0
vt 0 0
vt 0 0
vt 0 0
vt 0 0
vt 0 0
vt 0 0
vt 0 0
vt 0 0
vt 0 0
vt 0 0
vt 0 0
vt 0 0
vt 0 0
vt 0 0
vt 0 0
vt 0 0
vt 0 0
vt 0 0
vt 0 0
vt 0 0
vt 0 0
vt 0 0
vt 0 0
vt 0 0
vt 0 0
vt 0 0
vt 0 0
vt 0 0
vt 0 0
vt 0 0
vt 0 0
vt 0 0
vt 0 0
vt 0 0
vt 0 0
vt 0 0
vt 0 0
vt 0 0
vt 0 0
vt 0 0
vt 0 0
vt 0 0
vt 0 0
vt 0 0
vt 0 0
vt 0 0
vt 0 0
vt 0 0
vt 0 0
vt 0 0
vt 0 0
vt 0 0
vt 0 0
vt 0 0
vt 0 0
vt 0 0
vt 0 0
vt 0 0
vt 0 0
vt 0 0
vt 0 0
vt 0 0
vt 0 0
vt 0 0
vt 0 0
vt 0 0
vt 0 0
vt 0 0
vt 0 0
vt 0 0
vt 0 0
vt 0 0
vt 0 0
vt 0 0
vt 0 0
vt 0 0
vt 0 0
vt 0 0
vt 0 0
vt 0 0
vt 0 0
vt 0 0
vt 0 0
vt 0 0
vt 0 0
vt 0 0
vt 0 0
vt 0 0
vt 0 0
vt 0 0
vt 0 0
vt 0 0
vt 0 0
vt 0 0
vt 0 0
vt 0 0
vt 0 0
vt 0 0
vt 0 0
vt 0 0
vt 0 0
vt 0 0
vt 0 0
vt 0 0
vt 0 0
vt 0 0
vt 0 0
vt 0 0
vt 0 0
vt 0 0
vt 0 0
vt 0 0
vt 0 0
vt 0 0
vt 0 0
vt 0 0
vt 0 0
vt 0 0
vt 0 0
vt 0 0
vt 0 0
vt 0 0
vt 0 0
vt 0 0
vt 0 0
vt 0 0
vt 0 0
vt 0 0
vt 0 0
vt 0 0
vt 0 0
vt 0 0
vt 0 0
vt 0 0
vt 0 0
vt 0 0
vt 0 0
vt 0 0
vt 0 0
vt 0 0
vt 0 0
vt 0 0
vt 0 0
vt 0 0
vt 0 0
vt 0 0
vt 0 0
vt 0 0
vt 0 0
vt 0 0
vt 0 0
vt 0 0
vt 0 0
vt 0 0
vt 0 0
vt 0 0
vt 0 0
vt 0 0
vt 0 0
vt 0 0
vt 0 0
vt 0 0
vt 0 0
vt 0 0
vt 0 0
vt 0 0
vt 0 0
vt 0 0
vt 0 0
vt 0 0
vt 0 0
vt 0 0
vt 0 0
vt 0 0
vt 0 0
vt 0 0
vt 0 0
vt 0 0
vt 0 0
vt 0 0
vt 0 0
vt 0 0
vt 0 0
vt 0 0
vt 0 0
vt 0 0
vt 0 0
vt 0 0
vt 0 0
vt 0 0
vt 0 0
vt 0 0
vt 0 0
vt 0 0
vt 0 0
vt 0 0
vt 0 0
vt 0 0
vt 0 0
vt 0 0
vt 0 0
vt 0 0
vt 0 0
vt 0 0
vt 0 0
vt 0 0
vt 0 0
vt 0 0
vt 0 0
vt 0 0
vt 0 0
vt 0 0
vt 0 0
vt 0 0
vt 0 0
vt 0 0
vt 0 0
vt 0 0
vt 0 0
vt 0 0
vt 0 0
vt 0 0
vt 0 0
vt 0 0
vt 0 0
vt 0 0
vt 0 0
vt 0 0
vt 0 0
vt 0 0
vt 0 0
vt 0 0
vt 0 0
vt 0 0
vt 0 0
vt 0 0
vt 0 0
vt 0 0
vt 0 0
vt 0 0
vt 0 0
vt 0 0
vt 0 0
vt 0 0
vt 0 0
vt 0 0
vt 0 0
vt 0 0
vt 0 0
vt 0 0
vt 0 0
vt 0 0
vt 0 0
vt 0 0
vt 0 0
vt 0 0
vt 0 0
vt 0 0
vt 0 0
vt 0 0
vt 0 0
vt 0 0
vt 0 0
vt 0 0
vt 0 0
vt 0 0
vt 0 0
vt 0 0
vt 0 0
vt 0 0
vt 0 0
vt 0 0
vt 0 0
vt 0 0
vt 0 0
vt 0 0
vt 0 0
vt 0 0
vt 0 0
vt 0 0
vt 0 0
vt 0 0
vt 0 0
vt 0 0
vt 0 0
vt 0 0
vt 0 0
vt 0 0
vt 0 0
vt 0 0
vt 0 0
vt 0 0
vt 0 0
vt 0 0
vt 0 0
vt 0 0
vt 0 0
vt 0 0
vt 0 0
vt 0 0
vt 0 0
vt 0 0
vt 0 0
vt 0 0
vt 0 0
vt 0 0
vt 0 0
vn 0 -1 0
vn 0 -1 0
vn 0 -1 0
vn 0 -1 0
vn 0 -1 0
vn 0 -1 0
vn 0 -1 0
vn 0 -1 0
vn 0 -1 0
vn 0 -1 0
vn 0 -1 0
vn 0 -1 0
vn 0 -1 0
vn 0 -1 0
vn 0 -1 0
vn 0 -1 0
vn 0 -1 0
vn 0 -1 0
vn 1 0 0
vn 0.7071067811865476 0 0.7071067811865476
vn 1 0 0
vn 0.7071067811865476 0 -0.7071067811865476
vn 1 0 0
vn 1 0 0
vn 1 0 0
vn 0.7071067811865476 0 0.7071067811865476
vn 0.7071067811865476 0 0.7071067811865476
vn 0.7071067811865476 0 -0.7071067811865476
vn 0.7071067811865476 0 -0.7071067811865476
vn 1 0 0
vn 0 0 1
vn 0.7071067811865476 0 0.7071067811865476
vn 0.7071067811865476 0 0.7071067811865476
vn 0 0 -1
vn 0.7071067811865476 0 -0.7071067811865476
vn 0.7071067811865476 0 -0.7071067811865476
vn 0 0 1
vn 0.7071067811865476 0 0.7071067811865476
vn 0 0 1
vn 0.7071067811865476 0 -0.7071067811865476
vn 0 0 -1
vn 0 0 -1
vn -0.7071067811865476 0 0.7071067811865476
vn 0 0 1
vn 0 0 1
vn -0.7071067811865476 0 -0.7071067811865476
vn 0 0 -1
vn 0 0 -1
vn -0.7071067811865476 0 0.7071067811865476
vn 0 0 1
vn -0.7071067811865476 0 0.7071067811865476
vn 0 0 -1
vn -0.7071067811865476 0 -0.7071067811865476
vn -0.7071067811865476 0 -0.7071067811865476
vn -0.7071067811865476 0 0.7071067811865476
vn -1 0 0
vn -0.7071067811865476 0 0.7071067811865476
vn -0.7071067811865476 0 -0.7071067811865476
vn -1 0 0
vn -0.7071067811865476 0 -0.7071067811865476
vn -1 0 0
vn -0.7071067811865476 0 0.7071067811865476
vn -1 0 0
vn -1 0 0
vn -0.7071067811865476 0 -0.7071067811865476
vn -1 0 0
vn 0 1 0
vn 0 1 0
vn 0 1 0
vn 0 1 0
vn 0 1 0
vn 0 1 0
vn 0 1 0
vn 0 1 0
vn 0 1 0
vn 0 1 0
vn 0 1 0
vn 0 1 0
vn 0 1 0
vn 0 1 0
vn 0 1 0
vn 0 1 0
vn 0 1 0
vn 0 1 0
vn 0 1 0
vn 0 1 0
vn 0 1 0
vn 0 1 0
vn 0 1 0
vn 0 1 0
vn 0 1 0
vn 0 1 0
vn 0 1 0
vn 0 1 0
vn 0 1 0
vn 0 1 0
vn 0 1 0
vn 0 1 0
vn 0 1 0
vn 0 1 0
vn 0 1 0
vn 0 1 0
vn 0 1 0
vn 0 1 0
vn 0 1 0
vn 0 1 0
vn 0 1 0
vn 0 1 0
vn 0 1 0
vn 0 1 0
vn 0 1 0
vn 0 1 0
vn 0 1 0
vn 0 1 0
vn -0.11130100027781344 0.6996060192396332 -0.7058069886171658
vn 0 0.7071067811865476 -0.7071067811865476
vn 0 0.7071067811865476 -0.7071067811865476
vn -0.11130100027781344 0.6996060192396332 -0.7058069886171658
vn 0 0.7071067811865476 -0.7071067811865476
vn -0.12639603437068764 0.6979771941077092 -0.7048772084561207
vn -0.12639603437068764 0.6979771941077092 -0.7048772084561207
vn -0.4729818763867519 0.5199798891455865 -0.7112728446199891
vn -0.11130100027781344 0.6996060192396332 -0.7058069886171658
vn -0.4729818763867519 0.5199798891455865 -0.7112728446199891
vn -0.12639603437068764 0.6979771941077092 -0.7048772084561207
vn -0.4973900134092853 0.4990899975218771 -0.7095860405435859
vn -0.4973900134092853 0.4990899975218771 -0.7095860405435859
vn -0.7213026612979102 0.0910999588170935 -0.6866027004812
vn -0.4729818763867519 0.5199798891455865 -0.7112728446199891
vn -0.7213026612979102 0.0910999588170935 -0.6866027004812
vn -0.4973900134092853 0.4990899975218771 -0.7095860405435859
vn -0.7218122380139118 0.08610103021222765 -0.6867122437016402
vn -0.6440292003003453 -0.30231409728468167 -0.7027322219333947
vn -0.7213026612979102 0.0910999588170935 -0.6866027004812
vn -0.7218122380139118 0.08610103021222765 -0.6867122437016402
vn -0.7213026612979102 0.0910999588170935 -0.6866027004812
vn -0.6440292003003453 -0.30231409728468167 -0.7027322219333947
vn -0.6363828129055197 -0.315990922813628 -0.7036807885240653
vn -0.6363828129055197 -0.315990922813628 -0.7036807885240653
vn -0.6440292003003453 -0.30231409728468167 -0.7027322219333947
vn -0.45971801314041344 -0.5495220115643489 -0.6976280579223444
vn -0.4591980740838526 -0.549997063156105 -0.6975961290584545
vn -0.6363828129055197 -0.315990922813628 -0.7036807885240653
vn -0.45971801314041344 -0.5495220115643489 -0.6976280579223444
vn -0.3888930868025271 -0.6123901054715315 -0.6882881124629197
vn -0.4591980740838526 -0.549997063156105 -0.6975961290584545
vn -0.45971801314041344 -0.5495220115643489 -0.6976280579223444
vn -0.3888930868025271 -0.6123901054715315 -0.6882881124629197
vn -0.4591980740838526 -0.549997063156105 -0.6975961290584545
vn -0.3888930868025271 -0.6123901054715315 -0.6882881124629197
vn 0 0.7071067811865476 0.7071067811865476
vn -0.11130100027781344 0.6996060192396332 0.7058069886171658
vn 0 0.7071067811865476 0.7071067811865476
vn -0.12639603437068764 0.6979771941077092 0.7048772084561207
vn 0 0.7071067811865476 0.7071067811865476
vn -0.11130100027781344 0.6996060192396332 0.7058069886171658
vn -0.11130100027781344 0.6996060192396332 0.7058069886171658
vn -0.4729818763867519 0.5199798891455865 0.7112728446199891
vn -0.12639603437068764 0.6979771941077092 0.7048772084561207
vn -0.12639603437068764 0.6979771941077092 0.7048772084561207
vn -0.4729818763867519 0.5199798891455865 0.7112728446199891
vn -0.4973900134092853 0.4990899975218771 0.7095860405435859
vn -0.4729818763867519 0.5199798891455865 0.7112728446199891
vn -0.7213026612979102 0.0910999588170935 0.6866027004812
vn -0.4973900134092853 0.4990899975218771 0.7095860405435859
vn -0.4973900134092853 0.4990899975218771 0.7095860405435859
vn -0.7213026612979102 0.0910999588170935 0.6866027004812
vn -0.7218122380139118 0.08610103021222765 0.6867122437016402
vn -0.7213026612979102 0.0910999588170935 0.6866027004812
vn -0.6440292003003453 -0.30231409728468167 0.7027322219333947
vn -0.7218122380139118 0.08610103021222765 0.6867122437016402
vn -0.6440292003003453 -0.30231409728468167 0.7027322219333947
vn -0.7213026612979102 0.0910999588170935 0.6866027004812
vn -0.6363828129055197 -0.315990922813628 0.7036807885240653
vn -0.6363828129055197 -0.315990922813628 0.7036807885240653
vn -0.45971801314041344 -0.5495220115643489 0.6976280579223444
vn -0.6440292003003453 -0.30231409728468167 0.7027322219333947
vn -0.45971801314041344 -0.5495220115643489 0.6976280579223444
vn -0.6363828129055197 -0.315990922813628 0.7036807885240653
vn -0.4591980740838526 -0.549997063156105 0.6975961290584545
vn -0.4591980740838526 -0.549997063156105 0.6975961290584545
vn -0.3888930868025271 -0.6123901054715315 0.6882881124629197
vn -0.45971801314041344 -0.5495220115643489 0.6976280579223444
vn -0.3888930868025271 -0.6123901054715315 0.6882881124629197
vn -0.4591980740838526 -0.549997063156105 0.6975961290584545
vn -0.3888930868025271 -0.6123901054715315 0.6882881124629197
vn -0.7071067811865476 0 -0.7071067811865476
vn -0.7071067811865476 0 -0.7071067811865476
vn -1 0 0
vn 0 0 -1
vn -0.7071067811865476 0 -0.7071067811865476
vn -0.7071067811865476 0 -0.7071067811865476
vn -0.7071067811865476 0 -0.7071067811865476
vn -1 0 0
vn -1 0 0
vn -0.7071067811865476 0 -0.7071067811865476
vn 0 0 -1
vn 0 0 -1
vn -1 0 0
vn -1 0 0
vn -0.7071067811865476 0 0.7071067811865476
vn 0.7071067811865476 0 -0.7071067811865476
vn 0 0 -1
vn 0 0 -1
vn -1 0 0
vn -0.7071067811865476 0 0.7071067811865476
vn -0.7071067811865476 0 0.7071067811865476
vn 0 0 -1
vn 0.7071067811865476 0 -0.7071067811865476
vn 0.7071067811865476 0 -0.7071067811865476
vn -0.7071067811865476 0 0.7071067811865476
vn 0 0 1
vn -0.7071067811865476 0 0.7071067811865476
vn 0.7071067811865476 0 -0.7071067811865476
vn 1 0 0
vn 0.7071067811865476 0 -0.7071067811865476
vn 0 0 1
vn 0 0 1
vn -0.7071067811865476 0 0.7071067811865476
vn 0.7071067811865476 0 -0.7071067811865476
vn 1 0 0
vn 1 0 0
vn 0 0 1
vn 0.7071067811865476 0 0.7071067811865476
vn 0 0 1
vn 1 0 0
vn 0.7071067811865476 0 0.7071067811865476
vn 1 0 0
vn 0.7071067811865476 0 0.7071067811865476
vn 0.7071067811865476 0 0.7071067811865476
vn 0 0 1
vn 1 0 0
vn 0.7071067811865476 0 0.7071067811865476
vn 0.7071067811865476 0 0.7071067811865476
vn 0.7071067811865476 0 0.7071067811865476
vn 0.7071067811865476 0 0.7071067811865476
vn 1 0 0
vn 0.7071067811865476 0 0.7071067811865476
vn 1 0 0
vn 1 0 0
vn 0.7071067811865476 0 0.7071067811865476
vn 0 0 1
vn 0.7071067811865476 0 0.7071067811865476
vn 1 0 0
vn 1 0 0
vn 0.7071067811865476 0 -0.7071067811865476
vn 0.7071067811865476 0 0.7071067811865476
vn 0 0 1
vn 0 0 1
vn 1 0 0
vn 0.7071067811865476 0 -0.7071067811865476
vn 0.7071067811865476 0 -0.7071067811865476
vn 0 0 1
vn -0.7071067811865476 0 0.7071067811865476
vn 0 0 1
vn 0.7071067811865476 0 -0.7071067811865476
vn 0 0 -1
vn 0.7071067811865476 0 -0.7071067811865476
vn 0 0 1
vn -0.7071067811865476 0 0.7071067811865476
vn -0.7071067811865476 0 0.7071067811865476
vn 0 0 -1
vn 0 0 -1
vn 0.7071067811865476 0 -0.7071067811865476
vn -0.7071067811865476 0 0.7071067811865476
vn -1 0 0
vn -0.7071067811865476 0 0.7071067811865476
vn 0 0 -1
vn -0.7071067811865476 0 -0.7071067811865476
vn 0 0 -1
vn -1 0 0
vn -0.7071067811865476 0 0.7071067811865476
vn -1 0 0
vn -0.7071067811865476 0 -0.7071067811865476
vn -0.7071067811865476 0 -0.7071067811865476
vn 0 0 -1
vn -1 0 0
vn -0.7071067811865476 0 -0.7071067811865476
vn -1 0 0
vn -0.7071067811865476 0 -0.7071067811865476
vn -1 0 0
vn -0.7071067811865476 0 -0.7071067811865476
vn 0.9939869072620657 -0.10949898717154243 0
vn 0.9939869072620657 -0.10949898717154243 0
vn 0.9939869072620657 -0.10949898717154243 0
vn 0.9939869072620657 -0.10949898717154243 0
vn 0.9939869072620657 -0.10949898717154243 0
vn 0.9939869072620657 -0.10949898717154243 0
vn 1 0 0
vn 1 0 0
vn 1 0 0
vn 1 0 0
vn 1 0 0
vn 1 0 0
vn 0.48869215026899765 -0.5040921479239062 -0.7120892420665588
vn 0.13360091382210706 -0.6963036004703419 -0.7052035818102008
vn 0.521162901860221 -0.4742659153856122 -0.7095499074963516
vn 0.13360091382210706 -0.6963036004703419 -0.7052035818102008
vn 0.48869215026899765 -0.5040921479239062 -0.7120892420665588
vn 0.11690000977689298 -0.6983980703990305 -0.7060980972762023
vn 0 -0.7071067811865476 -0.7071067811865476
vn 0.13360091382210706 -0.6963036004703419 -0.7052035818102008
vn 0.11690000977689298 -0.6983980703990305 -0.7060980972762023
vn 0.13360091382210706 -0.6963036004703419 -0.7052035818102008
vn 0 -0.7071067811865476 -0.7071067811865476
vn 0 -0.7071067811865476 -0.7071067811865476
vn 0.521162901860221 -0.4742659153856122 -0.7095499074963516
vn 0.7288152734146153 -0.0792020239600609 -0.6801142085254575
vn 0.48869215026899765 -0.5040921479239062 -0.7120892420665588
vn 0.7288152734146153 -0.0792020239600609 -0.6801142085254575
vn 0.521162901860221 -0.4742659153856122 -0.7095499074963516
vn 0.7294016586415252 -0.07089996689939153 -0.680401657158959
vn 0.7294016586415252 -0.07089996689939153 -0.680401657158959
vn 0.6484379740881401 0.292717008541833 -0.7027410238991239
vn 0.7288152734146153 -0.0792020239600609 -0.6801142085254575
vn 0.6396058201945535 0.30890292234726685 -0.7039058028874112
vn 0.7288152734146153 -0.0792020239600609 -0.6801142085254575
vn 0.6484379740881401 0.292717008541833 -0.7027410238991239
vn 0.6396058201945535 0.30890292234726685 -0.7039058028874112
vn 0.6484379740881401 0.292717008541833 -0.7027410238991239
vn 0.47248985218358475 0.5410878012800917 -0.6956847927685428
vn 0.4710059101725391 0.5426068990131823 -0.6955078617282742
vn 0.6396058201945535 0.30890292234726685 -0.7039058028874112
vn 0.47248985218358475 0.5410878012800917 -0.6956847927685428
vn 0.4710059101725391 0.5426068990131823 -0.6955078617282742
vn 0.47248985218358475 0.5410878012800917 -0.6956847927685428
vn 0.40990587864367617 0.6017088302239356 -0.6855097769426041
vn 0.40990587864367617 0.6017088302239356 -0.6855097769426041
vn 0.4710059101725391 0.5426068990131823 -0.6955078617282742
vn 0.40990587864367617 0.6017088302239356 -0.6855097769426041
vn 0.13360091382210706 -0.6963036004703419 0.7052035818102008
vn 0 -0.7071067811865476 0.7071067811865476
vn 0 -0.7071067811865476 0.7071067811865476
vn 0.13360091382210706 -0.6963036004703419 0.7052035818102008
vn 0 -0.7071067811865476 0.7071067811865476
vn 0.11690000977689298 -0.6983980703990305 0.7060980972762023
vn 0.11690000977689298 -0.6983980703990305 0.7060980972762023
vn 0.48869215026899765 -0.5040921479239062 0.7120892420665588
vn 0.13360091382210706 -0.6963036004703419 0.7052035818102008
vn 0.13360091382210706 -0.6963036004703419 0.7052035818102008
vn 0.48869215026899765 -0.5040921479239062 0.7120892420665588
vn 0.521162901860221 -0.4742659153856122 0.7095499074963516
vn 0.48869215026899765 -0.5040921479239062 0.7120892420665588
vn 0.7288152734146153 -0.0792020239600609 0.6801142085254575
vn 0.521162901860221 -0.4742659153856122 0.7095499074963516
vn 0.7294016586415252 -0.07089996689939153 0.680401657158959
vn 0.521162901860221 -0.4742659153856122 0.7095499074963516
vn 0.7288152734146153 -0.0792020239600609 0.6801142085254575
vn 0.7288152734146153 -0.0792020239600609 0.6801142085254575
vn 0.6484379740881401 0.292717008541833 0.7027410238991239
vn 0.7294016586415252 -0.07089996689939153 0.680401657158959
vn 0.6484379740881401 0.292717008541833 0.7027410238991239
vn 0.7288152734146153 -0.0792020239600609 0.6801142085254575
vn 0.6396058201945535 0.30890292234726685 0.7039058028874112
vn 0.6396058201945535 0.30890292234726685 0.7039058028874112
vn 0.47248985218358475 0.5410878012800917 0.6956847927685428
vn 0.6484379740881401 0.292717008541833 0.7027410238991239
vn 0.47248985218358475 0.5410878012800917 0.6956847927685428
vn 0.6396058201945535 0.30890292234726685 0.7039058028874112
vn 0.4710059101725391 0.5426068990131823 0.6955078617282742
vn 0.4710059101725391 0.5426068990131823 0.6955078617282742
vn 0.40990587864367617 0.6017088302239356 0.6855097769426041
vn 0.47248985218358475 0.5410878012800917 0.6956847927685428
vn 0.40990587864367617 0.6017088302239356 0.6855097769426041
vn 0.4710059101725391 0.5426068990131823 0.6955078617282742
vn 0.40990587864367617 0.6017088302239356 0.6855097769426041
f 1/1/1 2/2/2 3/3/3
f 4/4/4 5/5/5 6/6/6
f 7/7/7 8/8/8 9/9/9
f 10/10/10 11/11/11 12/12/12
f 13/13/13 14/14/14 15/15/15
f 16/16/16 17/17/17 18/18/18
f 19/19/19 20/20/20 21/21/21
f 22/22/22 23/23/23 24/24/24
f 25/25/25 26/26/26 27/27/27
f 28/28/28 29/29/29 30/30/30
f 31/31/31 32/32/32 33/33/33
f 34/34/34 35/35/35 36/36/36
f 37/37/37 38/38/38 39/39/39
f 40/40/40 41/41/41 42/42/42
f 43/43/43 44/44/44 45/45/45
f 46/46/46 47/47/47 48/48/48
f 49/49/49 50/50/50 51/51/51
f 52/52/52 53/53/53 54/54/54
f 55/55/55 56/56/56 57/57/57
f 58/58/58 59/59/59 60/60/60
f 61/61/61 62/62/62 63/63/63
f 64/64/64 65/65/65 66/66/66
f 67/67/67 68/68/68 69/69/69
f 70/70/70 71/71/71 72/72/72
f 73/73/73 74/74/74 75/75/75
f 76/76/76 77/77/77 78/78/78
f 79/79/79 80/80/80 81/81/81
f 82/82/82 83/83/83 84/84/84
f 85/85/85 86/86/86 87/87/87
f 88/88/88 89/89/89 90/90/90
f 91/91/91 92/92/92 93/93/93
f 94/94/94 95/95/95 96/96/96
f 97/97/97 98/98/98 99/99/99
f 100/100/100 101/101/101 102/102/102
f 103/103/103 104/104/104 105/105/105
f 106/106/106 107/107/107 108/108/108
f 109/109/109 110/110/110 111/111/111
f 112/112/112 113/113/113 114/114/114
f 115/115/115 116/116/116 117/117/117
f 118/118/118 119/119/119 120/120/120
f 121/121/121 122/122/122 123/123/123
f 124/124/124 125/125/125 126/126/126
f 127/127/127 128/128/128 129/129/129
f 130/130/130 131/131/131 132/132/132
f 133/133/133 134/134/134 135/135/135
f 136/136/136 137/137/137 138/138/138
f 139/139/139 140/140/140 141/141/141
f 142/142/142 143/143/143 144/144/144
f 145/145/145 146/146/146 147/147/147
f 148/148/148 149/149/149 150/150/150
f 151/151/151 152/152/152 153/153/153
f 154/154/154 155/155/155 156/156/156
f 157/157/157 158/158/158 159/159/159
f 160/160/160 161/161/161 162/162/162
f 163/163/163 164/164/164 165/165/165
f 166/166/166 167/167/167 168/168/168
f 169/169/169 170/170/170 171/171/171
f 172/172/172 173/173/173 174/174/174
f 175/175/175 176/176/176 177/177/177
f 178/178/178 179/179/179 180/180/180
f 181/181/181 182/182/182 183/183/183
f 184/184/184 185/185/185 186/186/186
f 187/187/187 188/188/188 189/189/189
f 190/190/190 191/191/191 192/192/192
f 193/193/193 194/194/194 195/195/195
f 196/196/196 197/197/197 198/198/198
f 199/199/199 200/200/200 201/201/201
f 202/202/202 203/203/203 204/204/204
f 205/205/205 206/206/206 207/207/207
f 208/208/208 209/209/209 210/210/210
f 211/211/211 212/212/212 213/213/213
f 214/214/214 215/215/215 216/216/216
f 217/217/217 218/218/218 219/219/219
f 220/220/220 221/221/221 222/222/222
f 223/223/223 224/224/224 225/225/225
f 226/226/226 227/227/227 228/228/228
f 229/229/229 230/230/230 231/231/231
f 232/232/232 233/233/233 234/234/234
f 235/235/235 236/236/236 237/237/237
f 238/238/238 239/239/239 240/240/240
f 241/241/241 242/242/242 243/243/243
f 244/244/244 245/245/245 246/246/246
f 247/247/247 248/248/248 249/249/249
f 250/250/250 251/251/251 252/252/252
f 253/253/253 254/254/254 255/255/255
f 256/256/256 257/257/257 258/258/258
f 259/259/259 260/260/260 261/261/261
f 262/262/262 263/263/263 264/264/264
f 265/265/265 266/266/266 267/267/267
f 268/268/268 269/269/269 270/270/270
f 271/271/271 272/272/272 273/273/273
f 274/274/274 275/275/275 276/276/276
f 277/277/277 278/278/278 279/279/279
f 280/280/280 281/281/281 282/282/282
f 283/283/283 284/284/284 285/285/285
f 286/286/286 287/287/287 288/288/288
f 289/289/289 290/290/290 291/291/291
f 292/292/292 293/293/293 294/294/294
f 295/295/295 296/296/296 297/297/297
f 298/298/298 299/299/299 300/300/300
f 301/301/301 302/302/302 303/303/303
f 304/304/304 305/305/305 306/306/306
f 307/307/307 308/308/308 309/309/309
f 310/310/310 311/311/311 312/312/312
f 313/313/313 314/314/314 315/315/315
f 316/316/316 317/317/317 318/318/318
f 319/319/319 320/320/320 321/321/321
f 322/322/322 323/323/323 324/324/324
f 325/325/325 326/326/326 327/327/327
f 328/328/328 329/329/329 330/330/330
f 331/331/331 332/332/332 333/333/333
f 334/334/334 335/335/335 336/336/336
f 337/337/337 338/338/338 339/339/339
f 340/340/340 341/341/341 342/342/342
f 343/343/343 344/344/344 345/345/345
f 346/346/346 347/347/347 348/348/348
f 349/349/349 350/350/350 351/351/351
f 352/352/352 353/353/353 354/354/354
f 355/355/355 356/356/356 357/357/357
f 358/358/358 359/359/359 360/360/360
f 361/361/361 362/362/362 363/363/363
f 364/364/364 365/365/365 366/366/366
