o Meshpart2
usemtl Meshpart2Mtl
v -0.08707297130033137 1.40026704475012 -0.020625247746929948
v -0.13456872287635382 -1.442466249697992 -0.09969862365537185
v -0.08707297130033137 -1.442466249697992 -0.020625247746929948
v -0.13456872287635382 -1.442466249697992 -0.09969862365537185
v -0.08707297130033137 1.40026704475012 -0.020625247746929948
v -0.13456872287635382 1.4359712323841287 -0.09969862365537185
v -0.13456872287635382 -1.442466249697992 -0.09969862365537185
v -0.13456872287635382 1.4359712323841287 -0.09969862365537185
v -0.13456872287635382 1.40026704475012 -0.19744087691949214
v -0.13456872287635382 -1.442466249697992 -0.09969862365537185
v -0.13456872287635382 1.40026704475012 -0.19744087691949214
v -0.13456872287635382 -1.442466249697992 -0.19744087691949214
v -0.13456872287635382 1.40026704475012 -0.19744087691949214
v -0.08707297130033137 -1.442466249697992 -0.2765143048526043
v -0.13456872287635382 -1.442466249697992 -0.19744087691949214
v -0.08707297130033137 -1.442466249697992 -0.2765143048526043
v -0.13456872287635382 1.40026704475012 -0.19744087691949214
v -0.08707297130033137 1.4567789071129884 -0.2765143048526043
v 0.06663104376899495 -1.442466249697992 -0.2765143048526043
v -0.010220740647343352 1.40026704475012 -0.30671855382725094
v 0.06663104376899495 1.4567789071129884 -0.2765143048526043
v -0.010220740647343352 1.40026704475012 -0.30671855382725094
v 0.06663104376899495 -1.442466249697992 -0.2765143048526043
v -0.010220740647343352 -1.442466249697992 -0.30671855382725094
v -0.010220740647343352 1.40026704475012 -0.30671855382725094
v -0.010220740647343352 -1.442466249697992 -0.30671855382725094
v -0.08707297130033137 -1.442466249697992 -0.2765143048526043
v -0.08707297130033137 -1.442466249697992 -0.2765143048526043
v -0.08707297130033137 1.4567789071129884 -0.2765143048526043
v -0.010220740647343352 1.40026704475012 -0.30671855382725094
v 0.11412700552651167 1.40026704475012 -0.19744087691949214
v 0.11412700552651167 -1.442466249697992 -0.19744087691949214
v 0.06663104376899495 -1.442466249697992 -0.2765143048526043
v 0.06663104376899495 -1.442466249697992 -0.2765143048526043
v 0.06663104376899495 1.4567789071129884 -0.2765143048526043
v 0.11412700552651167 1.40026704475012 -0.19744087691949214
v 0.11412700552651167 1.40026704475012 -0.19744087691949214
v 0.11412700552651167 -1.442466249697992 -0.09969862365537185
v 0.11412700552651167 -1.442466249697992 -0.19744087691949214
v 0.11412700552651167 -1.442466249697992 -0.09969862365537185
v 0.11412700552651167 1.40026704475012 -0.19744087691949214
v 0.11412700552651167 1.4567789071129884 -0.09969862365537185
v 0.06663104376899495 1.40026704475012 -0.020625247746929948
v 0.06663104376899495 -1.442466249697992 -0.020625247746929948
v 0.11412700552651167 -1.442466249697992 -0.09969862365537185
v 0.11412700552651167 -1.442466249697992 -0.09969862365537185
v 0.11412700552651167 1.4567789071129884 -0.09969862365537185
v 0.06663104376899495 1.40026704475012 -0.020625247746929948
v 0.06663104376899495 1.40026704475012 -0.020625247746929948
v -0.010220740647343352 -1.442466249697992 0.009578838650621951
v 0.06663104376899495 -1.442466249697992 -0.020625247746929948
v -0.010220740647343352 -1.442466249697992 0.009578838650621951
v 0.06663104376899495 1.40026704475012 -0.020625247746929948
v -0.010220740647343352 1.4567789071129884 0.009578838650621951
v -0.010220740647343352 -1.442466249697992 0.009578838650621951
v -0.010220740647343352 1.4567789071129884 0.009578838650621951
v -0.08707297130033137 1.40026704475012 -0.020625247746929948
v -0.010220740647343352 -1.442466249697992 0.009578838650621951
v -0.08707297130033137 1.40026704475012 -0.020625247746929948
v -0.08707297130033137 -1.442466249697992 -0.020625247746929948
vt 60.00920104980469 -54.84479904174805
vt 60.003501892089844 -55.1614990234375
vt 60.00920104980469 -55.1614990234375
vt 60.003501892089844 -55.1614990234375
vt 60.00920104980469 -54.84479904174805
vt 60.003501892089844 -54.84080123901367
vt 60.003501892089844 -55.1614990234375
vt 60.003501892089844 -54.84080123901367
vt 59.996498107910156 -54.84479904174805
vt 60.003501892089844 -55.1614990234375
vt 59.996498107910156 -54.84479904174805
vt 59.996498107910156 -55.1614990234375
vt 59.996498107910156 -54.84479904174805
vt 59.99079895019531 -55.1614990234375
vt 59.996498107910156 -55.1614990234375
vt 59.99079895019531 -55.1614990234375
vt 59.996498107910156 -54.84479904174805
vt 59.99079895019531 -54.8385009765625
vt 59.99330139160156 -55.1614990234375
vt 60 -54.84479904174805
vt 59.99330139160156 -54.8385009765625
vt 60 -54.84479904174805
vt 59.99330139160156 -55.1614990234375
vt 60 -55.1614990234375
vt 60 -54.84479904174805
vt 60 -55.1614990234375
vt 60.00669860839844 -55.1614990234375
vt 60.00669860839844 -55.1614990234375
vt 60.00669860839844 -54.8385009765625
vt 60 -54.84479904174805
vt 60.003501892089844 -54.84479904174805
vt 60.003501892089844 -55.1614990234375
vt 60.00920104980469 -55.1614990234375
vt 60.00920104980469 -55.1614990234375
vt 60.00920104980469 -54.8385009765625
vt 60.003501892089844 -54.84479904174805
vt 60.003501892089844 -54.84479904174805
vt 59.996498107910156 -55.1614990234375
vt 60.003501892089844 -55.1614990234375
vt 59.996498107910156 -55.1614990234375
vt 60.003501892089844 -54.84479904174805
vt 59.996498107910156 -54.8385009765625
vt 59.99079895019531 -54.84479904174805
vt 59.99079895019531 -55.1614990234375
vt 59.996498107910156 -55.1614990234375
vt 59.996498107910156 -55.1614990234375
vt 59.996498107910156 -54.8385009765625
vt 59.99079895019531 -54.84479904174805
vt 60.00669860839844 -54.84479904174805
vt 60 -55.1614990234375
vt 60.00669860839844 -55.1614990234375
vt 60 -55.1614990234375
vt 60.00669860839844 -54.84479904174805
vt 60 -54.8385009765625
vt 60 -55.1614990234375
vt 60 -54.8385009765625
vt 59.99330139160156 -54.84479904174805
vt 60 -55.1614990234375
vt 59.99330139160156 -54.84479904174805
vt 59.99330139160156 -55.1614990234375
vn -0.6559414199316238 0 0.7548118001317183
vn -0.8567386726841923 0 0.5157507602779935
vn -0.6609478265830934 0 0.7504318560236399
vn -0.8567386726841923 0 0.5157507602779935
vn -0.6559414199316238 0 0.7548118001317183
vn -0.8567386726841923 0 0.5157507602779935
vn -1 0 0
vn -1 0 0
vn -0.9646229429816479 0 -0.26363341569957466
vn -1 0 0
vn -0.9646229429816479 0 -0.26363341569957466
vn -0.9662823496437637 0 -0.25748479715689504
vn -0.9646229429816479 0 -0.26363341569957466
vn -0.8567386726841923 0 -0.5157507602779935
vn -0.9662823496437637 0 -0.25748479715689504
vn -0.8567386726841923 0 -0.5157507602779935
vn -0.9646229429816479 0 -0.26363341569957466
vn -0.8567386726841923 0 -0.5157507602779935
vn 0.36323443635275593 0 -0.9316977751650456
vn 0 0 -1
vn 0.36323443635275593 0 -0.9316977751650456
vn 0 0 -1
vn 0.36323443635275593 0 -0.9316977751650456
vn 0 0 -1
vn 0 0 -1
vn 0 0 -1
vn -0.36323443635275593 0 -0.9316977751650456
vn -0.36323443635275593 0 -0.9316977751650456
vn -0.36323443635275593 0 -0.9316977751650456
vn 0 0 -1
vn 0.9662823496437637 0 -0.25748479715689504
vn 0.9662823496437637 0 -0.25748479715689504
vn 0.8567386726841923 0 -0.5157507602779935
vn 0.8567386726841923 0 -0.5157507602779935
vn 0.8567386726841923 0 -0.5157507602779935
vn 0.9662823496437637 0 -0.25748479715689504
vn 0.9662823496437637 0 -0.25748479715689504
vn 1 0 0
vn 0.9662823496437637 0 -0.25748479715689504
vn 1 0 0
vn 0.9662823496437637 0 -0.25748479715689504
vn 1 0 0
vn 0.6609478265830934 0 0.7504318560236399
vn 0.6609478265830934 0 0.7504318560236399
vn 0.8567386726841923 0 0.5157507602779935
vn 0.8567386726841923 0 0.5157507602779935
vn 0.8567386726841923 0 0.5157507602779935
vn 0.6609478265830934 0 0.7504318560236399
vn 0.6609478265830934 0 0.7504318560236399
vn 0.36323443635275593 0 0.9316977751650456
vn 0.6609478265830934 0 0.7504318560236399
vn 0.36323443635275593 0 0.9316977751650456
vn 0.6609478265830934 0 0.7504318560236399
vn 0.36323443635275593 0 0.9316977751650456
vn -0.36323443635275593 0 0.9316977751650456
vn -0.36323443635275593 0 0.9316977751650456
vn -0.6559414199316238 0 0.7548118001317183
vn -0.36323443635275593 0 0.9316977751650456
vn -0.6559414199316238 0 0.7548118001317183
vn -0.6609478265830934 0 0.7504318560236399
f 1/1/1 2/2/2 3/3/3
f 4/4/4 5/5/5 6/6/6
f 7/7/7 8/8/8 9/9/9
f 10/10/10 11/11/11 12/12/12
f 13/13/13 14/14/14 15/15/15
f 16/16/16 17/17/17 18/18/18
f 19/19/19 20/20/20 21/21/21
f 22/22/22 23/23/23 24/24/24
f 25/25/25 26/26/26 27/27/27
f 28/28/28 29/29/29 30/30/30
f 31/31/31 32/32/32 33/33/33
f 34/34/34 35/35/35 36/36/36
f 37/37/37 38/38/38 39/39/39
f 40/40/40 41/41/41 42/42/42
f 43/43/43 44/44/44 45/45/45
f 46/46/46 47/47/47 48/48/48
f 49/49/49 50/50/50 51/51/51
f 52/52/52 53/53/53 54/54/54
f 55/55/55 56/56/56 57/57/57
f 58/58/58 59/59/59 60/60/60
o Meshpart3
usemtl Meshpart3Mtl
v -0.03464289614211025 1.6675150487451127 -0.19225016096139966
v -0.046666199657831475 1.6815925355866002 -0.1628993604453967
v -0.009361751225676548 1.8039490121633088 -0.14823792718560116
v -0.046666199657831475 1.6815925355866002 -0.1628993604453967
v -0.051202189825844346 1.6675150487451127 -0.130605992552274
v -0.009361751225676548 1.8039490121633088 -0.14823792718560116
v -0.051202189825844346 1.6675150487451127 -0.130605992552274
v -0.0324174763355628 1.6815925355866002 -0.10985486394104253
v -0.009361751225676548 1.8039490121633088 -0.14823792718560116
v -0.009361751225676548 1.6815925355866002 -0.19568265116186515
v -0.03464289614211025 1.6675150487451127 -0.19225016096139966
v -0.009361751225676548 1.8039490121633088 -0.14823792718560116
v 0.01894348032608212 1.6675150487451127 -0.19225016096139966
v -0.009361751225676548 1.6815925355866002 -0.19568265116186515
v -0.009361751225676548 1.8039490121633088 -0.14823792718560116
v 0.027942127313889564 1.6815925355866002 -0.1628993604453967
v 0.01894348032608212 1.6675150487451127 -0.19225016096139966
v -0.009361751225676548 1.8039490121633088 -0.14823792718560116
v 0.027942127313889564 1.6815925355866002 -0.1335763167167724
v 0.027942127313889564 1.6815925355866002 -0.1628993604453967
v -0.009361751225676548 1.8039490121633088 -0.14823792718560116
v 0.013694264206849271 1.6815925355866002 -0.10985486394104253
v 0.027942127313889564 1.6815925355866002 -0.1335763167167724
v -0.009361751225676548 1.8039490121633088 -0.14823792718560116
v -0.0324174763355628 1.6815925355866002 -0.10985486394104253
v -0.007849127262734915 1.6675150487451127 -0.09250691369298708
v -0.009361751225676548 1.8039490121633088 -0.14823792718560116
v -0.007849127262734915 1.6675150487451127 -0.09250691369298708
v 0.013694264206849271 1.6815925355866002 -0.10985486394104253
v -0.009361751225676548 1.8039490121633088 -0.14823792718560116
vt 23.996599197387695 -43.007598876953125
vt 23.998699188232422 -43.00600051879883
vt 23.99970054626465 -42.992401123046875
vt 23.998699188232422 -43.00600051879883
vt 24.000999450683594 -43.007598876953125
vt 23.99970054626465 -42.992401123046875
vt 24.000999450683594 -43.007598876953125
vt 24.002500534057617 -43.00600051879883
vt 23.99970054626465 -42.992401123046875
vt 23.999799728393555 -43.00600051879883
vt 24.00200080871582 -43.007598876953125
vt 23.999799728393555 -42.992401123046875
vt 23.997400283813477 -43.007598876953125
vt 23.999799728393555 -43.00600051879883
vt 23.999799728393555 -42.992401123046875
vt 24.001300811767578 -43.00600051879883
vt 24.003400802612305 -43.007598876953125
vt 24.00029945373535 -42.992401123046875
vt 23.99920082092285 -43.00600051879883
vt 24.001300811767578 -43.00600051879883
vt 24.00029945373535 -42.992401123046875
vt 23.997499465942383 -43.00600051879883
vt 23.99920082092285 -43.00600051879883
vt 24.00029945373535 -42.992401123046875
vt 23.998199462890625 -43.00600051879883
vt 24.00029945373535 -43.007598876953125
vt 24.000200271606445 -42.992401123046875
vt 24.00029945373535 -43.007598876953125
vt 24.002199172973633 -43.00600051879883
vt 24.000200271606445 -42.992401123046875
vn -0.611824519682997 0.3436963820282408 -0.7124209107650951
vn -0.9173506127939984 0.31272005698971644 -0.24632096776933923
vn -0.012238884015759923 0.9999123033262054 -0.0050591871808980775
vn -0.9173506127939984 0.31272005698971644 -0.24632096776933923
vn -0.9158702144331169 0.3122153968812195 0.25239511933581293
vn -0.012238884015759923 0.9999123033262054 -0.0050591871808980775
vn -0.9158702144331169 0.3122153968812195 0.25239511933581293
vn -0.6307132271283907 0.3399434317217109 0.6975953614772374
vn -0.012238884015759923 0.9999123033262054 -0.0050591871808980775
vn -0.01830672964763129 0.3650799345210483 -0.9307961672996488
vn -0.611824519682997 0.3436963820282408 -0.7124209107650951
vn -0.012238884015759923 0.9999123033262054 -0.0050591871808980775
vn 0.6314096178914193 0.3512982078788743 -0.6913114085383686
vn -0.01830672964763129 0.3650799345210483 -0.9307961672996488
vn -0.012238884015759923 0.9999123033262054 -0.0050591871808980775
vn 0.9227745327395669 0.3119032054760854 -0.22628201904043752
vn 0.6314096178914193 0.3512982078788743 -0.6913114085383686
vn -0.012238884015759923 0.9999123033262054 -0.0050591871808980775
vn 0.9173506127939984 0.31272005698971644 0.24632096776933923
vn 0.9227745327395669 0.3119032054760854 -0.22628201904043752
vn -0.012238884015759923 0.9999123033262054 -0.0050591871808980775
vn 0.6389034237499529 0.33976636841718677 0.6901892711518954
vn 0.9173506127939984 0.31272005698971644 0.24632096776933923
vn -0.012238884015759923 0.9999123033262054 -0.0050591871808980775
vn -0.6307132271283907 0.3399434317217109 0.6975953614772374
vn 0.018227261074781703 0.3752222956410208 0.9267556289592171
vn -0.012238884015759923 0.9999123033262054 -0.0050591871808980775
vn 0.018227261074781703 0.3752222956410208 0.9267556289592171
vn 0.6389034237499529 0.33976636841718677 0.6901892711518954
vn -0.012238884015759923 0.9999123033262054 -0.0050591871808980775
f 61/61/61 62/62/62 63/63/63
f 64/64/64 65/65/65 66/66/66
f 67/67/67 68/68/68 69/69/69
f 70/70/70 71/71/71 72/72/72
f 73/73/73 74/74/74 75/75/75
f 76/76/76 77/77/77 78/78/78
f 79/79/79 80/80/80 81/81/81
f 82/82/82 83/83/83 84/84/84
f 85/85/85 86/86/86 87/87/87
f 88/88/88 89/89/89 90/90/90
o Meshpart5
usemtl Meshpart5Mtl
v -0.08707297130033137 1.400177319609105 -0.020625247746929948
v -0.03327617543459002 1.6815925355866002 -0.1101866963910563
v -0.13456872287635382 1.4358815072431137 -0.09969862365537185
v -0.13456872287635382 1.4358815072431137 -0.09969862365537185
v -0.03327617543459002 1.6815925355866002 -0.1101866963910563
v -0.05206088892487157 1.6675038163876683 -0.1309378254087305
v -0.13456872287635382 1.400177319609105 -0.19744087691949214
v -0.03550159524113747 1.6675038163876683 -0.19258183774384524
v -0.08707297130033137 1.4566891819719734 -0.2765143048526043
v -0.03550159524113747 1.6675038163876683 -0.19258183774384524
v -0.13456872287635382 1.400177319609105 -0.19744087691949214
v -0.047524909509549046 1.6815925355866002 -0.16323120955956266
v -0.13456872287635382 1.400177319609105 -0.19744087691949214
v -0.05206088892487157 1.6675038163876683 -0.1309378254087305
v -0.047524909509549046 1.6815925355866002 -0.16323120955956266
v -0.05206088892487157 1.6675038163876683 -0.1309378254087305
v -0.13456872287635382 1.400177319609105 -0.19744087691949214
v -0.13456872287635382 1.4358815072431137 -0.09969862365537185
v -0.010220740647343352 1.400177319609105 -0.30671855382725094
v -0.010220740647343352 1.6815925355866002 -0.19601449702448923
v 0.06663104376899495 1.4566891819719734 -0.2765143048526043
v 0.06663104376899495 1.4566891819719734 -0.2765143048526043
v -0.010220740647343352 1.6815925355866002 -0.19601449702448923
v 0.018084630689389924 1.6675038163876683 -0.19258183774384524
v -0.010220740647343352 1.6815925355866002 -0.19601449702448923
v -0.010220740647343352 1.400177319609105 -0.30671855382725094
v -0.03550159524113747 1.6675038163876683 -0.19258183774384524
v -0.03550159524113747 1.6675038163876683 -0.19258183774384524
v -0.010220740647343352 1.400177319609105 -0.30671855382725094
v -0.08707297130033137 1.4566891819719734 -0.2765143048526043
v 0.012835414570157078 1.6815925355866002 -0.1101866963910563
v 0.11412700552651167 1.4566891819719734 -0.09969862365537185
v 0.027083132515877587 1.6815925355866002 -0.13390816745670933
v 0.11412700552651167 1.400177319609105 -0.19744087691949214
v 0.027083132515877587 1.6815925355866002 -0.16323120955956266
v 0.11412700552651167 1.4566891819719734 -0.09969862365537185
v 0.027083132515877587 1.6815925355866002 -0.13390816745670933
v 0.11412700552651167 1.4566891819719734 -0.09969862365537185
v 0.027083132515877587 1.6815925355866002 -0.16323120955956266
v 0.027083132515877587 1.6815925355866002 -0.16323120955956266
v 0.11412700552651167 1.400177319609105 -0.19744087691949214
v 0.018084630689389924 1.6675038163876683 -0.19258183774384524
v 0.018084630689389924 1.6675038163876683 -0.19258183774384524
v 0.11412700552651167 1.400177319609105 -0.19744087691949214
v 0.06663104376899495 1.4566891819719734 -0.2765143048526043
v 0.11412700552651167 1.4566891819719734 -0.09969862365537185
v 0.012835414570157078 1.6815925355866002 -0.1101866963910563
v 0.06663104376899495 1.400177319609105 -0.020625247746929948
v -0.010220740647343352 1.4566891819719734 0.009578838650621951
v 0.06663104376899495 1.400177319609105 -0.020625247746929948
v 0.012835414570157078 1.6815925355866002 -0.1101866963910563
v -0.008707976899427108 1.6675038163876683 -0.09283876280715306
v -0.010220740647343352 1.4566891819719734 0.009578838650621951
v 0.012835414570157078 1.6815925355866002 -0.1101866963910563
v -0.010220740647343352 1.4566891819719734 0.009578838650621951
v -0.03327617543459002 1.6815925355866002 -0.1101866963910563
v -0.08707297130033137 1.400177319609105 -0.020625247746929948
v -0.03327617543459002 1.6815925355866002 -0.1101866963910563
v -0.010220740647343352 1.4566891819719734 0.009578838650621951
v -0.008707976899427108 1.6675038163876683 -0.09283876280715306
vt 6.009160041809082 -41.01570129394531
vt 6.002749919891357 -40.98429870605469
vt 6.003499984741211 -41.01169967651367
vt 6.003499984741211 -41.01169967651367
vt 6.002749919891357 -40.98429870605469
vt 6.001259803771973 -40.98590087890625
vt 5.996500015258789 -41.01570129394531
vt 5.99685001373291 -40.98590087890625
vt 5.990839958190918 -41.0093994140625
vt 5.99685001373291 -40.98590087890625
vt 5.996500015258789 -41.01570129394531
vt 5.998950004577637 -40.98429870605469
vt 5.996500015258789 -41.01570129394531
vt 6.001259803771973 -40.98590087890625
vt 5.998950004577637 -40.98429870605469
vt 6.001259803771973 -40.98590087890625
vt 5.996500015258789 -41.01570129394531
vt 6.003499984741211 -41.01169967651367
vt 6 -41.01570129394531
vt 6 -40.98429870605469
vt 5.993340015411377 -41.0093994140625
vt 5.993340015411377 -41.0093994140625
vt 6 -40.98429870605469
vt 5.997550010681152 -40.98590087890625
vt 6 -40.98429870605469
vt 6 -41.01570129394531
vt 6.002190113067627 -40.98590087890625
vt 6.002190113067627 -40.98590087890625
vt 6 -41.01570129394531
vt 6.006659984588623 -41.0093994140625
vt 5.997250080108643 -40.98429870605469
vt 5.996500015258789 -41.0093994140625
vt 5.998950004577637 -40.98429870605469
vt 6.003499984741211 -41.01570129394531
vt 6.001049995422363 -40.98429870605469
vt 5.996500015258789 -41.0093994140625
vt 5.998950004577637 -40.98429870605469
vt 5.996500015258789 -41.0093994140625
vt 6.001049995422363 -40.98429870605469
vt 6.001049995422363 -40.98429870605469
vt 6.003499984741211 -41.01570129394531
vt 6.00314998626709 -40.98590087890625
vt 6.00314998626709 -40.98590087890625
vt 6.003499984741211 -41.01570129394531
vt 6.009160041809082 -41.0093994140625
vt 6.010769844055176 -41.0093994140625
vt 6.001999855041504 -40.98429870605469
vt 6.006659984588623 -41.01570129394531
vt 6 -41.0093994140625
vt 6.006659984588623 -41.01570129394531
vt 6.001999855041504 -40.98429870605469
vt 6.0001301765441895 -40.98590087890625
vt 6 -41.0093994140625
vt 6.001999855041504 -40.98429870605469
vt 6 -41.0093994140625
vt 5.998000144958496 -40.98429870605469
vt 5.993340015411377 -41.01570129394531
vt 5.998000144958496 -40.98429870605469
vt 6 -41.0093994140625
vt 6.0001301765441895 -40.98590087890625
vn -0.6445746225329503 0.3491854325280064 0.6801419628994626
vn -0.6445746225329503 0.3491854325280064 0.6801419628994626
vn -0.7536275807538659 0.33031020226435415 0.5682786638676106
vn -0.7536275807538659 0.33031020226435415 0.5682786638676106
vn -0.6445746225329503 0.3491854325280064 0.6801419628994626
vn -0.7536275807538659 0.33031020226435415 0.5682786638676106
vn -0.9211665095596869 0.3214048338210819 -0.21943380428289977
vn -0.8754410419638685 0.3276652904952192 -0.35530049176703893
vn -0.8754410419638685 0.3276652904952192 -0.35530049176703893
vn -0.8754410419638685 0.3276652904952192 -0.35530049176703893
vn -0.9211665095596869 0.3214048338210819 -0.21943380428289977
vn -0.9211665095596869 0.3214048338210819 -0.21943380428289977
vn -0.9211665095596869 0.3214048338210819 -0.21943380428289977
vn -0.9471804417138844 0.30965576682865603 -0.08344169763642054
vn -0.9211665095596869 0.3214048338210819 -0.21943380428289977
vn -0.9471804417138844 0.30965576682865603 -0.08344169763642054
vn -0.9211665095596869 0.3214048338210819 -0.21943380428289977
vn -0.9471804417138844 0.30965576682865603 -0.08344169763642054
vn 0 0.38529380311051703 -0.9227939560295321
vn 0 0.38529380311051703 -0.9227939560295321
vn 0.14530880214205602 0.37391178859028146 -0.9160105492696343
vn 0.14530880214205602 0.37391178859028146 -0.9160105492696343
vn 0 0.38529380311051703 -0.9227939560295321
vn 0.14530880214205602 0.37391178859028146 -0.9160105492696343
vn 0 0.38529380311051703 -0.9227939560295321
vn 0 0.38529380311051703 -0.9227939560295321
vn -0.14530880214205602 0.37391178859028146 -0.9160105492696343
vn -0.14530880214205602 0.37391178859028146 -0.9160105492696343
vn 0 0.38529380311051703 -0.9227939560295321
vn -0.14530880214205602 0.37391178859028146 -0.9160105492696343
vn 0.6314096178914193 0.3512982078788743 0.6913114085383686
vn 0.7099607778745499 0.34388400873043024 0.614572601422528
vn 0.7099607778745499 0.34388400873043024 0.614572601422528
vn 0.9158587291191088 0.32228411207158547 -0.23944882418287353
vn 0.9172619942333201 0.32277791099161063 -0.23333421118859612
vn 0.937255415165851 0.318910555019694 -0.14088415325833895
vn 0.937255415165851 0.318910555019694 -0.14088415325833895
vn 0.937255415165851 0.318910555019694 -0.14088415325833895
vn 0.9172619942333201 0.32277791099161063 -0.23333421118859612
vn 0.9172619942333201 0.32277791099161063 -0.23333421118859612
vn 0.9158587291191088 0.32228411207158547 -0.23944882418287353
vn 0.884971568082923 0.32531757213896106 -0.3331573216101729
vn 0.884971568082923 0.32531757213896106 -0.3331573216101729
vn 0.9158587291191088 0.32228411207158547 -0.23944882418287353
vn 0.884971568082923 0.32531757213896106 -0.3331573216101729
vn 0.7099607778745499 0.34388400873043024 0.614572601422528
vn 0.6314096178914193 0.3512982078788743 0.6913114085383686
vn 0.6231573014013857 0.35145626358654036 0.6986798068471212
vn 0.5238140882467455 0.35943654228592836 0.7722850335360426
vn 0.6231573014013857 0.35145626358654036 0.6986798068471212
vn 0.6314096178914193 0.3512982078788743 0.6913114085383686
vn 0.5238140882467455 0.35943654228592836 0.7722850335360426
vn 0.5238140882467455 0.35943654228592836 0.7722850335360426
vn 0.6314096178914193 0.3512982078788743 0.6913114085383686
vn -0.5145360950792326 0.35905427828229947 0.7786736364535479
vn -0.6445746225329503 0.3491854325280064 0.6801419628994626
vn -0.6445746225329503 0.3491854325280064 0.6801419628994626
vn -0.6445746225329503 0.3491854325280064 0.6801419628994626
vn -0.5145360950792326 0.35905427828229947 0.7786736364535479
vn -0.5145360950792326 0.35905427828229947 0.7786736364535479
f 91/91/91 92/92/92 93/93/93
f 94/94/94 95/95/95 96/96/96
f 97/97/97 98/98/98 99/99/99
f 100/100/100 101/101/101 102/102/102
f 103/103/103 104/104/104 105/105/105
f 106/106/106 107/107/107 108/108/108
f 109/109/109 110/110/110 111/111/111
f 112/112/112 113/113/113 114/114/114
f 115/115/115 116/116/116 117/117/117
f 118/118/118 119/119/119 120/120/120
f 121/121/121 122/122/122 123/123/123
f 124/124/124 125/125/125 126/126/126
f 127/127/127 128/128/128 129/129/129
f 130/130/130 131/131/131 132/132/132
f 133/133/133 134/134/134 135/135/135
f 136/136/136 137/137/137 138/138/138
f 139/139/139 140/140/140 141/141/141
f 142/142/142 143/143/143 144/144/144
f 145/145/145 146/146/146 147/147/147
f 148/148/148 149/149/149 150/150/150
