o 
v 0.38641889838214527 0.32515181928770287 0.21273542913764204
v 0.30211289671893726 0.14657181829111324 0.00920142206519331
v 0.30211289671893726 0.32515181928770287 0.00920142206519331
v 0.30211289671893726 0.32515181928770287 0.00920142206519331
v 0.30211289671893726 0.14657181829111324 0.00920142206519331
v 0.09857988964648601 0.32515181928770287 -0.0751045795980147
v 0.30211289671893726 0.14657181829111324 0.00920142206519331
v 0.38641889838214527 0.32515181928770287 0.21273542913764204
v 0.38641889838214527 0.14657181829111324 0.21273542913764204
v 0.09857988964648601 0.32515181928770287 -0.0751045795980147
v 0.30211289671893726 0.14657181829111324 0.00920142206519331
v 0.09857988964648601 0.14657181829111324 -0.0751045795980147
v 0.30211289671893726 0.32515181928770287 0.41626943621009077
v 0.38641889838214527 0.14657181829111324 0.21273542913764204
v 0.38641889838214527 0.32515181928770287 0.21273542913764204
v -0.1049551174259602 0.14657181829111324 0.00920142206519331
v 0.09857988964648601 0.32515181928770287 -0.0751045795980147
v 0.09857988964648601 0.14657181829111324 -0.0751045795980147
v 0.38641889838214527 0.14657181829111324 0.21273542913764204
v 0.30211289671893726 0.32515181928770287 0.41626943621009077
v 0.30211289671893726 0.14657181829111324 0.41626943621009077
v 0.09857988964648601 0.32515181928770287 -0.0751045795980147
v -0.1049551174259602 0.14657181829111324 0.00920142206519331
v -0.1049551174259602 0.32515181928770287 0.00920142206519331
v 0.30211289671893726 0.14657181829111324 0.41626943621009077
v 0.30211289671893726 0.32515181928770287 0.41626943621009077
v 0.09857988964648601 0.32515181928770287 0.5005754378732987
v -0.1049551174259602 0.32515181928770287 0.00920142206519331
v -0.1049551174259602 0.14657181829111324 0.00920142206519331
v -0.1892611190891682 0.14657181829111324 0.21273542913764204
v 0.09857988964648601 0.14657181829111324 0.5005754378732987
v 0.30211289671893726 0.14657181829111324 0.41626943621009077
v 0.09857988964648601 0.32515181928770287 0.5005754378732987
v -0.1049551174259602 0.32515181928770287 0.00920142206519331
v -0.1892611190891682 0.14657181829111324 0.21273542913764204
v -0.1892611190891682 0.32515181928770287 0.21273542913764204
v -0.1049551174259602 0.14657181829111324 0.41626943621009077
v 0.09857988964648601 0.14657181829111324 0.5005754378732987
v 0.09857988964648601 0.32515181928770287 0.5005754378732987
v -0.1892611190891682 0.32515181928770287 0.21273542913764204
v -0.1892611190891682 0.14657181829111324 0.21273542913764204
v -0.1049551174259602 0.14657181829111324 0.41626943621009077
v -0.1049551174259602 0.14657181829111324 0.41626943621009077
v 0.09857988964648601 0.32515181928770287 0.5005754378732987
v -0.1049551174259602 0.32515181928770287 0.41626943621009077
v -0.1892611190891682 0.32515181928770287 0.21273542913764204
v -0.1049551174259602 0.14657181829111324 0.41626943621009077
v -0.1049551174259602 0.32515181928770287 0.41626943621009077
vt 0 0
vt 0 0
vt 0 0
vt 0 0
vt 0 0
vt 0 0
vt 0 0
vt 0 0
vt 0 0
vt 0 0
vt 0 0
vt 0 0
vt 0 0
vt 0 0
vt 0 0
vt 0 0
vt 0 0
vt 0 0
vt 0 0
vt 0 0
vt 0 0
vt 0 0
vt 0 0
vt 0 0
vt 0 0
vt 0 0
vt 0 0
vt 0 0
vt 0 0
vt 0 0
vt 0 0
vt 0 0
vt 0 0
vt 0 0
vt 0 0
vt 0 0
vt 0 0
vt 0 0
vt 0 0
vt 0 0
vt 0 0
vt 0 0
vt 0 0
vt 0 0
vt 0 0
vt 0 0
vt 0 0
vt 0 0
vn 1 0 0
vn 0.7071067811865476 0 -0.7071067811865476
vn 0.7071067811865476 0 -0.7071067811865476
vn 0.7071067811865476 0 -0.7071067811865476
vn 0.7071067811865476 0 -0.7071067811865476
vn 0 0 -1
vn 0.7071067811865476 0 -0.7071067811865476
vn 1 0 0
vn 1 0 0
vn 0 0 -1
vn 0.7071067811865476 0 -0.7071067811865476
vn 0 0 -1
vn 0.7071067811865476 0 0.7071067811865476
vn 1 0 0
vn 1 0 0
vn -0.7071067811865476 0 -0.7071067811865476
vn 0 0 -1
vn 0 0 -1
vn 1 0 0
vn 0.7071067811865476 0 0.7071067811865476
vn 0.7071067811865476 0 0.7071067811865476
vn 0 0 -1
vn -0.7071067811865476 0 -0.7071067811865476
vn -0.7071067811865476 0 -0.7071067811865476
vn 0.7071067811865476 0 0.7071067811865476
vn 0.7071067811865476 0 0.7071067811865476
vn 0 0 1
vn -0.7071067811865476 0 -0.7071067811865476
vn -0.7071067811865476 0 -0.7071067811865476
vn -1 0 0
vn 0 0 1
vn 0.7071067811865476 0 0.7071067811865476
vn 0 0 1
vn -0.7071067811865476 0 -0.7071067811865476
vn -1 0 0
vn -1 0 0
vn -0.7071067811865476 0 0.7071067811865476
vn 0 0 1
vn 0 0 1
vn -1 0 0
vn -1 0 0
vn -0.7071067811865476 0 0.7071067811865476
vn -0.7071067811865476 0 0.7071067811865476
vn 0 0 1
vn -0.7071067811865476 0 0.7071067811865476
vn -1 0 0
vn -0.7071067811865476 0 0.7071067811865476
vn -0.7071067811865476 0 0.7071067811865476
f 1/1/1 2/2/2 3/3/3
f 4/4/4 5/5/5 6/6/6
f 7/7/7 8/8/8 9/9/9
f 10/10/10 11/11/11 12/12/12
f 13/13/13 14/14/14 15/15/15
f 16/16/16 17/17/17 18/18/18
f 19/19/19 20/20/20 21/21/21
f 22/22/22 23/23/23 24/24/24
f 25/25/25 26/26/26 27/27/27
f 28/28/28 29/29/29 30/30/30
f 31/31/31 32/32/32 33/33/33
f 34/34/34 35/35/35 36/36/36
f 37/37/37 38/38/38 39/39/39
f 40/40/40 41/41/41 42/42/42
f 43/43/43 44/44/44 45/45/45
f 46/46/46 47/47/47 48/48/48
o 
v -0.057119598497662516 0.530847903341922 0.013596457426472947
v 0.25632239330836776 0.530847903341922 0.013596457426472947
v 0.09960139740535262 0.530847903341922 -0.05131954234369154
v 0.25632239330836776 0.530847903341922 0.013596457426472947
v -0.057119598497662516 0.530847903341922 0.013596457426472947
v -0.057119598497662516 0.530847903341922 0.32703844923250325
v -0.057119598497662516 0.530847903341922 0.32703844923250325
v -0.057119598497662516 0.530847903341922 0.013596457426472947
v -0.122035598267827 0.530847903341922 0.17031745332948808
v 0.25632239330836776 0.530847903341922 0.013596457426472947
v -0.057119598497662516 0.530847903341922 0.32703844923250325
v 0.25632239330836776 0.530847903341922 0.32703844923250325
v 0.25632239330836776 0.530847903341922 0.32703844923250325
v -0.057119598497662516 0.530847903341922 0.32703844923250325
v 0.09960139740535262 0.530847903341922 0.39195444900266774
v 0.25632239330836776 0.530847903341922 0.013596457426472947
v 0.25632239330836776 0.530847903341922 0.32703844923250325
v 0.32123839307853225 0.530847903341922 0.17031745332948808
v 0.09960139740535262 0.5117459036418526 0.39195444900266774
v -0.057119598497662516 0.5117459036418526 0.32703844923250325
v 0.25632239330836776 0.5117459036418526 0.32703844923250325
v 0.25632239330836776 0.5117459036418526 0.32703844923250325
v 0.09960139740535262 0.530847903341922 0.39195444900266774
v 0.09960139740535262 0.5117459036418526 0.39195444900266774
v -0.057119598497662516 0.530847903341922 0.32703844923250325
v 0.09960139740535262 0.5117459036418526 0.39195444900266774
v 0.09960139740535262 0.530847903341922 0.39195444900266774
v 0.09960139740535262 0.5117459036418526 0.39195444900266774
v -0.057119598497662516 0.530847903341922 0.32703844923250325
v -0.057119598497662516 0.5117459036418526 0.32703844923250325
v 0.09960139740535262 0.530847903341922 0.39195444900266774
v 0.25632239330836776 0.5117459036418526 0.32703844923250325
v 0.25632239330836776 0.530847903341922 0.32703844923250325
v 0.32123839307853225 0.5117459036418526 0.17031745332948808
v 0.25632239330836776 0.530847903341922 0.32703844923250325
v 0.25632239330836776 0.5117459036418526 0.32703844923250325
v 0.32123839307853225 0.530847903341922 0.17031745332948808
v 0.25632239330836776 0.530847903341922 0.32703844923250325
v 0.32123839307853225 0.5117459036418526 0.17031745332948808
v 0.25632239330836776 0.5117459036418526 0.32703844923250325
v 0.25632239330836776 0.5117459036418526 0.013596457426472947
v 0.32123839307853225 0.5117459036418526 0.17031745332948808
v 0.25632239330836776 0.5117459036418526 0.013596457426472947
v 0.32123839307853225 0.530847903341922 0.17031745332948808
v 0.32123839307853225 0.5117459036418526 0.17031745332948808
v 0.25632239330836776 0.5117459036418526 0.013596457426472947
v 0.25632239330836776 0.5117459036418526 0.32703844923250325
v -0.057119598497662516 0.5117459036418526 0.32703844923250325
v 0.25632239330836776 0.530847903341922 0.013596457426472947
v 0.32123839307853225 0.530847903341922 0.17031745332948808
v 0.25632239330836776 0.5117459036418526 0.013596457426472947
v -0.122035598267827 0.530847903341922 0.17031745332948808
v -0.057119598497662516 0.5117459036418526 0.32703844923250325
v -0.057119598497662516 0.530847903341922 0.32703844923250325
v 0.25632239330836776 0.5117459036418526 0.013596457426472947
v 0.09960139740535262 0.5117459036418526 -0.05131954234369154
v 0.25632239330836776 0.530847903341922 0.013596457426472947
v 0.09960139740535262 0.530847903341922 -0.05131954234369154
v 0.25632239330836776 0.530847903341922 0.013596457426472947
v 0.09960139740535262 0.5117459036418526 -0.05131954234369154
v -0.057119598497662516 0.5117459036418526 0.32703844923250325
v -0.122035598267827 0.530847903341922 0.17031745332948808
v -0.122035598267827 0.5117459036418526 0.17031745332948808
v -0.057119598497662516 0.530847903341922 0.013596457426472947
v -0.122035598267827 0.5117459036418526 0.17031745332948808
v -0.122035598267827 0.530847903341922 0.17031745332948808
v 0.25632239330836776 0.5117459036418526 0.013596457426472947
v -0.057119598497662516 0.5117459036418526 0.32703844923250325
v -0.057119598497662516 0.5117459036418526 0.013596457426472947
v 0.25632239330836776 0.5117459036418526 0.013596457426472947
v -0.057119598497662516 0.5117459036418526 0.013596457426472947
v 0.09960139740535262 0.5117459036418526 -0.05131954234369154
v -0.057119598497662516 0.5117459036418526 0.013596457426472947
v -0.057119598497662516 0.5117459036418526 0.32703844923250325
v -0.122035598267827 0.5117459036418526 0.17031745332948808
v 0.09960139740535262 0.5117459036418526 -0.05131954234369154
v -0.057119598497662516 0.5117459036418526 0.013596457426472947
v 0.09960139740535262 0.530847903341922 -0.05131954234369154
v -0.122035598267827 0.5117459036418526 0.17031745332948808
v -0.057119598497662516 0.530847903341922 0.013596457426472947
v -0.057119598497662516 0.5117459036418526 0.013596457426472947
v -0.057119598497662516 0.530847903341922 0.013596457426472947
v 0.09960139740535262 0.530847903341922 -0.05131954234369154
v -0.057119598497662516 0.5117459036418526 0.013596457426472947
vt 0 0
vt 0 0
vt 0 0
vt 0 0
vt 0 0
vt 0 0
vt 0 0
vt 0 0
vt 0 0
vt 0 0
vt 0 0
vt 0 0
vt 0 0
vt 0 0
vt 0 0
vt 0 0
vt 0 0
vt 0 0
vt 0 0
vt 0 0
vt 0 0
vt 0 0
vt 0 0
vt 0 0
vt 0 0
vt 0 0
vt 0 0
vt 0 0
vt 0 0
vt 0 0
vt 0 0
vt 0 0
vt 0 0
vt 0 0
vt 0 0
vt 0 0
vt 0 0
vt 0 0
vt 0 0
vt 0 0
vt 0 0
vt 0 0
vt 0 0
vt 0 0
vt 0 0
vt 0 0
vt 0 0
vt 0 0
vt 0 0
vt 0 0
vt 0 0
vt 0 0
vt 0 0
vt 0 0
vt 0 0
vt 0 0
vt 0 0
vt 0 0
vt 0 0
vt 0 0
vt 0 0
vt 0 0
vt 0 0
vt 0 0
vt 0 0
vt 0 0
vt 0 0
vt 0 0
vt 0 0
vt 0 0
vt 0 0
vt 0 0
vt 0 0
vt 0 0
vt 0 0
vt 0 0
vt 0 0
vt 0 0
vt 0 0
vt 0 0
vt 0 0
vt 0 0
vt 0 0
vt 0 0
vn 0 1 0
vn 0 1 0
vn 0 1 0
vn 0 1 0
vn 0 1 0
vn 0 1 0
vn 0 1 0
vn 0 1 0
vn 0 1 0
vn 0 1 0
vn 0 1 0
vn 0 1 0
vn 0 1 0
vn 0 1 0
vn 0 1 0
vn 0 1 0
vn 0 1 0
vn 0 1 0
vn 0 -0.5868810781195106 0.8096731440187955
vn -0.5725100160710348 -0.5869110349931129 0.5725100160710348
vn 0.5725100160710348 -0.5869110349931129 0.5725100160710348
vn 0.5725100160710348 -0.5869110349931129 0.5725100160710348
vn 0 0 1
vn 0 -0.5868810781195106 0.8096731440187955
vn -0.7071067811865476 0 0.7071067811865476
vn 0 -0.5868810781195106 0.8096731440187955
vn 0 0 1
vn 0 -0.5868810781195106 0.8096731440187955
vn -0.7071067811865476 0 0.7071067811865476
vn -0.5725100160710348 -0.5869110349931129 0.5725100160710348
vn 0 0 1
vn 0.5725100160710348 -0.5869110349931129 0.5725100160710348
vn 0.7071067811865476 0 0.7071067811865476
vn 0.8096731440187955 -0.5868810781195106 0
vn 0.7071067811865476 0 0.7071067811865476
vn 0.5725100160710348 -0.5869110349931129 0.5725100160710348
vn 1 0 0
vn 0.7071067811865476 0 0.7071067811865476
vn 0.8096731440187955 -0.5868810781195106 0
vn 0.5725100160710348 -0.5869110349931129 0.5725100160710348
vn 0.5725100160710348 -0.5869110349931129 -0.5725100160710348
vn 0.8096731440187955 -0.5868810781195106 0
vn 0.5725100160710348 -0.5869110349931129 -0.5725100160710348
vn 1 0 0
vn 0.8096731440187955 -0.5868810781195106 0
vn 0.5725100160710348 -0.5869110349931129 -0.5725100160710348
vn 0.5725100160710348 -0.5869110349931129 0.5725100160710348
vn -0.5725100160710348 -0.5869110349931129 0.5725100160710348
vn 0.7071067811865476 0 -0.7071067811865476
vn 1 0 0
vn 0.5725100160710348 -0.5869110349931129 -0.5725100160710348
vn -1 0 0
vn -0.5725100160710348 -0.5869110349931129 0.5725100160710348
vn -0.7071067811865476 0 0.7071067811865476
vn 0.5725100160710348 -0.5869110349931129 -0.5725100160710348
vn 0 -0.5868810781195106 -0.8096731440187955
vn 0.7071067811865476 0 -0.7071067811865476
vn 0 0 -1
vn 0.7071067811865476 0 -0.7071067811865476
vn 0 -0.5868810781195106 -0.8096731440187955
vn -0.5725100160710348 -0.5869110349931129 0.5725100160710348
vn -1 0 0
vn -0.8096731440187955 -0.5868810781195106 0
vn -0.7071067811865476 0 -0.7071067811865476
vn -0.8096731440187955 -0.5868810781195106 0
vn -1 0 0
vn 0.5725100160710348 -0.5869110349931129 -0.5725100160710348
vn -0.5725100160710348 -0.5869110349931129 0.5725100160710348
vn -0.5725100160710348 -0.5869110349931129 -0.5725100160710348
vn 0.5725100160710348 -0.5869110349931129 -0.5725100160710348
vn -0.5725100160710348 -0.5869110349931129 -0.5725100160710348
vn 0 -0.5868810781195106 -0.8096731440187955
vn -0.5725100160710348 -0.5869110349931129 -0.5725100160710348
vn -0.5725100160710348 -0.5869110349931129 0.5725100160710348
vn -0.8096731440187955 -0.5868810781195106 0
vn 0 -0.5868810781195106 -0.8096731440187955
vn -0.5725100160710348 -0.5869110349931129 -0.5725100160710348
vn 0 0 -1
vn -0.8096731440187955 -0.5868810781195106 0
vn -0.7071067811865476 0 -0.7071067811865476
vn -0.5725100160710348 -0.5869110349931129 -0.5725100160710348
vn -0.7071067811865476 0 -0.7071067811865476
vn 0 0 -1
vn -0.5725100160710348 -0.5869110349931129 -0.5725100160710348
f 49/49/49 50/50/50 51/51/51
f 52/52/52 53/53/53 54/54/54
f 55/55/55 56/56/56 57/57/57
f 58/58/58 59/59/59 60/60/60
f 61/61/61 62/62/62 63/63/63
f 64/64/64 65/65/65 66/66/66
f 67/67/67 68/68/68 69/69/69
f 70/70/70 71/71/71 72/72/72
f 73/73/73 74/74/74 75/75/75
f 76/76/76 77/77/77 78/78/78
f 79/79/79 80/80/80 81/81/81
f 82/82/82 83/83/83 84/84/84
f 85/85/85 86/86/86 87/87/87
f 88/88/88 89/89/89 90/90/90
f 91/91/91 92/92/92 93/93/93
f 94/94/94 95/95/95 96/96/96
f 97/97/97 98/98/98 99/99/99
f 100/100/100 101/101/101 102/102/102
f 103/103/103 104/104/104 105/105/105
f 106/106/106 107/107/107 108/108/108
f 109/109/109 110/110/110 111/111/111
f 112/112/112 113/113/113 114/114/114
f 115/115/115 116/116/116 117/117/117
f 118/118/118 119/119/119 120/120/120
f 121/121/121 122/122/122 123/123/123
f 124/124/124 125/125/125 126/126/126
f 127/127/127 128/128/128 129/129/129
f 130/130/130 131/131/131 132/132/132
